M48
;Layer_Color=9474304
;FILE_FORMAT=4:4
METRIC,LZ
;TYPE=PLATED
T1F00S00C0.3000
T2F00S00C0.8500
T3F00S00C0.9000
T4F00S00C1.0000
T5F00S00C1.0200
T6F00S00C1.2000
T7F00S00C1.3000
T8F00S00C1.6000
T9F00S00C1.6500
T10F00S00C1.7000
;TYPE=NON_PLATED
T11F00S00C0.9906
T12F00S00C3.1500
%
T01
X0027Y002475
X002275Y0029
X004525Y0034
Y00385
X00445Y00395
X005075Y00355
X005325Y003675
Y003125
Y002875
X005875Y0032
X006075Y0034
X008Y002475
X0089Y0029
X009225
X009275Y0032
X009425Y003325
X009575
X009775
X009725Y0031
X009875
X00995Y0032
X009475Y0031
X0098Y0026865
X011225Y003525
X01114Y00362
X01113Y00376
Y0039
X01132
Y00376
Y00362
X0124Y003775
X0129
X012325Y003125
X0123Y002475
X0133
X013725Y0029
X0123Y004
X0124Y005275
X0123Y0055
X0129Y005275
Y006775
X0124
X0123Y007
X013725Y0065
X009075Y005825
X00925Y005475
X0088Y005575
X00876Y00479
X009075Y00485
X0085Y00491
X00842Y0051
X00809999Y005
X00825Y00482
X0082Y00455
X00853Y0046
X00854Y00443
X00848Y00427
X008275Y004025
X0081
X00755Y00415
X0073Y003975
X00735Y005075
X0071Y004975
X0076Y004925
X007625Y0055
X0077Y00565
X007875
Y0055
X00775Y005975
X00755Y0063
X007225Y00635
Y00625
X0045Y0049
X004075Y005125
X004Y004125
X002275Y0065
X003075Y008425
X003025Y008525
Y00865
X00331Y00862
X003375Y008525
X00336Y00843
X003425Y008375
X00355Y008675
X00385Y00875
Y008325
X00315Y008975
X0026Y00925
X002275Y010425
X005025Y0099
Y009775
X005325
Y0099
X005225Y009175
X004325Y009025
Y008925
Y0086
Y0085
X00651158Y008575
X00657Y00848
X00671
X00677Y008575
X00671Y00867
X00657
X008Y010425
X011275Y009075
Y0089
Y008725
X011625Y0093
X0124Y008275
X0129
X013725Y010425
T02
X01235Y0096
X01285
T03
X00365Y009675
Y010175
X00825122Y01238814
X00774877Y01261185
T04
X004125Y0027
X004375
X00495Y003125
X00634Y003735
X01175Y002875
X011448Y004657
Y004911
Y005165
Y005673
Y006181
Y006689
Y006943
Y007451
X004725Y005
X002504Y005419
Y005673
Y005927
Y006181
X002525Y00785
X002425Y008475
X0025Y009925
Y010175
X00445Y009675
X004495Y008355
X005725Y009475
X011Y0096
T05
X011075Y004149
Y004403
Y004657
Y004911
Y005165
Y005419
Y005673
Y005927
Y006181
Y006435
Y006689
Y006943
Y007197
Y007451
X00295Y006181
Y005927
Y005673
Y005419
T06
X0075Y009375
X007Y011375
X009
X0085Y009375
T07
X010875Y01155
X011335
X012465
X012925
T08
X009686Y0142475
X0106
X011514
T09
X0133Y012404
Y013196
X0028
Y012404
T10
X0048Y013755
X0055
X0062
T11
X009421Y0028615
X009929Y0029631
Y0027599
T12
X00255Y00275
X003Y0036
X010608
X01345Y00275
X003Y008
X010608
X01345Y01575
X00255
M30
