M48
;Layer_Color=9474304
;FILE_FORMAT=4:4
METRIC,LZ
;TYPE=PLATED
T1F00S00C0.3000
T2F00S00C0.8500
T3F00S00C0.9000
T4F00S00C1.0000
T5F00S00C1.0200
T6F00S00C1.2000
T7F00S00C1.3000
T8F00S00C1.6000
T9F00S00C1.6500
T10F00S00C1.7000
%
T01
X0119409Y005958
X0125378Y0068978
X0132617Y0069105
X0137189Y005958
X0133379Y0055262
X0118393Y0067397
X01097Y00674
X0106328Y0067397
X0106455Y0059453
X0101756Y0055262
X0095533Y0065676
X0094263
X0091977Y0064025
X0089183Y0065041
X0087532Y0064533
X0088294Y0066311
Y0067581
Y0069105
X0090072
Y0067581
Y0066311
X0089195Y0070514
X00879Y00714
X008677Y006974
X0085246Y0068343
X0082Y00681
X0082198Y0071264
X0083214Y0070502
X0084992Y0073169
Y0074693
X0083595Y0077106
X0081563Y0075074
Y0073931
X0080928Y0078757
X0091215Y007863
X009185Y0071772
X00962Y00751
X0100613Y0075328
X010201
X0102137Y0073804
X0100613
X0101313Y007285
X01032Y00768
X0118901Y0078376
X0082706Y0063009
X0081055
X0076737
X0073943Y0067835
X00759Y00721
X0077118Y0074312
X0076356Y0076852
X00719Y00791
X0069117Y0076471
X0071149Y0072407
X00598Y00727
X0057814Y0074185
Y0075582
X00575Y00773
X00595Y0076
X0056798Y0071645
X0054639Y0066946
X0053623Y0066692
Y0065295
X005375Y0063263
X0056163Y0062755
X0058576Y0064025
X005756Y0058691
X00601
X0064164Y0059326
X00674Y00625
X007026Y0055262
X0046384
X0047146Y0064152
X00496Y00682
X0048416Y0071264
X00415Y0074058
X0040161Y007355
X00397Y00691
X0038002Y0064914
X0036732Y0063898
X0034573Y0063771
X0022762Y0059453
X0026826Y0055262
X0028858Y0076344
X0022762Y0079011
X00378Y00791
X0039526Y0076344
X00363Y00814
X00378Y00836
X0036855Y0086
X00371Y00871
X0038
X0038764Y0089044
X0039526
X0035335Y0091584
X0031779Y0087266
X0028604Y0087012
X002581Y008244
X0032922Y0079519
X0026Y00924
X0031271Y0098315
X0037621Y0104284
X0022762Y0104157
X0052607Y0103522
X0051845Y0099585
X0050067Y0098442
X0053496Y0096664
X00558Y00913
X0060481Y0090568
X0062132Y0087393
Y0086377
X0063656Y0087393
X0064672Y008625
X00677962Y00836338
X0067847Y0081678
X0069244
Y00799
X0067847
X0066323Y0080789
X0070641
X0070514Y0082694
X00708Y00845
X0069244Y0084218
X0067593Y0089425
X0060735Y0096029
X0060862Y0080916
X00568Y00803
X00534Y00825
Y00833
Y00841
X0053623Y0087266
X004994Y008879
X0048416
X0046638
X004486
X0043336
X00416Y00869
X00407
X0048035Y0092854
X00779054Y00839386
X00759Y00811
X00818Y00846
X00863Y00797
X009185Y00799
X0092612Y0083456
X00971Y00813
X00969Y00889
X0097946Y0092092
X01084Y00922
X0105893Y0096918
X0105004Y0098315
Y0099585
X0106782
Y0098315
X0107471Y0101109
X0105893
X0102518Y0104157
X0118647
X0106963Y0085742
X0087786Y0089425
X0120171Y0091965
X0125324Y0091584
Y0093997
X0124235
X0126013Y0085488
X01258Y00821
X0123981Y0080916
X0121949Y0080027
X0120171Y0079392
X0133125Y0083837
X0132998Y0086631
X0137189Y0080154
Y0104157
X0132236Y0101617
T02
X0115652Y0095272
X0120652
T03
X00365Y009675
Y010175
X00825122Y01238814
X00774877Y01261185
T04
X012925Y0058
X0130839Y0072782
Y0075322
Y0077862
X0106582Y007609
X0103534Y007445
X01014Y00779
X009947Y0070502
X0072038Y0062882
X00549Y0059058
X00515Y0066
X00415Y00778
X0025Y006785
Y006535
X003175Y0058
X0030001Y0093997
X0025Y009925
Y010175
X00445Y009675
X0056544Y0086377
X0062894Y0083075
X0102152Y0095272
X0119663Y0085742
X0130839Y0088022
Y0090582
Y0093102
Y0095642
Y0098182
Y0100722
Y0082942
Y0080402
T05
X0127664Y0067708
Y0070248
Y0072788
Y0075328
Y0077868
Y0080408
Y0082948
Y0085488
Y0088028
Y0090568
Y0093108
Y0095648
Y0098188
Y0100728
T06
X0075Y009125
X007Y011625
X009
X0085Y009125
T07
X01246Y01197
X01292
X01133
X01087
T08
X009686Y0142475
X0106
X011514
T09
X0133Y012704
Y013496
X002725Y013196
Y012404
T10
X0048Y013755
X0055
X0062
M30
