G04*
G04 #@! TF.GenerationSoftware,Altium Limited,CircuitStudio,1.5.2 (30)*
G04*
G04 Layer_Color=16711935*
%FSLAX44Y44*%
%MOMM*%
G71*
G01*
G75*
%ADD92C,3.6000*%
%ADD93C,2.6260*%
%ADD94C,2.4760*%
%ADD95C,1.3510*%
%ADD96R,1.3510X1.3510*%
%ADD97C,1.7760*%
%ADD98C,1.6760*%
%ADD99R,1.6760X1.6760*%
%ADD100C,1.5760*%
%ADD101R,1.5760X1.5760*%
%ADD102C,3.3540*%
%ADD103C,1.4260*%
%ADD104R,2.5510X2.5510*%
%ADD105C,2.5510*%
%ADD106C,2.0260*%
%ADD107C,1.2000*%
%ADD108C,1.2040*%
%ADD109C,1.8760*%
D92*
X750000Y1526500D02*
D03*
X350000D02*
D03*
X860000Y1521250D02*
D03*
X1260000D02*
D03*
D93*
X620000Y1375500D02*
D03*
X550000D02*
D03*
X480000D02*
D03*
D94*
X1151400Y1424750D02*
D03*
X1060000D02*
D03*
X968600D02*
D03*
D95*
X1156520Y952720D02*
D03*
D96*
X1206520D02*
D03*
D97*
X1196630Y857420D02*
D03*
X1308390Y905820D02*
D03*
Y956420D02*
D03*
Y981820D02*
D03*
Y931020D02*
D03*
Y1007220D02*
D03*
Y778620D02*
D03*
Y753220D02*
D03*
Y727820D02*
D03*
Y804020D02*
D03*
Y829420D02*
D03*
Y880220D02*
D03*
X565440Y863770D02*
D03*
X994700Y705020D02*
D03*
X1065820Y760900D02*
D03*
X1021520Y952720D02*
D03*
X515000Y660000D02*
D03*
X720380Y628820D02*
D03*
X628940Y830750D02*
D03*
X445000Y967500D02*
D03*
X415000Y778000D02*
D03*
X300010Y939970D02*
D03*
X1292500Y580000D02*
D03*
X317500D02*
D03*
X1035340Y744500D02*
D03*
X1014000Y779000D02*
D03*
X549000Y590580D02*
D03*
D98*
X1276640Y677080D02*
D03*
Y702480D02*
D03*
Y727880D02*
D03*
Y753280D02*
D03*
Y778680D02*
D03*
Y804080D02*
D03*
Y829480D02*
D03*
Y854880D02*
D03*
Y880280D02*
D03*
Y905680D02*
D03*
Y931080D02*
D03*
Y956480D02*
D03*
Y981880D02*
D03*
D99*
Y1007280D02*
D03*
D100*
X365000Y967500D02*
D03*
Y1017500D02*
D03*
X250000Y653500D02*
D03*
Y992500D02*
D03*
D101*
Y678500D02*
D03*
Y1017500D02*
D03*
D102*
X255000Y580000D02*
D03*
X1345000D02*
D03*
Y1575000D02*
D03*
X255000D02*
D03*
D103*
X774877Y1261185D02*
D03*
X825122Y1238814D02*
D03*
D104*
X272500Y1240400D02*
D03*
X1330000Y1349600D02*
D03*
D105*
X272500Y1319600D02*
D03*
X1330000Y1270400D02*
D03*
D106*
X1246000Y1197000D02*
D03*
X1292000D02*
D03*
X1133000D02*
D03*
X1087000D02*
D03*
D107*
X937000Y630100D02*
D03*
X926840Y579300D02*
D03*
X947160D02*
D03*
D108*
X1159500Y580000D02*
D03*
X1079500D02*
D03*
D109*
X850000Y912500D02*
D03*
X750000D02*
D03*
X700000Y1162500D02*
D03*
X900000D02*
D03*
M02*
