G04*
G04 #@! TF.GenerationSoftware,Altium Limited,CircuitStudio,1.5.2 (30)*
G04*
G04 Layer_Color=8421504*
%FSLAX44Y44*%
%MOMM*%
G71*
G01*
G75*
%ADD53R,0.7000X0.7000*%
%ADD54R,0.7000X0.7000*%
%ADD55R,0.8000X1.2000*%
%ADD56R,0.8000X0.5000*%
G04:AMPARAMS|DCode=57|XSize=1mm|YSize=0.5mm|CornerRadius=0.025mm|HoleSize=0mm|Usage=FLASHONLY|Rotation=0.000|XOffset=0mm|YOffset=0mm|HoleType=Round|Shape=RoundedRectangle|*
%AMROUNDEDRECTD57*
21,1,1.0000,0.4500,0,0,0.0*
21,1,0.9500,0.5000,0,0,0.0*
1,1,0.0500,0.4750,-0.2250*
1,1,0.0500,-0.4750,-0.2250*
1,1,0.0500,-0.4750,0.2250*
1,1,0.0500,0.4750,0.2250*
%
%ADD57ROUNDEDRECTD57*%
%ADD58R,0.5000X0.8000*%
%ADD59R,1.3500X0.3500*%
%ADD60R,0.5000X0.5000*%
%ADD61R,7.2000X2.5500*%
%ADD62R,1.2000X0.8000*%
%ADD63R,2.0590X1.6780*%
%ADD64R,1.6000X0.7000*%
%ADD65R,0.2000X1.1000*%
%ADD66R,1.1000X0.2000*%
%ADD67R,1.3000X2.8000*%
%ADD68R,0.6000X1.5000*%
%ADD69R,1.5000X1.4000*%
%ADD70R,1.1000X1.4000*%
%ADD71R,1.1000X2.1000*%
D53*
X765000Y824500D02*
D03*
Y839500D02*
D03*
X522260Y590840D02*
D03*
Y605840D02*
D03*
X283000Y882500D02*
D03*
Y897500D02*
D03*
X336500Y693500D02*
D03*
Y678500D02*
D03*
Y653500D02*
D03*
Y638500D02*
D03*
X767500Y656000D02*
D03*
Y641000D02*
D03*
X827500Y656000D02*
D03*
Y641000D02*
D03*
X810000Y656000D02*
D03*
Y641000D02*
D03*
X792500Y656000D02*
D03*
Y641000D02*
D03*
D54*
X548719Y772680D02*
D03*
X563719D02*
D03*
X424000Y691000D02*
D03*
X409000D02*
D03*
X339500Y860000D02*
D03*
X354500D02*
D03*
X599000Y653000D02*
D03*
X584000D02*
D03*
X726610Y712640D02*
D03*
X711610D02*
D03*
X891950Y717720D02*
D03*
X906950D02*
D03*
X892500Y796000D02*
D03*
X907500D02*
D03*
D55*
X565719Y832680D02*
D03*
X546719D02*
D03*
X893500Y773500D02*
D03*
X912500D02*
D03*
D56*
X544219Y802680D02*
D03*
X568219Y812180D02*
D03*
Y793180D02*
D03*
X301000Y882500D02*
D03*
Y897500D02*
D03*
X318000Y897500D02*
D03*
Y882500D02*
D03*
X1107000Y744500D02*
D03*
Y729500D02*
D03*
X1128000Y744500D02*
D03*
Y729500D02*
D03*
X1149000Y744500D02*
D03*
Y729500D02*
D03*
X446500Y673500D02*
D03*
Y658500D02*
D03*
X464000Y658500D02*
D03*
Y673500D02*
D03*
X356500Y678500D02*
D03*
Y693500D02*
D03*
X576000Y928500D02*
D03*
Y943500D02*
D03*
X549000Y618000D02*
D03*
Y633000D02*
D03*
X641500Y618000D02*
D03*
Y603000D02*
D03*
X624000Y603000D02*
D03*
Y618000D02*
D03*
Y648000D02*
D03*
Y633000D02*
D03*
X641500Y633000D02*
D03*
Y648000D02*
D03*
X240000Y880000D02*
D03*
Y895000D02*
D03*
X356500Y653500D02*
D03*
Y638500D02*
D03*
X1102110Y952720D02*
D03*
Y937720D02*
D03*
X1046520Y952720D02*
D03*
Y937720D02*
D03*
D57*
X599500Y618500D02*
D03*
Y637500D02*
D03*
X573500Y618500D02*
D03*
Y628000D02*
D03*
Y637500D02*
D03*
X351000Y891000D02*
D03*
Y900500D02*
D03*
Y881500D02*
D03*
X377000Y900500D02*
D03*
Y891000D02*
D03*
Y881500D02*
D03*
D58*
X446500Y641000D02*
D03*
X461500D02*
D03*
X319000Y678500D02*
D03*
X304000D02*
D03*
X539000Y924000D02*
D03*
X558000D02*
D03*
X548500Y948000D02*
D03*
X519500Y946000D02*
D03*
X504500D02*
D03*
X240500Y913000D02*
D03*
X259500D02*
D03*
X250000Y937000D02*
D03*
X319000Y653500D02*
D03*
X304000D02*
D03*
X1064520Y933220D02*
D03*
X1083520D02*
D03*
X1074020Y957220D02*
D03*
X554500Y899000D02*
D03*
X539500D02*
D03*
D59*
X379500Y675750D02*
D03*
Y669250D02*
D03*
Y662750D02*
D03*
Y656250D02*
D03*
X423500Y675750D02*
D03*
Y669250D02*
D03*
Y662750D02*
D03*
Y656250D02*
D03*
D60*
X484000Y660000D02*
D03*
Y682000D02*
D03*
X661500Y646500D02*
D03*
Y624500D02*
D03*
D61*
X468000Y864250D02*
D03*
Y817750D02*
D03*
D62*
X411000Y902500D02*
D03*
Y883500D02*
D03*
X720000Y807500D02*
D03*
Y826500D02*
D03*
D63*
X485320Y1010000D02*
D03*
X444680D02*
D03*
D64*
X577000Y984800D02*
D03*
Y1010200D02*
D03*
X518000Y984800D02*
D03*
Y1010200D02*
D03*
D65*
X767500Y693500D02*
D03*
X772500D02*
D03*
X777500D02*
D03*
X782500D02*
D03*
X787500D02*
D03*
X792500D02*
D03*
X797500D02*
D03*
X802500D02*
D03*
X807500D02*
D03*
X812500D02*
D03*
X817500D02*
D03*
X822500D02*
D03*
X827500D02*
D03*
X832500D02*
D03*
X837500D02*
D03*
X842500D02*
D03*
Y808500D02*
D03*
X837500D02*
D03*
X832500D02*
D03*
X827500D02*
D03*
X822500D02*
D03*
X817500D02*
D03*
X812500D02*
D03*
X807500D02*
D03*
X802500D02*
D03*
X797500D02*
D03*
X792500D02*
D03*
X787500D02*
D03*
X782500D02*
D03*
X777500D02*
D03*
X772500D02*
D03*
X767500D02*
D03*
D66*
X862500Y713500D02*
D03*
Y718500D02*
D03*
Y723500D02*
D03*
Y728500D02*
D03*
Y733500D02*
D03*
Y738500D02*
D03*
Y743500D02*
D03*
Y748500D02*
D03*
Y753500D02*
D03*
Y758500D02*
D03*
Y763500D02*
D03*
Y768500D02*
D03*
Y773500D02*
D03*
Y778500D02*
D03*
Y783500D02*
D03*
Y788500D02*
D03*
X747500D02*
D03*
Y783500D02*
D03*
Y778500D02*
D03*
Y773500D02*
D03*
Y768500D02*
D03*
Y763500D02*
D03*
Y758500D02*
D03*
Y753500D02*
D03*
Y748500D02*
D03*
Y743500D02*
D03*
Y738500D02*
D03*
Y733500D02*
D03*
Y728500D02*
D03*
Y723500D02*
D03*
Y718500D02*
D03*
Y713500D02*
D03*
D67*
X414000Y814000D02*
D03*
X378000D02*
D03*
D68*
X1151500Y702000D02*
D03*
X1140500D02*
D03*
X1129500D02*
D03*
X1118500D02*
D03*
X1107500D02*
D03*
X1096500D02*
D03*
X1085500D02*
D03*
X1074500D02*
D03*
X1063500D02*
D03*
D69*
X1197500Y692000D02*
D03*
D70*
X1051500D02*
D03*
D71*
Y596000D02*
D03*
X1206500D02*
D03*
M02*
