G04*
G04 #@! TF.GenerationSoftware,Altium Limited,CircuitStudio,1.5.2 (30)*
G04*
G04 Layer_Color=8421504*
%FSLAX44Y44*%
%MOMM*%
G71*
G01*
G75*
%ADD11R,0.9000X0.6000*%
%ADD12R,2.6000X1.4000*%
%ADD13R,0.8000X0.8000*%
%ADD14R,0.6000X0.9000*%
%ADD15R,0.8000X0.8000*%
%ADD16R,1.3000X0.9000*%
%ADD17R,2.1590X1.7780*%
%ADD18R,0.6000X0.6000*%
%ADD19R,1.7000X0.8000*%
%ADD20R,0.4500X1.4500*%
%ADD21R,0.6000X0.6000*%
G04:AMPARAMS|DCode=22|XSize=1.1mm|YSize=0.6mm|CornerRadius=0.075mm|HoleSize=0mm|Usage=FLASHONLY|Rotation=0.000|XOffset=0mm|YOffset=0mm|HoleType=Round|Shape=RoundedRectangle|*
%AMROUNDEDRECTD22*
21,1,1.1000,0.4500,0,0,0.0*
21,1,0.9500,0.6000,0,0,0.0*
1,1,0.1500,0.4750,-0.2250*
1,1,0.1500,-0.4750,-0.2250*
1,1,0.1500,-0.4750,0.2250*
1,1,0.1500,0.4750,0.2250*
%
%ADD22ROUNDEDRECTD22*%
%ADD24R,0.9000X1.3000*%
%ADD25R,0.3000X1.2000*%
%ADD26R,1.2000X0.3000*%
D11*
X485000Y932500D02*
D03*
Y947500D02*
D03*
X540000Y932500D02*
D03*
Y947500D02*
D03*
X1180000Y945000D02*
D03*
Y960000D02*
D03*
X1125000Y960000D02*
D03*
Y945000D02*
D03*
X412500Y335000D02*
D03*
Y320000D02*
D03*
X437500Y335000D02*
D03*
Y320000D02*
D03*
X450000Y462500D02*
D03*
Y477500D02*
D03*
X495000Y345000D02*
D03*
Y360000D02*
D03*
X587500Y345000D02*
D03*
Y330000D02*
D03*
X570000Y330000D02*
D03*
Y345000D02*
D03*
Y375000D02*
D03*
Y360000D02*
D03*
X587500Y360000D02*
D03*
Y375000D02*
D03*
X240000Y880000D02*
D03*
Y895000D02*
D03*
D12*
X1218000Y827500D02*
D03*
X1312000D02*
D03*
X1218000Y782500D02*
D03*
X1312000D02*
D03*
X1218000Y527500D02*
D03*
X1312000D02*
D03*
X1218000Y482500D02*
D03*
X1312000D02*
D03*
X1218000Y377500D02*
D03*
X1312000D02*
D03*
X1218000Y332500D02*
D03*
X1312000D02*
D03*
X1218000Y677500D02*
D03*
X1312000D02*
D03*
X1218000Y632500D02*
D03*
X1312000D02*
D03*
D13*
X1215500Y712500D02*
D03*
X1230500D02*
D03*
X1215500Y562500D02*
D03*
X1230500D02*
D03*
X1215500Y412500D02*
D03*
X1230500D02*
D03*
X1215500Y260000D02*
D03*
X1230500D02*
D03*
X545000Y380000D02*
D03*
X530000D02*
D03*
X397500Y352500D02*
D03*
X412500D02*
D03*
X495000Y287500D02*
D03*
X510000D02*
D03*
X437500Y352500D02*
D03*
X452500D02*
D03*
X892500Y497500D02*
D03*
X907500D02*
D03*
X892500Y570000D02*
D03*
X907500D02*
D03*
D14*
X1232500Y752500D02*
D03*
X1217500D02*
D03*
X1217500Y732500D02*
D03*
X1232500D02*
D03*
X1232500Y602500D02*
D03*
X1217500D02*
D03*
X1217500Y582500D02*
D03*
X1232500D02*
D03*
X1232500Y452500D02*
D03*
X1217500D02*
D03*
X1217500Y432500D02*
D03*
X1232500D02*
D03*
X1217500Y280000D02*
D03*
X1232500D02*
D03*
X1232500Y300000D02*
D03*
X1217500D02*
D03*
X1143000Y940500D02*
D03*
X1162000D02*
D03*
X1152500Y964500D02*
D03*
X385000Y857000D02*
D03*
X394500Y833000D02*
D03*
X375500D02*
D03*
Y875500D02*
D03*
X394500D02*
D03*
X385000Y899500D02*
D03*
X503000Y928000D02*
D03*
X522000D02*
D03*
X512500Y952000D02*
D03*
X412500Y372500D02*
D03*
X397500D02*
D03*
X432500Y480000D02*
D03*
X417500D02*
D03*
X417500Y462500D02*
D03*
X432500D02*
D03*
X240500Y913000D02*
D03*
X259500D02*
D03*
X250000Y937000D02*
D03*
X437500Y372500D02*
D03*
X452500D02*
D03*
D15*
X355000Y852500D02*
D03*
Y837500D02*
D03*
Y895000D02*
D03*
Y880000D02*
D03*
X722500Y482500D02*
D03*
Y497500D02*
D03*
X400000Y440000D02*
D03*
Y425000D02*
D03*
X767500Y615000D02*
D03*
Y630000D02*
D03*
Y430000D02*
D03*
Y415000D02*
D03*
X827500Y430000D02*
D03*
Y415000D02*
D03*
X810000Y430000D02*
D03*
Y415000D02*
D03*
X792500Y430000D02*
D03*
Y415000D02*
D03*
D16*
X415000Y835500D02*
D03*
Y854500D02*
D03*
X415000Y878000D02*
D03*
Y897000D02*
D03*
X737980Y614580D02*
D03*
Y633580D02*
D03*
D17*
X485320Y1010000D02*
D03*
X444680D02*
D03*
D18*
X607500Y373500D02*
D03*
Y351500D02*
D03*
D19*
X577000Y984800D02*
D03*
Y1010200D02*
D03*
X518000Y984800D02*
D03*
Y1010200D02*
D03*
D20*
X415250Y395500D02*
D03*
X421750D02*
D03*
X428250D02*
D03*
X434750D02*
D03*
X415250Y439500D02*
D03*
X421750D02*
D03*
X428250D02*
D03*
X434750D02*
D03*
D21*
X431000Y500000D02*
D03*
X409000D02*
D03*
D22*
X545500Y345500D02*
D03*
Y364500D02*
D03*
X519500Y345500D02*
D03*
Y355000D02*
D03*
Y364500D02*
D03*
D24*
X893500Y547500D02*
D03*
X912500D02*
D03*
D25*
X767500Y467500D02*
D03*
X772500D02*
D03*
X777500D02*
D03*
X782500D02*
D03*
X787500D02*
D03*
X792500D02*
D03*
X797500D02*
D03*
X802500D02*
D03*
X807500D02*
D03*
X812500D02*
D03*
X817500D02*
D03*
X822500D02*
D03*
X827500D02*
D03*
X832500D02*
D03*
X837500D02*
D03*
X842500D02*
D03*
Y582500D02*
D03*
X837500D02*
D03*
X832500D02*
D03*
X827500D02*
D03*
X822500D02*
D03*
X817500D02*
D03*
X812500D02*
D03*
X807500D02*
D03*
X802500D02*
D03*
X797500D02*
D03*
X792500D02*
D03*
X787500D02*
D03*
X782500D02*
D03*
X777500D02*
D03*
X772500D02*
D03*
X767500D02*
D03*
D26*
X862500Y487500D02*
D03*
Y492500D02*
D03*
Y497500D02*
D03*
Y502500D02*
D03*
Y507500D02*
D03*
Y512500D02*
D03*
Y517500D02*
D03*
Y522500D02*
D03*
Y527500D02*
D03*
Y532500D02*
D03*
Y537500D02*
D03*
Y542500D02*
D03*
Y547500D02*
D03*
Y552500D02*
D03*
Y557500D02*
D03*
Y562500D02*
D03*
X747500D02*
D03*
Y557500D02*
D03*
Y552500D02*
D03*
Y547500D02*
D03*
Y542500D02*
D03*
Y537500D02*
D03*
Y532500D02*
D03*
Y527500D02*
D03*
Y522500D02*
D03*
Y517500D02*
D03*
Y512500D02*
D03*
Y507500D02*
D03*
Y502500D02*
D03*
Y497500D02*
D03*
Y492500D02*
D03*
Y487500D02*
D03*
M02*
