G04*
G04 #@! TF.GenerationSoftware,Altium Limited,CircuitStudio,1.5.2 (30)*
G04*
G04 Layer_Color=8388736*
%FSLAX44Y44*%
%MOMM*%
G71*
G01*
G75*
%ADD72R,1.4760X2.9760*%
%ADD73R,0.6760X0.9760*%
%ADD74R,0.9760X0.6760*%
%ADD75R,1.3760X0.9760*%
%ADD76R,1.2760X0.3760*%
%ADD77R,0.3760X1.2760*%
%ADD78R,0.9760X1.3760*%
%ADD79R,0.8760X0.8760*%
%ADD80R,0.8760X0.8760*%
%ADD81R,1.7760X0.8760*%
%ADD82R,0.6760X0.6760*%
%ADD83R,2.2350X1.8540*%
%ADD84C,0.8634*%
G04:AMPARAMS|DCode=85|XSize=1.176mm|YSize=0.676mm|CornerRadius=0.113mm|HoleSize=0mm|Usage=FLASHONLY|Rotation=180.000|XOffset=0mm|YOffset=0mm|HoleType=Round|Shape=RoundedRectangle|*
%AMROUNDEDRECTD85*
21,1,1.1760,0.4500,0,0,180.0*
21,1,0.9500,0.6760,0,0,180.0*
1,1,0.2260,-0.4750,0.2250*
1,1,0.2260,0.4750,0.2250*
1,1,0.2260,0.4750,-0.2250*
1,1,0.2260,-0.4750,-0.2250*
%
%ADD85ROUNDEDRECTD85*%
%ADD86R,7.3760X2.7260*%
%ADD87R,1.5260X0.5260*%
%ADD88R,1.2760X2.2760*%
%ADD89R,1.2760X1.5760*%
%ADD90R,1.6760X1.5760*%
%ADD91R,0.7760X1.6760*%
%ADD92C,3.6000*%
%ADD93C,2.6260*%
%ADD94C,2.4760*%
%ADD95C,1.3510*%
%ADD96R,1.3510X1.3510*%
%ADD97C,1.7760*%
%ADD98C,1.6760*%
%ADD99R,1.6760X1.6760*%
%ADD100C,1.5760*%
%ADD101R,1.5760X1.5760*%
%ADD102C,3.3540*%
%ADD103C,1.4260*%
%ADD104R,2.5510X2.5510*%
%ADD105C,2.5510*%
%ADD106C,2.0260*%
%ADD107C,1.2000*%
%ADD108C,1.2040*%
%ADD109C,1.8760*%
D72*
X378000Y814000D02*
D03*
X414000D02*
D03*
D73*
X539500Y899000D02*
D03*
X554500D02*
D03*
X1074020Y957220D02*
D03*
X1083520Y933220D02*
D03*
X1064520D02*
D03*
X304000Y653500D02*
D03*
X319000D02*
D03*
X250000Y937000D02*
D03*
X259500Y913000D02*
D03*
X240500D02*
D03*
X504500Y946000D02*
D03*
X519500D02*
D03*
X548500Y948000D02*
D03*
X558000Y924000D02*
D03*
X539000D02*
D03*
X304000Y678500D02*
D03*
X319000D02*
D03*
X461500Y641000D02*
D03*
X446500D02*
D03*
D74*
X1046520Y937720D02*
D03*
Y952720D02*
D03*
X1102110Y937720D02*
D03*
Y952720D02*
D03*
X356500Y638500D02*
D03*
Y653500D02*
D03*
X240000Y895000D02*
D03*
Y880000D02*
D03*
X641500Y648000D02*
D03*
Y633000D02*
D03*
X624000Y633000D02*
D03*
Y648000D02*
D03*
Y618000D02*
D03*
Y603000D02*
D03*
X641500Y603000D02*
D03*
Y618000D02*
D03*
X549000Y633000D02*
D03*
Y618000D02*
D03*
X576000Y943500D02*
D03*
Y928500D02*
D03*
X356500Y693500D02*
D03*
Y678500D02*
D03*
X464000Y673500D02*
D03*
Y658500D02*
D03*
X446500Y658500D02*
D03*
Y673500D02*
D03*
X318000Y882500D02*
D03*
Y897500D02*
D03*
X301000Y897500D02*
D03*
Y882500D02*
D03*
X568219Y793180D02*
D03*
Y812180D02*
D03*
X544219Y802680D02*
D03*
X1107000Y729500D02*
D03*
Y744500D02*
D03*
X1128000Y729500D02*
D03*
Y744500D02*
D03*
X1149000Y729500D02*
D03*
Y744500D02*
D03*
D75*
X720000Y826500D02*
D03*
Y807500D02*
D03*
X411000Y883500D02*
D03*
Y902500D02*
D03*
D76*
X747500Y713500D02*
D03*
Y718500D02*
D03*
Y723500D02*
D03*
Y728500D02*
D03*
Y733500D02*
D03*
Y738500D02*
D03*
Y743500D02*
D03*
Y748500D02*
D03*
Y753500D02*
D03*
Y758500D02*
D03*
Y763500D02*
D03*
Y768500D02*
D03*
Y773500D02*
D03*
Y778500D02*
D03*
Y783500D02*
D03*
Y788500D02*
D03*
X862500D02*
D03*
Y783500D02*
D03*
Y778500D02*
D03*
Y773500D02*
D03*
Y768500D02*
D03*
Y763500D02*
D03*
Y758500D02*
D03*
Y753500D02*
D03*
Y748500D02*
D03*
Y743500D02*
D03*
Y738500D02*
D03*
Y733500D02*
D03*
Y728500D02*
D03*
Y723500D02*
D03*
Y718500D02*
D03*
Y713500D02*
D03*
D77*
X767500Y808500D02*
D03*
X772500D02*
D03*
X777500D02*
D03*
X782500D02*
D03*
X787500D02*
D03*
X792500D02*
D03*
X797500D02*
D03*
X802500D02*
D03*
X807500D02*
D03*
X812500D02*
D03*
X817500D02*
D03*
X822500D02*
D03*
X827500D02*
D03*
X832500D02*
D03*
X837500D02*
D03*
X842500D02*
D03*
Y693500D02*
D03*
X837500D02*
D03*
X832500D02*
D03*
X827500D02*
D03*
X822500D02*
D03*
X817500D02*
D03*
X812500D02*
D03*
X807500D02*
D03*
X802500D02*
D03*
X797500D02*
D03*
X792500D02*
D03*
X787500D02*
D03*
X782500D02*
D03*
X777500D02*
D03*
X772500D02*
D03*
X767500D02*
D03*
D78*
X912500Y773500D02*
D03*
X893500D02*
D03*
X546719Y832680D02*
D03*
X565719D02*
D03*
D79*
X907500Y796000D02*
D03*
X892500D02*
D03*
X906950Y717720D02*
D03*
X891950D02*
D03*
X711610Y712640D02*
D03*
X726610D02*
D03*
X584000Y653000D02*
D03*
X599000D02*
D03*
X354500Y860000D02*
D03*
X339500D02*
D03*
X409000Y691000D02*
D03*
X424000D02*
D03*
X563719Y772680D02*
D03*
X548719D02*
D03*
D80*
X792500Y641000D02*
D03*
Y656000D02*
D03*
X810000Y641000D02*
D03*
Y656000D02*
D03*
X827500Y641000D02*
D03*
Y656000D02*
D03*
X767500Y641000D02*
D03*
Y656000D02*
D03*
X336500Y638500D02*
D03*
Y653500D02*
D03*
Y678500D02*
D03*
Y693500D02*
D03*
X283000Y897500D02*
D03*
Y882500D02*
D03*
X522260Y605840D02*
D03*
Y590840D02*
D03*
X765000Y839500D02*
D03*
Y824500D02*
D03*
D81*
X518000Y1010200D02*
D03*
Y984800D02*
D03*
X577000Y1010200D02*
D03*
Y984800D02*
D03*
D82*
X661500Y624500D02*
D03*
Y646500D02*
D03*
X484000Y682000D02*
D03*
Y660000D02*
D03*
D83*
X444680Y1010000D02*
D03*
X485320D02*
D03*
D84*
X930650Y617400D02*
D03*
X943350D02*
D03*
X930650Y604700D02*
D03*
X943350D02*
D03*
X930650Y592000D02*
D03*
X943350D02*
D03*
D85*
X377000Y881500D02*
D03*
Y891000D02*
D03*
Y900500D02*
D03*
X351000Y881500D02*
D03*
Y900500D02*
D03*
Y891000D02*
D03*
X573500Y637500D02*
D03*
Y628000D02*
D03*
Y618500D02*
D03*
X599500Y637500D02*
D03*
Y618500D02*
D03*
D86*
X468000Y817750D02*
D03*
Y864250D02*
D03*
D87*
X423500Y656250D02*
D03*
Y662750D02*
D03*
Y669250D02*
D03*
Y675750D02*
D03*
X379500Y656250D02*
D03*
Y662750D02*
D03*
Y669250D02*
D03*
Y675750D02*
D03*
D88*
X1206500Y584000D02*
D03*
X1051500D02*
D03*
D89*
Y680000D02*
D03*
D90*
X1197500D02*
D03*
D91*
X1063500Y690000D02*
D03*
X1074500D02*
D03*
X1085500D02*
D03*
X1096500D02*
D03*
X1107500D02*
D03*
X1118500D02*
D03*
X1129500D02*
D03*
X1140500D02*
D03*
X1151500D02*
D03*
D92*
X750000Y1526500D02*
D03*
X350000D02*
D03*
X860000Y1521250D02*
D03*
X1260000D02*
D03*
D93*
X620000Y1375500D02*
D03*
X550000D02*
D03*
X480000D02*
D03*
D94*
X1151400Y1424750D02*
D03*
X1060000D02*
D03*
X968600D02*
D03*
D95*
X1156520Y952720D02*
D03*
D96*
X1206520D02*
D03*
D97*
X1196630Y857420D02*
D03*
X1308390Y905820D02*
D03*
Y956420D02*
D03*
Y981820D02*
D03*
Y931020D02*
D03*
Y1007220D02*
D03*
Y778620D02*
D03*
Y753220D02*
D03*
Y727820D02*
D03*
Y804020D02*
D03*
Y829420D02*
D03*
Y880220D02*
D03*
X565440Y863770D02*
D03*
X994700Y705020D02*
D03*
X1065820Y760900D02*
D03*
X1021520Y952720D02*
D03*
X515000Y660000D02*
D03*
X720380Y628820D02*
D03*
X628940Y830750D02*
D03*
X445000Y967500D02*
D03*
X415000Y778000D02*
D03*
X300010Y939970D02*
D03*
X1292500Y580000D02*
D03*
X317500D02*
D03*
X1035340Y744500D02*
D03*
X1014000Y779000D02*
D03*
X549000Y590580D02*
D03*
D98*
X1276640Y677080D02*
D03*
Y702480D02*
D03*
Y727880D02*
D03*
Y753280D02*
D03*
Y778680D02*
D03*
Y804080D02*
D03*
Y829480D02*
D03*
Y854880D02*
D03*
Y880280D02*
D03*
Y905680D02*
D03*
Y931080D02*
D03*
Y956480D02*
D03*
Y981880D02*
D03*
D99*
Y1007280D02*
D03*
D100*
X365000Y967500D02*
D03*
Y1017500D02*
D03*
X250000Y653500D02*
D03*
Y992500D02*
D03*
D101*
Y678500D02*
D03*
Y1017500D02*
D03*
D102*
X255000Y580000D02*
D03*
X1345000D02*
D03*
Y1575000D02*
D03*
X255000D02*
D03*
D103*
X774877Y1261185D02*
D03*
X825122Y1238814D02*
D03*
D104*
X272500Y1240400D02*
D03*
X1330000Y1349600D02*
D03*
D105*
X272500Y1319600D02*
D03*
X1330000Y1270400D02*
D03*
D106*
X1246000Y1197000D02*
D03*
X1292000D02*
D03*
X1133000D02*
D03*
X1087000D02*
D03*
D107*
X937000Y630100D02*
D03*
X926840Y579300D02*
D03*
X947160D02*
D03*
D108*
X1159500Y580000D02*
D03*
X1079500D02*
D03*
D109*
X850000Y912500D02*
D03*
X750000D02*
D03*
X700000Y1162500D02*
D03*
X900000D02*
D03*
M02*
