G04*
G04 #@! TF.GenerationSoftware,Altium Limited,CircuitStudio,1.5.2 (30)*
G04*
G04 Layer_Color=16711935*
%FSLAX44Y44*%
%MOMM*%
G71*
G01*
G75*
%ADD92C,1.7760*%
%ADD93C,1.2000*%
%ADD94C,2.0260*%
%ADD95C,2.5510*%
%ADD96R,2.5510X2.5510*%
%ADD97R,1.5760X1.5760*%
%ADD98C,1.5760*%
%ADD99C,1.4260*%
%ADD100C,2.6260*%
%ADD101C,3.3540*%
%ADD102C,2.4760*%
%ADD103C,1.8760*%
%ADD104R,1.6760X1.6760*%
%ADD105C,1.6760*%
%ADD106R,1.3510X1.3510*%
%ADD107C,1.3510*%
%ADD108C,1.2040*%
D92*
X549000Y590580D02*
D03*
X1014000Y779000D02*
D03*
X1035340Y744500D02*
D03*
X317500Y580000D02*
D03*
X1292500D02*
D03*
X300010Y939970D02*
D03*
X415000Y778000D02*
D03*
X445000Y967500D02*
D03*
X628940Y830750D02*
D03*
X720380Y628820D02*
D03*
X515000Y660000D02*
D03*
X1021520Y952720D02*
D03*
X1065820Y760900D02*
D03*
X994700Y705020D02*
D03*
X565440Y863770D02*
D03*
X1308390Y880220D02*
D03*
Y829420D02*
D03*
Y804020D02*
D03*
Y727820D02*
D03*
Y753220D02*
D03*
Y778620D02*
D03*
Y1007220D02*
D03*
Y931020D02*
D03*
Y981820D02*
D03*
Y956420D02*
D03*
Y905820D02*
D03*
X1196630Y857420D02*
D03*
D93*
X947160Y579300D02*
D03*
X926840D02*
D03*
X937000Y630100D02*
D03*
D94*
X1087500Y1155000D02*
D03*
X1133500D02*
D03*
X1292500D02*
D03*
X1246500D02*
D03*
D95*
X1330000Y1240400D02*
D03*
X272500Y1319600D02*
D03*
D96*
X1330000D02*
D03*
X272500Y1240400D02*
D03*
D97*
X250000Y1017500D02*
D03*
Y678500D02*
D03*
D98*
Y992500D02*
D03*
Y653500D02*
D03*
X365000Y1017500D02*
D03*
Y967500D02*
D03*
D99*
X825122Y1238814D02*
D03*
X774877Y1261185D02*
D03*
D100*
X620000Y1375500D02*
D03*
X550000D02*
D03*
X480000D02*
D03*
D101*
X255000Y1575000D02*
D03*
X1345000D02*
D03*
Y580000D02*
D03*
X255000D02*
D03*
D102*
X1151400Y1424750D02*
D03*
X1060000D02*
D03*
X968600D02*
D03*
D103*
X900000Y1162500D02*
D03*
X700000D02*
D03*
X750000Y912500D02*
D03*
X850000D02*
D03*
D104*
X1276640Y1007280D02*
D03*
D105*
Y981880D02*
D03*
Y956480D02*
D03*
Y931080D02*
D03*
Y905680D02*
D03*
Y880280D02*
D03*
Y854880D02*
D03*
Y829480D02*
D03*
Y804080D02*
D03*
Y778680D02*
D03*
Y753280D02*
D03*
Y727880D02*
D03*
Y702480D02*
D03*
Y677080D02*
D03*
D106*
X1206520Y952720D02*
D03*
D107*
X1156520D02*
D03*
D108*
X1079500Y592000D02*
D03*
X1159500D02*
D03*
M02*
