G04*
G04 #@! TF.GenerationSoftware,Altium Limited,CircuitStudio,1.5.2 (30)*
G04*
G04 Layer_Physical_Order=2*
G04 Layer_Color=16711680*
%FSLAX44Y44*%
%MOMM*%
G71*
G01*
G75*
%ADD10C,0.2540*%
%ADD29C,0.7000*%
%ADD33C,6.0000*%
%ADD35C,1.5000*%
%ADD36O,1.8000X1.5300*%
%ADD37R,1.8000X1.5300*%
%ADD38C,1.9500*%
%ADD39C,1.8000*%
%ADD40C,2.4750*%
%ADD41R,2.4750X2.4750*%
%ADD42R,1.5000X1.5000*%
%ADD43R,1.2750X1.2750*%
%ADD44C,1.2750*%
%ADD45C,1.3500*%
%ADD46R,1.5000X1.5000*%
%ADD47C,2.4000*%
%ADD48C,2.5500*%
%ADD49C,0.6000*%
G36*
X1375981Y275000D02*
X1375995Y274858D01*
X1375921Y272789D01*
X1375684Y270588D01*
X1375291Y268410D01*
X1374744Y266266D01*
X1374045Y264167D01*
X1373198Y262122D01*
X1372208Y260143D01*
X1371079Y258240D01*
X1369817Y256423D01*
X1368428Y254699D01*
X1366920Y253080D01*
X1365300Y251572D01*
X1363578Y250183D01*
X1361760Y248921D01*
X1359857Y247792D01*
X1357878Y246802D01*
X1355833Y245955D01*
X1353734Y245256D01*
X1351590Y244709D01*
X1349412Y244316D01*
X1347211Y244079D01*
X1345143Y244005D01*
X1345000Y244019D01*
X255000D01*
X254858Y244005D01*
X252789Y244079D01*
X250588Y244316D01*
X248410Y244709D01*
X246266Y245256D01*
X244167Y245955D01*
X242122Y246802D01*
X240143Y247792D01*
X238240Y248921D01*
X236423Y250183D01*
X234699Y251572D01*
X233080Y253080D01*
X231572Y254699D01*
X230183Y256423D01*
X228921Y258240D01*
X227792Y260143D01*
X226802Y262122D01*
X225955Y264167D01*
X225256Y266266D01*
X224709Y268410D01*
X224316Y270588D01*
X224079Y272789D01*
X224005Y274858D01*
X224019Y275000D01*
Y1047500D01*
X1375981D01*
Y275000D01*
D02*
G37*
%LPC*%
G36*
X1144800Y475756D02*
X1143674Y475693D01*
X1142562Y475504D01*
X1141479Y475191D01*
X1140437Y474760D01*
X1139450Y474215D01*
X1138530Y473562D01*
X1137690Y472811D01*
X1136938Y471970D01*
X1136285Y471050D01*
X1135740Y470063D01*
X1135309Y469021D01*
X1134996Y467938D01*
X1134807Y466826D01*
X1134744Y465700D01*
X1134807Y464574D01*
X1134996Y463462D01*
X1135309Y462379D01*
X1135740Y461337D01*
X1136285Y460350D01*
X1136938Y459430D01*
X1137690Y458590D01*
X1138530Y457838D01*
X1139450Y457186D01*
X1140437Y456640D01*
X1141479Y456208D01*
X1142562Y455896D01*
X1143674Y455707D01*
X1144800Y455644D01*
X1145926Y455707D01*
X1147038Y455896D01*
X1148121Y456208D01*
X1149163Y456640D01*
X1150150Y457186D01*
X1151070Y457838D01*
X1151910Y458590D01*
X1152662Y459430D01*
X1153315Y460350D01*
X1153860Y461337D01*
X1154292Y462379D01*
X1154604Y463462D01*
X1154793Y464574D01*
X1154856Y465700D01*
X1154793Y466826D01*
X1154604Y467938D01*
X1154292Y469021D01*
X1153860Y470063D01*
X1153315Y471050D01*
X1152662Y471970D01*
X1151910Y472811D01*
X1151070Y473562D01*
X1150150Y474215D01*
X1149163Y474760D01*
X1148121Y475191D01*
X1147038Y475504D01*
X1145926Y475693D01*
X1144800Y475756D01*
D02*
G37*
G36*
X1108850Y475906D02*
X1106150D01*
X1105007Y475842D01*
X1103879Y475650D01*
X1102779Y475333D01*
X1101722Y474895D01*
X1100720Y474342D01*
X1099787Y473679D01*
X1098933Y472917D01*
X1098171Y472063D01*
X1097508Y471130D01*
X1096955Y470128D01*
X1096517Y469071D01*
X1096200Y467971D01*
X1096008Y466843D01*
X1095944Y465700D01*
X1096008Y464557D01*
X1096200Y463429D01*
X1096517Y462329D01*
X1096955Y461272D01*
X1097508Y460270D01*
X1098171Y459337D01*
X1098933Y458483D01*
X1099787Y457721D01*
X1100720Y457058D01*
X1101722Y456505D01*
X1102779Y456067D01*
X1103879Y455750D01*
X1105007Y455558D01*
X1106150Y455494D01*
X1108850D01*
X1109993Y455558D01*
X1111121Y455750D01*
X1112221Y456067D01*
X1113278Y456505D01*
X1114280Y457058D01*
X1115213Y457721D01*
X1116067Y458483D01*
X1116829Y459337D01*
X1117492Y460270D01*
X1118045Y461272D01*
X1118483Y462329D01*
X1118800Y463429D01*
X1118992Y464557D01*
X1119056Y465700D01*
X1118992Y466843D01*
X1118800Y467971D01*
X1118483Y469071D01*
X1118045Y470128D01*
X1117492Y471130D01*
X1116829Y472063D01*
X1116067Y472917D01*
X1115213Y473679D01*
X1114280Y474342D01*
X1113278Y474895D01*
X1112221Y475333D01*
X1111121Y475650D01*
X1109993Y475842D01*
X1108850Y475906D01*
D02*
G37*
G36*
X809999Y505557D02*
X809129Y505488D01*
X808282Y505285D01*
X807476Y504951D01*
X806732Y504495D01*
X806069Y503929D01*
X805503Y503266D01*
X805047Y502522D01*
X804714Y501717D01*
X804510Y500869D01*
X804442Y500000D01*
X804510Y499130D01*
X804714Y498282D01*
X805047Y497477D01*
X805503Y496733D01*
X806069Y496070D01*
X806732Y495504D01*
X807476Y495048D01*
X808282Y494714D01*
X809129Y494511D01*
X809999Y494442D01*
X810868Y494511D01*
X811716Y494714D01*
X812522Y495048D01*
X813265Y495504D01*
X813928Y496070D01*
X814015Y496171D01*
X853415D01*
X870453Y479132D01*
X870443Y479000D01*
X870511Y478131D01*
X870715Y477283D01*
X871049Y476477D01*
X871504Y475734D01*
X872070Y475070D01*
X872734Y474504D01*
X873477Y474049D01*
X874283Y473715D01*
X875131Y473511D01*
X876000Y473443D01*
X876869Y473511D01*
X877717Y473715D01*
X878523Y474049D01*
X879266Y474504D01*
X879930Y475070D01*
X880496Y475734D01*
X880951Y476477D01*
X881285Y477283D01*
X881489Y478131D01*
X881557Y479000D01*
X881489Y479869D01*
X881285Y480717D01*
X880951Y481523D01*
X880496Y482266D01*
X879930Y482929D01*
X879266Y483496D01*
X878523Y483951D01*
X877717Y484285D01*
X876869Y484489D01*
X876000Y484557D01*
X875867Y484547D01*
X857708Y502707D01*
X857128Y503183D01*
X856466Y503536D01*
X855747Y503754D01*
X855001Y503828D01*
X814015D01*
X813928Y503929D01*
X813265Y504495D01*
X812522Y504951D01*
X811716Y505285D01*
X810868Y505488D01*
X809999Y505557D01*
D02*
G37*
G36*
X1144800Y501156D02*
X1143674Y501093D01*
X1142562Y500904D01*
X1141479Y500592D01*
X1140437Y500160D01*
X1139450Y499614D01*
X1138530Y498962D01*
X1137690Y498210D01*
X1136938Y497370D01*
X1136285Y496450D01*
X1135740Y495463D01*
X1135309Y494421D01*
X1134996Y493338D01*
X1134807Y492226D01*
X1134744Y491100D01*
X1134807Y489974D01*
X1134996Y488862D01*
X1135309Y487779D01*
X1135740Y486737D01*
X1136285Y485750D01*
X1136938Y484830D01*
X1137690Y483989D01*
X1138530Y483238D01*
X1139450Y482585D01*
X1140437Y482040D01*
X1141479Y481609D01*
X1142562Y481296D01*
X1143674Y481107D01*
X1144800Y481044D01*
X1145926Y481107D01*
X1147038Y481296D01*
X1148121Y481609D01*
X1149163Y482040D01*
X1150150Y482585D01*
X1151070Y483238D01*
X1151910Y483989D01*
X1152662Y484830D01*
X1153315Y485750D01*
X1153860Y486737D01*
X1154292Y487779D01*
X1154604Y488862D01*
X1154793Y489974D01*
X1154856Y491100D01*
X1154793Y492226D01*
X1154604Y493338D01*
X1154292Y494421D01*
X1153860Y495463D01*
X1153315Y496450D01*
X1152662Y497370D01*
X1151910Y498210D01*
X1151070Y498962D01*
X1150150Y499614D01*
X1149163Y500160D01*
X1148121Y500592D01*
X1147038Y500904D01*
X1145926Y501093D01*
X1144800Y501156D01*
D02*
G37*
G36*
X1108850Y501306D02*
X1106150D01*
X1105007Y501242D01*
X1103879Y501050D01*
X1102779Y500733D01*
X1101722Y500295D01*
X1100720Y499742D01*
X1099787Y499079D01*
X1098933Y498317D01*
X1098171Y497463D01*
X1097508Y496530D01*
X1096955Y495528D01*
X1096517Y494471D01*
X1096200Y493371D01*
X1096008Y492243D01*
X1095944Y491100D01*
X1096008Y489957D01*
X1096200Y488829D01*
X1096517Y487729D01*
X1096955Y486672D01*
X1097508Y485670D01*
X1098171Y484737D01*
X1098933Y483883D01*
X1099787Y483121D01*
X1100720Y482458D01*
X1101722Y481905D01*
X1102779Y481467D01*
X1103879Y481150D01*
X1105007Y480958D01*
X1106150Y480894D01*
X1108850D01*
X1109993Y480958D01*
X1111121Y481150D01*
X1112221Y481467D01*
X1113278Y481905D01*
X1114280Y482458D01*
X1115213Y483121D01*
X1116067Y483883D01*
X1116829Y484737D01*
X1117492Y485670D01*
X1118045Y486672D01*
X1118483Y487729D01*
X1118800Y488829D01*
X1118992Y489957D01*
X1119056Y491100D01*
X1118992Y492243D01*
X1118800Y493371D01*
X1118483Y494471D01*
X1118045Y495528D01*
X1117492Y496530D01*
X1116829Y497463D01*
X1116067Y498317D01*
X1115213Y499079D01*
X1114280Y499742D01*
X1113278Y500295D01*
X1112221Y500733D01*
X1111121Y501050D01*
X1109993Y501242D01*
X1108850Y501306D01*
D02*
G37*
G36*
X1118970Y439030D02*
X1108770D01*
Y430094D01*
X1108850D01*
X1109993Y430158D01*
X1111121Y430350D01*
X1112221Y430667D01*
X1113278Y431105D01*
X1114280Y431658D01*
X1115213Y432321D01*
X1116067Y433083D01*
X1116829Y433937D01*
X1117492Y434870D01*
X1118045Y435872D01*
X1118483Y436929D01*
X1118800Y438029D01*
X1118970Y439030D01*
D02*
G37*
G36*
X1106230D02*
X1096030D01*
X1096200Y438029D01*
X1096517Y436929D01*
X1096955Y435872D01*
X1097508Y434870D01*
X1098171Y433937D01*
X1098933Y433083D01*
X1099787Y432321D01*
X1100720Y431658D01*
X1101722Y431105D01*
X1102779Y430667D01*
X1103879Y430350D01*
X1105007Y430158D01*
X1106150Y430094D01*
X1106230D01*
Y439030D01*
D02*
G37*
G36*
Y450506D02*
X1106150D01*
X1105007Y450442D01*
X1103879Y450250D01*
X1102779Y449933D01*
X1101722Y449495D01*
X1100720Y448942D01*
X1099787Y448279D01*
X1098933Y447517D01*
X1098171Y446663D01*
X1097508Y445730D01*
X1096955Y444728D01*
X1096517Y443671D01*
X1096200Y442571D01*
X1096030Y441570D01*
X1106230D01*
Y450506D01*
D02*
G37*
G36*
X825000Y487557D02*
X824131Y487489D01*
X823283Y487285D01*
X822477Y486951D01*
X821734Y486496D01*
X821070Y485929D01*
X820504Y485266D01*
X820049Y484523D01*
X819715Y483717D01*
X819511Y482869D01*
X819443Y482000D01*
X819511Y481131D01*
X819715Y480283D01*
X820049Y479477D01*
X820504Y478734D01*
X821070Y478070D01*
X821734Y477504D01*
X822477Y477049D01*
X823283Y476715D01*
X824131Y476511D01*
X825000Y476443D01*
X825869Y476511D01*
X826717Y476715D01*
X827523Y477049D01*
X828266Y477504D01*
X828930Y478070D01*
X829016Y478172D01*
X837414D01*
X849119Y466466D01*
X849071Y463929D01*
X848504Y463266D01*
X848049Y462523D01*
X847715Y461717D01*
X847511Y460869D01*
X847443Y460000D01*
X847511Y459131D01*
X847715Y458283D01*
X848049Y457477D01*
X848504Y456734D01*
X849071Y456071D01*
X849734Y455504D01*
X850477Y455049D01*
X851283Y454715D01*
X852131Y454511D01*
X853000Y454443D01*
X853869Y454511D01*
X854717Y454715D01*
X855523Y455049D01*
X856266Y455504D01*
X856929Y456071D01*
X857496Y456734D01*
X857951Y457477D01*
X858285Y458283D01*
X858489Y459131D01*
X858557Y460000D01*
X858489Y460869D01*
X858285Y461717D01*
X857951Y462523D01*
X857496Y463266D01*
X856929Y463929D01*
X856828Y464016D01*
Y468000D01*
X856755Y468747D01*
X856537Y469465D01*
X856183Y470127D01*
X855707Y470707D01*
X841707Y484707D01*
X841127Y485183D01*
X840465Y485537D01*
X839747Y485755D01*
X839000Y485828D01*
X829016D01*
X828930Y485929D01*
X828266Y486496D01*
X827523Y486951D01*
X826717Y487285D01*
X825869Y487489D01*
X825000Y487557D01*
D02*
G37*
G36*
X1108850Y450506D02*
X1108770D01*
Y441570D01*
X1118970D01*
X1118800Y442571D01*
X1118483Y443671D01*
X1118045Y444728D01*
X1117492Y445730D01*
X1116829Y446663D01*
X1116067Y447517D01*
X1115213Y448279D01*
X1114280Y448942D01*
X1113278Y449495D01*
X1112221Y449933D01*
X1111121Y450250D01*
X1109993Y450442D01*
X1108850Y450506D01*
D02*
G37*
G36*
X762500Y555557D02*
X761631Y555489D01*
X760783Y555285D01*
X759977Y554951D01*
X759234Y554496D01*
X758570Y553929D01*
X758004Y553266D01*
X757549Y552523D01*
X757215Y551717D01*
X757011Y550869D01*
X756943Y550000D01*
X757011Y549131D01*
X757215Y548283D01*
X757549Y547477D01*
X758004Y546734D01*
X758570Y546071D01*
X759234Y545504D01*
X759977Y545049D01*
X760783Y544715D01*
X761631Y544511D01*
X762500Y544443D01*
X763369Y544511D01*
X764217Y544715D01*
X765023Y545049D01*
X765766Y545504D01*
X766430Y546071D01*
X766516Y546172D01*
X783484D01*
X783570Y546071D01*
X784234Y545504D01*
X784977Y545049D01*
X785783Y544715D01*
X786631Y544511D01*
X787500Y544443D01*
X788369Y544511D01*
X789217Y544715D01*
X790023Y545049D01*
X790766Y545504D01*
X791430Y546071D01*
X791996Y546734D01*
X792451Y547477D01*
X792785Y548283D01*
X792989Y549131D01*
X793057Y550000D01*
X792989Y550869D01*
X792785Y551717D01*
X792451Y552523D01*
X791996Y553266D01*
X791430Y553929D01*
X790766Y554496D01*
X790023Y554951D01*
X789217Y555285D01*
X788369Y555489D01*
X787500Y555557D01*
X786631Y555489D01*
X785783Y555285D01*
X784977Y554951D01*
X784234Y554496D01*
X783570Y553929D01*
X783484Y553829D01*
X766516D01*
X766430Y553929D01*
X765766Y554496D01*
X765023Y554951D01*
X764217Y555285D01*
X763369Y555489D01*
X762500Y555557D01*
D02*
G37*
G36*
X250400Y551956D02*
X249274Y551893D01*
X248162Y551704D01*
X247079Y551391D01*
X246037Y550960D01*
X245050Y550415D01*
X244130Y549762D01*
X243290Y549011D01*
X242538Y548170D01*
X241886Y547250D01*
X241340Y546263D01*
X240909Y545221D01*
X240596Y544138D01*
X240407Y543026D01*
X240344Y541900D01*
X240407Y540774D01*
X240596Y539662D01*
X240909Y538579D01*
X241340Y537537D01*
X241886Y536550D01*
X242538Y535630D01*
X243290Y534790D01*
X244130Y534038D01*
X245050Y533386D01*
X246037Y532840D01*
X247079Y532408D01*
X248162Y532096D01*
X249274Y531907D01*
X250400Y531844D01*
X251526Y531907D01*
X252638Y532096D01*
X253721Y532408D01*
X254763Y532840D01*
X255750Y533386D01*
X256670Y534038D01*
X257511Y534790D01*
X258262Y535630D01*
X258915Y536550D01*
X259460Y537537D01*
X259891Y538579D01*
X260204Y539662D01*
X260393Y540774D01*
X260456Y541900D01*
X260393Y543026D01*
X260204Y544138D01*
X259891Y545221D01*
X259460Y546263D01*
X258915Y547250D01*
X258262Y548170D01*
X257511Y549011D01*
X256670Y549762D01*
X255750Y550415D01*
X254763Y550960D01*
X253721Y551391D01*
X252638Y551704D01*
X251526Y551893D01*
X250400Y551956D01*
D02*
G37*
G36*
X296350Y577506D02*
X293650D01*
X292507Y577442D01*
X291379Y577250D01*
X290279Y576933D01*
X289222Y576495D01*
X288220Y575942D01*
X287287Y575279D01*
X286433Y574517D01*
X285671Y573663D01*
X285008Y572730D01*
X284455Y571728D01*
X284017Y570671D01*
X283700Y569571D01*
X283508Y568443D01*
X283444Y567300D01*
X283508Y566157D01*
X283700Y565029D01*
X284017Y563929D01*
X284455Y562872D01*
X285008Y561870D01*
X285671Y560937D01*
X286433Y560083D01*
X287287Y559321D01*
X288220Y558658D01*
X289222Y558105D01*
X290279Y557667D01*
X291379Y557350D01*
X292507Y557158D01*
X293650Y557094D01*
X296350D01*
X297493Y557158D01*
X298621Y557350D01*
X299721Y557667D01*
X300778Y558105D01*
X301780Y558658D01*
X302713Y559321D01*
X303567Y560083D01*
X304329Y560937D01*
X304992Y561870D01*
X305545Y562872D01*
X305983Y563929D01*
X306300Y565029D01*
X306492Y566157D01*
X306556Y567300D01*
X306492Y568443D01*
X306300Y569571D01*
X305983Y570671D01*
X305545Y571728D01*
X304992Y572730D01*
X304329Y573663D01*
X303567Y574517D01*
X302713Y575279D01*
X301780Y575942D01*
X300778Y576495D01*
X299721Y576933D01*
X298621Y577250D01*
X297493Y577442D01*
X296350Y577506D01*
D02*
G37*
G36*
X250400Y577356D02*
X249274Y577293D01*
X248162Y577104D01*
X247079Y576791D01*
X246037Y576360D01*
X245050Y575815D01*
X244130Y575162D01*
X243290Y574411D01*
X242538Y573570D01*
X241886Y572650D01*
X241340Y571663D01*
X240909Y570621D01*
X240596Y569538D01*
X240407Y568426D01*
X240344Y567300D01*
X240407Y566174D01*
X240596Y565062D01*
X240909Y563979D01*
X241340Y562937D01*
X241886Y561950D01*
X242538Y561030D01*
X243290Y560190D01*
X244130Y559438D01*
X245050Y558786D01*
X246037Y558240D01*
X247079Y557808D01*
X248162Y557496D01*
X249274Y557307D01*
X250400Y557244D01*
X251526Y557307D01*
X252638Y557496D01*
X253721Y557808D01*
X254763Y558240D01*
X255750Y558786D01*
X256670Y559438D01*
X257511Y560190D01*
X258262Y561030D01*
X258915Y561950D01*
X259460Y562937D01*
X259891Y563979D01*
X260204Y565062D01*
X260393Y566174D01*
X260456Y567300D01*
X260393Y568426D01*
X260204Y569538D01*
X259891Y570621D01*
X259460Y571663D01*
X258915Y572650D01*
X258262Y573570D01*
X257511Y574411D01*
X256670Y575162D01*
X255750Y575815D01*
X254763Y576360D01*
X253721Y576791D01*
X252638Y577104D01*
X251526Y577293D01*
X250400Y577356D01*
D02*
G37*
G36*
X1119040Y577490D02*
X1095960D01*
Y557110D01*
X1119040D01*
Y577490D01*
D02*
G37*
G36*
X1108850Y526706D02*
X1106150D01*
X1105007Y526642D01*
X1103879Y526450D01*
X1102779Y526133D01*
X1101722Y525695D01*
X1100720Y525142D01*
X1099787Y524479D01*
X1098933Y523717D01*
X1098171Y522863D01*
X1097508Y521930D01*
X1096955Y520928D01*
X1096517Y519871D01*
X1096200Y518771D01*
X1096008Y517643D01*
X1095944Y516500D01*
X1096008Y515357D01*
X1096200Y514229D01*
X1096517Y513129D01*
X1096955Y512072D01*
X1097508Y511070D01*
X1098171Y510137D01*
X1098933Y509283D01*
X1099787Y508521D01*
X1100720Y507858D01*
X1101722Y507305D01*
X1102779Y506867D01*
X1103879Y506550D01*
X1105007Y506358D01*
X1106150Y506294D01*
X1108850D01*
X1109993Y506358D01*
X1111121Y506550D01*
X1112221Y506867D01*
X1113278Y507305D01*
X1114280Y507858D01*
X1115213Y508521D01*
X1116067Y509283D01*
X1116829Y510137D01*
X1117492Y511070D01*
X1118045Y512072D01*
X1118483Y513129D01*
X1118800Y514229D01*
X1118992Y515357D01*
X1119056Y516500D01*
X1118992Y517643D01*
X1118800Y518771D01*
X1118483Y519871D01*
X1118045Y520928D01*
X1117492Y521930D01*
X1116829Y522863D01*
X1116067Y523717D01*
X1115213Y524479D01*
X1114280Y525142D01*
X1113278Y525695D01*
X1112221Y526133D01*
X1111121Y526450D01*
X1109993Y526642D01*
X1108850Y526706D01*
D02*
G37*
G36*
X472500Y510056D02*
X471374Y509993D01*
X470262Y509804D01*
X469179Y509492D01*
X468137Y509060D01*
X467150Y508515D01*
X466230Y507862D01*
X465390Y507110D01*
X464638Y506270D01*
X463985Y505350D01*
X463440Y504363D01*
X463008Y503321D01*
X462696Y502238D01*
X462507Y501126D01*
X462444Y500000D01*
X462507Y498874D01*
X462696Y497762D01*
X463008Y496679D01*
X463440Y495637D01*
X463985Y494650D01*
X464638Y493730D01*
X465390Y492890D01*
X466230Y492138D01*
X467150Y491485D01*
X468137Y490940D01*
X469179Y490508D01*
X470262Y490196D01*
X471374Y490007D01*
X472500Y489944D01*
X473626Y490007D01*
X474738Y490196D01*
X475821Y490508D01*
X476863Y490940D01*
X477850Y491485D01*
X478770Y492138D01*
X479610Y492890D01*
X480362Y493730D01*
X481015Y494650D01*
X481560Y495637D01*
X481992Y496679D01*
X482304Y497762D01*
X482493Y498874D01*
X482556Y500000D01*
X482493Y501126D01*
X482304Y502238D01*
X481992Y503321D01*
X481560Y504363D01*
X481015Y505350D01*
X480362Y506270D01*
X479610Y507110D01*
X478770Y507862D01*
X477850Y508515D01*
X476863Y509060D01*
X475821Y509492D01*
X474738Y509804D01*
X473626Y509993D01*
X472500Y510056D01*
D02*
G37*
G36*
X1144800Y526556D02*
X1143674Y526493D01*
X1142562Y526304D01*
X1141479Y525992D01*
X1140437Y525560D01*
X1139450Y525014D01*
X1138530Y524362D01*
X1137690Y523610D01*
X1136938Y522770D01*
X1136285Y521850D01*
X1135740Y520863D01*
X1135309Y519821D01*
X1134996Y518738D01*
X1134807Y517626D01*
X1134744Y516500D01*
X1134807Y515374D01*
X1134996Y514262D01*
X1135309Y513179D01*
X1135740Y512137D01*
X1136285Y511150D01*
X1136938Y510230D01*
X1137690Y509389D01*
X1138530Y508638D01*
X1139450Y507985D01*
X1140437Y507440D01*
X1141479Y507009D01*
X1142562Y506696D01*
X1143674Y506507D01*
X1144800Y506444D01*
X1145926Y506507D01*
X1147038Y506696D01*
X1148121Y507009D01*
X1149163Y507440D01*
X1150150Y507985D01*
X1151070Y508638D01*
X1151910Y509389D01*
X1152662Y510230D01*
X1153315Y511150D01*
X1153860Y512137D01*
X1154292Y513179D01*
X1154604Y514262D01*
X1154793Y515374D01*
X1154856Y516500D01*
X1154793Y517626D01*
X1154604Y518738D01*
X1154292Y519821D01*
X1153860Y520863D01*
X1153315Y521850D01*
X1152662Y522770D01*
X1151910Y523610D01*
X1151070Y524362D01*
X1150150Y525014D01*
X1149163Y525560D01*
X1148121Y525992D01*
X1147038Y526304D01*
X1145926Y526493D01*
X1144800Y526556D01*
D02*
G37*
G36*
X306540Y552090D02*
X283460D01*
Y531710D01*
X306540D01*
Y552090D01*
D02*
G37*
G36*
X1108850Y552106D02*
X1106150D01*
X1105007Y552042D01*
X1103879Y551850D01*
X1102779Y551533D01*
X1101722Y551095D01*
X1100720Y550542D01*
X1099787Y549879D01*
X1098933Y549117D01*
X1098171Y548263D01*
X1097508Y547330D01*
X1096955Y546328D01*
X1096517Y545271D01*
X1096200Y544171D01*
X1096008Y543043D01*
X1095944Y541900D01*
X1096008Y540757D01*
X1096200Y539629D01*
X1096517Y538529D01*
X1096955Y537472D01*
X1097508Y536470D01*
X1098171Y535537D01*
X1098933Y534683D01*
X1099787Y533921D01*
X1100720Y533258D01*
X1101722Y532705D01*
X1102779Y532267D01*
X1103879Y531950D01*
X1105007Y531758D01*
X1106150Y531694D01*
X1108850D01*
X1109993Y531758D01*
X1111121Y531950D01*
X1112221Y532267D01*
X1113278Y532705D01*
X1114280Y533258D01*
X1115213Y533921D01*
X1116067Y534683D01*
X1116829Y535537D01*
X1117492Y536470D01*
X1118045Y537472D01*
X1118483Y538529D01*
X1118800Y539629D01*
X1118992Y540757D01*
X1119056Y541900D01*
X1118992Y543043D01*
X1118800Y544171D01*
X1118483Y545271D01*
X1118045Y546328D01*
X1117492Y547330D01*
X1116829Y548263D01*
X1116067Y549117D01*
X1115213Y549879D01*
X1114280Y550542D01*
X1113278Y551095D01*
X1112221Y551533D01*
X1111121Y551850D01*
X1109993Y552042D01*
X1108850Y552106D01*
D02*
G37*
G36*
X1173730Y286230D02*
X1165032D01*
X1165196Y285262D01*
X1165508Y284179D01*
X1165940Y283137D01*
X1166486Y282150D01*
X1167138Y281230D01*
X1167889Y280389D01*
X1168730Y279638D01*
X1169650Y278986D01*
X1170637Y278440D01*
X1171679Y278008D01*
X1172762Y277696D01*
X1173730Y277532D01*
Y286230D01*
D02*
G37*
G36*
X1184968D02*
X1176270D01*
Y277532D01*
X1177238Y277696D01*
X1178321Y278008D01*
X1179363Y278440D01*
X1180350Y278986D01*
X1181270Y279638D01*
X1182111Y280389D01*
X1182862Y281230D01*
X1183514Y282150D01*
X1184060Y283137D01*
X1184492Y284179D01*
X1184804Y285262D01*
X1184968Y286230D01*
D02*
G37*
G36*
X942100Y293659D02*
X941120Y293595D01*
X940156Y293403D01*
X939226Y293088D01*
X938345Y292653D01*
X937529Y292107D01*
X936790Y291460D01*
X936143Y290721D01*
X935597Y289905D01*
X935163Y289024D01*
X934847Y288093D01*
X934655Y287130D01*
X934591Y286150D01*
X934655Y285170D01*
X934847Y284207D01*
X935163Y283276D01*
X935597Y282395D01*
X936143Y281579D01*
X936790Y280840D01*
X937529Y280193D01*
X938345Y279647D01*
X939226Y279213D01*
X940156Y278897D01*
X941120Y278705D01*
X942100Y278641D01*
X943080Y278705D01*
X944043Y278897D01*
X944974Y279213D01*
X945854Y279647D01*
X946671Y280193D01*
X947410Y280840D01*
X948057Y281579D01*
X948603Y282395D01*
X949037Y283276D01*
X949353Y284207D01*
X949545Y285170D01*
X949609Y286150D01*
X949545Y287130D01*
X949353Y288093D01*
X949037Y289024D01*
X948603Y289905D01*
X948057Y290721D01*
X947410Y291460D01*
X946671Y292107D01*
X945854Y292653D01*
X944974Y293088D01*
X944043Y293403D01*
X943080Y293595D01*
X942100Y293659D01*
D02*
G37*
G36*
X922500Y296059D02*
X890000D01*
X889052Y295984D01*
X888128Y295762D01*
X887249Y295398D01*
X886439Y294902D01*
X885716Y294284D01*
X885098Y293561D01*
X884602Y292751D01*
X884238Y291872D01*
X884016Y290948D01*
X883941Y290000D01*
X884016Y289052D01*
X884238Y288128D01*
X884602Y287249D01*
X885098Y286439D01*
X885716Y285716D01*
X886439Y285098D01*
X887249Y284602D01*
X888128Y284238D01*
X889052Y284016D01*
X890000Y283941D01*
X922500D01*
X923448Y284016D01*
X924372Y284238D01*
X925250Y284602D01*
X926061Y285098D01*
X926784Y285716D01*
X927402Y286439D01*
X927898Y287249D01*
X928262Y288128D01*
X928484Y289052D01*
X928559Y290000D01*
X928484Y290948D01*
X928262Y291872D01*
X927898Y292751D01*
X927402Y293561D01*
X926784Y294284D01*
X926061Y294902D01*
X925250Y295398D01*
X924372Y295762D01*
X923448Y295984D01*
X922500Y296059D01*
D02*
G37*
G36*
X532500Y318559D02*
X531552Y318484D01*
X530628Y318262D01*
X529749Y317898D01*
X528939Y317402D01*
X528216Y316784D01*
X527598Y316061D01*
X527102Y315251D01*
X526738Y314372D01*
X526516Y313448D01*
X526441Y312500D01*
Y287500D01*
X526516Y286552D01*
X526738Y285628D01*
X527102Y284749D01*
X527598Y283939D01*
X528216Y283216D01*
X528939Y282598D01*
X529749Y282102D01*
X530628Y281738D01*
X531552Y281516D01*
X532500Y281441D01*
X533448Y281516D01*
X534372Y281738D01*
X535251Y282102D01*
X536061Y282598D01*
X536784Y283216D01*
X537402Y283939D01*
X537898Y284749D01*
X538262Y285628D01*
X538484Y286552D01*
X538559Y287500D01*
Y312500D01*
X538484Y313448D01*
X538262Y314372D01*
X537898Y315251D01*
X537402Y316061D01*
X536784Y316784D01*
X536061Y317402D01*
X535251Y317898D01*
X534372Y318262D01*
X533448Y318484D01*
X532500Y318559D01*
D02*
G37*
G36*
X1345000Y301517D02*
X1343108Y301449D01*
X1341226Y301247D01*
X1339363Y300911D01*
X1337529Y300443D01*
X1335733Y299845D01*
X1333985Y299121D01*
X1332292Y298273D01*
X1330664Y297307D01*
X1329109Y296228D01*
X1327635Y295040D01*
X1326250Y293750D01*
X1324960Y292365D01*
X1323772Y290891D01*
X1322693Y289336D01*
X1321727Y287708D01*
X1320879Y286015D01*
X1320155Y284267D01*
X1319557Y282471D01*
X1319089Y280637D01*
X1318753Y278774D01*
X1318551Y276892D01*
X1318483Y275000D01*
X1318551Y273108D01*
X1318753Y271226D01*
X1319089Y269363D01*
X1319557Y267529D01*
X1320155Y265733D01*
X1320879Y263985D01*
X1321727Y262292D01*
X1322693Y260664D01*
X1323772Y259109D01*
X1324960Y257635D01*
X1326250Y256250D01*
X1327635Y254960D01*
X1329109Y253772D01*
X1330664Y252693D01*
X1332292Y251727D01*
X1333985Y250879D01*
X1335733Y250155D01*
X1337529Y249557D01*
X1339363Y249089D01*
X1341226Y248753D01*
X1343108Y248551D01*
X1345000Y248483D01*
X1346892Y248551D01*
X1348774Y248753D01*
X1350637Y249089D01*
X1352471Y249557D01*
X1354267Y250155D01*
X1356015Y250879D01*
X1357708Y251727D01*
X1359336Y252693D01*
X1360891Y253772D01*
X1362365Y254960D01*
X1363750Y256250D01*
X1365040Y257635D01*
X1366228Y259109D01*
X1367307Y260664D01*
X1368273Y262292D01*
X1369121Y263985D01*
X1369845Y265733D01*
X1370443Y267529D01*
X1370911Y269363D01*
X1371247Y271226D01*
X1371449Y273108D01*
X1371517Y275000D01*
X1371449Y276892D01*
X1371247Y278774D01*
X1370911Y280637D01*
X1370443Y282471D01*
X1369845Y284267D01*
X1369121Y286015D01*
X1368273Y287708D01*
X1367307Y289336D01*
X1366228Y290891D01*
X1365040Y292365D01*
X1363750Y293750D01*
X1362365Y295040D01*
X1360891Y296228D01*
X1359336Y297307D01*
X1357708Y298273D01*
X1356015Y299121D01*
X1354267Y299845D01*
X1352471Y300443D01*
X1350637Y300911D01*
X1348774Y301247D01*
X1346892Y301449D01*
X1345000Y301517D01*
D02*
G37*
G36*
X255000D02*
X253108Y301449D01*
X251226Y301247D01*
X249363Y300911D01*
X247529Y300443D01*
X245733Y299845D01*
X243985Y299121D01*
X242292Y298273D01*
X240664Y297307D01*
X239109Y296228D01*
X237635Y295040D01*
X236250Y293750D01*
X234960Y292365D01*
X233772Y290891D01*
X232693Y289336D01*
X231727Y287708D01*
X230879Y286015D01*
X230155Y284267D01*
X229557Y282471D01*
X229089Y280637D01*
X228753Y278774D01*
X228551Y276892D01*
X228483Y275000D01*
X228551Y273108D01*
X228753Y271226D01*
X229089Y269363D01*
X229557Y267529D01*
X230155Y265733D01*
X230879Y263985D01*
X231727Y262292D01*
X232693Y260664D01*
X233772Y259109D01*
X234960Y257635D01*
X236250Y256250D01*
X237635Y254960D01*
X239109Y253772D01*
X240664Y252693D01*
X242292Y251727D01*
X243985Y250879D01*
X245733Y250155D01*
X247529Y249557D01*
X249363Y249089D01*
X251226Y248753D01*
X253108Y248551D01*
X255000Y248483D01*
X256892Y248551D01*
X258774Y248753D01*
X260637Y249089D01*
X262471Y249557D01*
X264267Y250155D01*
X266015Y250879D01*
X267708Y251727D01*
X269336Y252693D01*
X270891Y253772D01*
X272365Y254960D01*
X273750Y256250D01*
X275040Y257635D01*
X276228Y259109D01*
X277307Y260664D01*
X278273Y262292D01*
X279121Y263985D01*
X279845Y265733D01*
X280443Y267529D01*
X280911Y269363D01*
X281247Y271226D01*
X281449Y273108D01*
X281517Y275000D01*
X281449Y276892D01*
X281247Y278774D01*
X280911Y280637D01*
X280443Y282471D01*
X279845Y284267D01*
X279121Y286015D01*
X278273Y287708D01*
X277307Y289336D01*
X276228Y290891D01*
X275040Y292365D01*
X273750Y293750D01*
X272365Y295040D01*
X270891Y296228D01*
X269336Y297307D01*
X267708Y298273D01*
X266015Y299121D01*
X264267Y299845D01*
X262471Y300443D01*
X260637Y300911D01*
X258774Y301247D01*
X256892Y301449D01*
X255000Y301517D01*
D02*
G37*
G36*
X437500Y280056D02*
X436374Y279993D01*
X435262Y279804D01*
X434179Y279492D01*
X433137Y279060D01*
X432150Y278514D01*
X431230Y277862D01*
X430390Y277111D01*
X429638Y276270D01*
X428985Y275350D01*
X428440Y274363D01*
X428008Y273321D01*
X427696Y272238D01*
X427507Y271126D01*
X427444Y270000D01*
X427507Y268874D01*
X427696Y267762D01*
X428008Y266679D01*
X428440Y265637D01*
X428985Y264650D01*
X429638Y263730D01*
X430390Y262889D01*
X431230Y262138D01*
X432150Y261486D01*
X433137Y260940D01*
X434179Y260508D01*
X435262Y260196D01*
X436374Y260007D01*
X437500Y259944D01*
X438626Y260007D01*
X439738Y260196D01*
X440821Y260508D01*
X441863Y260940D01*
X442850Y261486D01*
X443770Y262138D01*
X444610Y262889D01*
X445362Y263730D01*
X446015Y264650D01*
X446560Y265637D01*
X446992Y266679D01*
X447304Y267762D01*
X447493Y268874D01*
X447556Y270000D01*
X447493Y271126D01*
X447304Y272238D01*
X446992Y273321D01*
X446560Y274363D01*
X446015Y275350D01*
X445362Y276270D01*
X444610Y277111D01*
X443770Y277862D01*
X442850Y278514D01*
X441863Y279060D01*
X440821Y279492D01*
X439738Y279804D01*
X438626Y279993D01*
X437500Y280056D01*
D02*
G37*
G36*
X992900Y283499D02*
X991920Y283435D01*
X990956Y283243D01*
X990026Y282927D01*
X989145Y282493D01*
X988329Y281947D01*
X987590Y281300D01*
X986943Y280561D01*
X986397Y279745D01*
X985963Y278864D01*
X985647Y277934D01*
X985455Y276970D01*
X985391Y275990D01*
X985455Y275010D01*
X985647Y274047D01*
X985963Y273116D01*
X986397Y272236D01*
X986943Y271419D01*
X987590Y270680D01*
X988329Y270033D01*
X989145Y269487D01*
X990026Y269053D01*
X990956Y268737D01*
X991920Y268545D01*
X992900Y268481D01*
X993880Y268545D01*
X994843Y268737D01*
X995773Y269053D01*
X996655Y269487D01*
X997471Y270033D01*
X998210Y270680D01*
X998857Y271419D01*
X999403Y272236D01*
X999837Y273116D01*
X1000153Y274047D01*
X1000345Y275010D01*
X1000409Y275990D01*
X1000345Y276970D01*
X1000153Y277934D01*
X999837Y278864D01*
X999403Y279745D01*
X998857Y280561D01*
X998210Y281300D01*
X997471Y281947D01*
X996655Y282493D01*
X995773Y282927D01*
X994843Y283243D01*
X993880Y283435D01*
X992900Y283499D01*
D02*
G37*
G36*
X422540Y280040D02*
X402460D01*
Y259960D01*
X422540D01*
Y280040D01*
D02*
G37*
G36*
X300000Y378307D02*
X298404Y378238D01*
X296821Y378029D01*
X295262Y377684D01*
X293738Y377203D01*
X292263Y376592D01*
X290846Y375855D01*
X289499Y374996D01*
X288232Y374024D01*
X287055Y372945D01*
X285976Y371768D01*
X285003Y370501D01*
X284145Y369154D01*
X283408Y367737D01*
X282797Y366261D01*
X282316Y364738D01*
X281971Y363179D01*
X281762Y361596D01*
X281693Y360000D01*
X281762Y358404D01*
X281971Y356821D01*
X282316Y355262D01*
X282797Y353739D01*
X283408Y352263D01*
X284145Y350846D01*
X285003Y349499D01*
X285976Y348232D01*
X287055Y347055D01*
X288232Y345976D01*
X289499Y345004D01*
X290846Y344145D01*
X292263Y343408D01*
X293738Y342797D01*
X295262Y342316D01*
X296821Y341971D01*
X298404Y341762D01*
X300000Y341693D01*
X301596Y341762D01*
X303179Y341971D01*
X304738Y342316D01*
X306262Y342797D01*
X307737Y343408D01*
X309154Y344145D01*
X310501Y345004D01*
X311768Y345976D01*
X312945Y347055D01*
X314024Y348232D01*
X314996Y349499D01*
X315855Y350846D01*
X316592Y352263D01*
X317203Y353739D01*
X317684Y355262D01*
X318029Y356821D01*
X318238Y358404D01*
X318307Y360000D01*
X318238Y361596D01*
X318029Y363179D01*
X317684Y364738D01*
X317203Y366261D01*
X316592Y367737D01*
X315855Y369154D01*
X314996Y370501D01*
X314024Y371768D01*
X312945Y372945D01*
X311768Y374024D01*
X310501Y374996D01*
X309154Y375855D01*
X307737Y376592D01*
X306262Y377203D01*
X304738Y377684D01*
X303179Y378029D01*
X301596Y378238D01*
X300000Y378307D01*
D02*
G37*
G36*
X995000Y326059D02*
X927500D01*
X926552Y325984D01*
X925628Y325762D01*
X924749Y325398D01*
X923939Y324902D01*
X923216Y324284D01*
X922598Y323561D01*
X922102Y322751D01*
X921738Y321872D01*
X921516Y320948D01*
X921441Y320000D01*
X921516Y319052D01*
X921738Y318128D01*
X922102Y317249D01*
X922598Y316439D01*
X923216Y315716D01*
X923939Y315098D01*
X924749Y314602D01*
X925628Y314238D01*
X926552Y314016D01*
X927500Y313941D01*
X995000D01*
X995948Y314016D01*
X996872Y314238D01*
X997751Y314602D01*
X998561Y315098D01*
X999284Y315716D01*
X999902Y316439D01*
X1000398Y317249D01*
X1000762Y318128D01*
X1000984Y319052D01*
X1001059Y320000D01*
X1000984Y320948D01*
X1000762Y321872D01*
X1000398Y322751D01*
X999902Y323561D01*
X999284Y324284D01*
X998561Y324902D01*
X997751Y325398D01*
X996872Y325762D01*
X995948Y325984D01*
X995000Y326059D01*
D02*
G37*
G36*
X1060800Y378307D02*
X1059204Y378238D01*
X1057621Y378029D01*
X1056062Y377684D01*
X1054538Y377203D01*
X1053063Y376592D01*
X1051646Y375855D01*
X1050299Y374996D01*
X1049032Y374024D01*
X1047855Y372945D01*
X1046776Y371768D01*
X1045803Y370501D01*
X1044945Y369154D01*
X1044208Y367737D01*
X1043597Y366261D01*
X1043116Y364738D01*
X1042771Y363179D01*
X1042562Y361596D01*
X1042493Y360000D01*
X1042562Y358404D01*
X1042771Y356821D01*
X1043116Y355262D01*
X1043597Y353739D01*
X1044208Y352263D01*
X1044945Y350846D01*
X1045803Y349499D01*
X1046776Y348232D01*
X1047855Y347055D01*
X1049032Y345976D01*
X1050299Y345004D01*
X1051646Y344145D01*
X1053063Y343408D01*
X1054538Y342797D01*
X1056062Y342316D01*
X1057621Y341971D01*
X1059204Y341762D01*
X1060800Y341693D01*
X1062396Y341762D01*
X1063979Y341971D01*
X1065538Y342316D01*
X1067061Y342797D01*
X1068537Y343408D01*
X1069954Y344145D01*
X1071301Y345004D01*
X1072568Y345976D01*
X1073745Y347055D01*
X1074824Y348232D01*
X1075797Y349499D01*
X1076655Y350846D01*
X1077392Y352263D01*
X1078003Y353739D01*
X1078484Y355262D01*
X1078829Y356821D01*
X1079038Y358404D01*
X1079107Y360000D01*
X1079038Y361596D01*
X1078829Y363179D01*
X1078484Y364738D01*
X1078003Y366261D01*
X1077392Y367737D01*
X1076655Y369154D01*
X1075797Y370501D01*
X1074824Y371768D01*
X1073745Y372945D01*
X1072568Y374024D01*
X1071301Y374996D01*
X1069954Y375855D01*
X1068537Y376592D01*
X1067061Y377203D01*
X1065538Y377684D01*
X1063979Y378029D01*
X1062396Y378238D01*
X1060800Y378307D01*
D02*
G37*
G36*
X634000Y383556D02*
X632874Y383493D01*
X631762Y383304D01*
X630679Y382991D01*
X629637Y382560D01*
X628650Y382015D01*
X627730Y381362D01*
X626889Y380611D01*
X626138Y379770D01*
X625485Y378850D01*
X624940Y377863D01*
X624509Y376821D01*
X624196Y375738D01*
X624007Y374626D01*
X623944Y373500D01*
X624007Y372374D01*
X624196Y371262D01*
X624509Y370179D01*
X624940Y369137D01*
X625485Y368150D01*
X626138Y367230D01*
X626889Y366390D01*
X627730Y365638D01*
X628650Y364986D01*
X629637Y364440D01*
X630679Y364008D01*
X631762Y363696D01*
X632874Y363507D01*
X634000Y363444D01*
X635126Y363507D01*
X636238Y363696D01*
X637321Y364008D01*
X638363Y364440D01*
X639350Y364986D01*
X640270Y365638D01*
X641111Y366390D01*
X641862Y367230D01*
X642514Y368150D01*
X643060Y369137D01*
X643492Y370179D01*
X643804Y371262D01*
X643993Y372374D01*
X644056Y373500D01*
X643993Y374626D01*
X643804Y375738D01*
X643492Y376821D01*
X643060Y377863D01*
X642514Y378850D01*
X641862Y379770D01*
X641111Y380611D01*
X640270Y381362D01*
X639350Y382015D01*
X638363Y382560D01*
X637321Y382991D01*
X636238Y383304D01*
X635126Y383493D01*
X634000Y383556D01*
D02*
G37*
G36*
X1108850Y425106D02*
X1106150D01*
X1105007Y425042D01*
X1103879Y424850D01*
X1102779Y424533D01*
X1101722Y424095D01*
X1100720Y423542D01*
X1099787Y422879D01*
X1098933Y422117D01*
X1098171Y421263D01*
X1097508Y420330D01*
X1096955Y419328D01*
X1096517Y418271D01*
X1096200Y417171D01*
X1096008Y416043D01*
X1095944Y414900D01*
X1096008Y413757D01*
X1096200Y412629D01*
X1096517Y411529D01*
X1096955Y410472D01*
X1097508Y409470D01*
X1098171Y408537D01*
X1098933Y407683D01*
X1099787Y406921D01*
X1100720Y406258D01*
X1101722Y405705D01*
X1102779Y405267D01*
X1103879Y404950D01*
X1105007Y404758D01*
X1106150Y404694D01*
X1108850D01*
X1109122Y404709D01*
X1116441Y397390D01*
Y352500D01*
X1116516Y351552D01*
X1116738Y350628D01*
X1117102Y349749D01*
X1117598Y348939D01*
X1118216Y348216D01*
X1118939Y347598D01*
X1119749Y347102D01*
X1120628Y346738D01*
X1121552Y346516D01*
X1122500Y346441D01*
X1123448Y346516D01*
X1124372Y346738D01*
X1125251Y347102D01*
X1126061Y347598D01*
X1126784Y348216D01*
X1127402Y348939D01*
X1127898Y349749D01*
X1128262Y350628D01*
X1128484Y351552D01*
X1128559Y352500D01*
Y399900D01*
X1128484Y400848D01*
X1128441Y401027D01*
X1128262Y401772D01*
X1128005Y402393D01*
X1127898Y402651D01*
X1127594Y403147D01*
X1127402Y403461D01*
X1126784Y404184D01*
X1118697Y412271D01*
X1118800Y412629D01*
X1118992Y413757D01*
X1119056Y414900D01*
X1118992Y416043D01*
X1118800Y417171D01*
X1118483Y418271D01*
X1118045Y419328D01*
X1117492Y420330D01*
X1116829Y421263D01*
X1116067Y422117D01*
X1115213Y422879D01*
X1114280Y423542D01*
X1113278Y424095D01*
X1112221Y424533D01*
X1111121Y424850D01*
X1109993Y425042D01*
X1108850Y425106D01*
D02*
G37*
G36*
X1176270Y297468D02*
Y288770D01*
X1184968D01*
X1184804Y289738D01*
X1184492Y290821D01*
X1184060Y291863D01*
X1183514Y292850D01*
X1182862Y293770D01*
X1182111Y294611D01*
X1181270Y295362D01*
X1180350Y296014D01*
X1179363Y296560D01*
X1178321Y296992D01*
X1177238Y297304D01*
X1176270Y297468D01*
D02*
G37*
G36*
X1173730D02*
X1172762Y297304D01*
X1171679Y296992D01*
X1170637Y296560D01*
X1169650Y296014D01*
X1168730Y295362D01*
X1167889Y294611D01*
X1167138Y293770D01*
X1166486Y292850D01*
X1165940Y291863D01*
X1165508Y290821D01*
X1165196Y289738D01*
X1165032Y288770D01*
X1173730D01*
Y297468D01*
D02*
G37*
G36*
X992900Y303819D02*
X991920Y303755D01*
X990956Y303563D01*
X990026Y303248D01*
X989145Y302813D01*
X988329Y302267D01*
X987590Y301620D01*
X986943Y300881D01*
X986397Y300065D01*
X985963Y299184D01*
X985647Y298253D01*
X985455Y297290D01*
X985391Y296310D01*
X985455Y295330D01*
X985647Y294367D01*
X985963Y293436D01*
X986397Y292556D01*
X986943Y291739D01*
X987590Y291000D01*
X988329Y290353D01*
X989145Y289807D01*
X990026Y289373D01*
X990956Y289057D01*
X991920Y288865D01*
X992900Y288801D01*
X993880Y288865D01*
X994843Y289057D01*
X995773Y289373D01*
X996655Y289807D01*
X997471Y290353D01*
X998210Y291000D01*
X998857Y291739D01*
X999403Y292556D01*
X999837Y293436D01*
X1000153Y294367D01*
X1000345Y295330D01*
X1000409Y296310D01*
X1000345Y297290D01*
X1000153Y298253D01*
X999837Y299184D01*
X999403Y300065D01*
X998857Y300881D01*
X998210Y301620D01*
X997471Y302267D01*
X996655Y302813D01*
X995773Y303248D01*
X994843Y303563D01*
X993880Y303755D01*
X992900Y303819D01*
D02*
G37*
G36*
X1232500Y318057D02*
X1231631Y317989D01*
X1230783Y317785D01*
X1229977Y317451D01*
X1229234Y316996D01*
X1228570Y316430D01*
X1228004Y315766D01*
X1227549Y315023D01*
X1227215Y314217D01*
X1227011Y313369D01*
X1226943Y312500D01*
X1227011Y311631D01*
X1227215Y310783D01*
X1227549Y309977D01*
X1228004Y309234D01*
X1228570Y308570D01*
X1229234Y308004D01*
X1229977Y307549D01*
X1230783Y307215D01*
X1231631Y307011D01*
X1232500Y306943D01*
X1233369Y307011D01*
X1234217Y307215D01*
X1235023Y307549D01*
X1235766Y308004D01*
X1236430Y308570D01*
X1236996Y309234D01*
X1237451Y309977D01*
X1237785Y310783D01*
X1237989Y311631D01*
X1238057Y312500D01*
X1237989Y313369D01*
X1237785Y314217D01*
X1237451Y315023D01*
X1236996Y315766D01*
X1236430Y316430D01*
X1235766Y316996D01*
X1235023Y317451D01*
X1234217Y317785D01*
X1233369Y317989D01*
X1232500Y318057D01*
D02*
G37*
G36*
X495000Y322556D02*
X493874Y322493D01*
X492762Y322304D01*
X491679Y321992D01*
X490637Y321560D01*
X489650Y321015D01*
X488730Y320362D01*
X487889Y319611D01*
X487138Y318770D01*
X486485Y317850D01*
X485940Y316863D01*
X485508Y315821D01*
X485196Y314738D01*
X485007Y313626D01*
X484944Y312500D01*
X485007Y311374D01*
X485196Y310262D01*
X485508Y309179D01*
X485940Y308137D01*
X486485Y307150D01*
X487138Y306230D01*
X487889Y305389D01*
X488730Y304638D01*
X489650Y303986D01*
X490637Y303440D01*
X491679Y303008D01*
X492762Y302696D01*
X493874Y302507D01*
X495000Y302444D01*
X496126Y302507D01*
X497238Y302696D01*
X498321Y303008D01*
X499363Y303440D01*
X500350Y303986D01*
X501270Y304638D01*
X502110Y305389D01*
X502862Y306230D01*
X503515Y307150D01*
X504060Y308137D01*
X504492Y309179D01*
X504804Y310262D01*
X504993Y311374D01*
X505056Y312500D01*
X504993Y313626D01*
X504804Y314738D01*
X504492Y315821D01*
X504060Y316863D01*
X503515Y317850D01*
X502862Y318770D01*
X502110Y319611D01*
X501270Y320362D01*
X500350Y321015D01*
X499363Y321560D01*
X498321Y321992D01*
X497238Y322304D01*
X496126Y322493D01*
X495000Y322556D01*
D02*
G37*
G36*
X750000Y949058D02*
X748706Y948986D01*
X747428Y948768D01*
X746183Y948410D01*
X744985Y947914D01*
X743851Y947287D01*
X742794Y946536D01*
X741827Y945673D01*
X740964Y944706D01*
X740213Y943649D01*
X739586Y942515D01*
X739090Y941317D01*
X738732Y940072D01*
X738514Y938794D01*
X738442Y937500D01*
X738514Y936206D01*
X738732Y934928D01*
X739090Y933683D01*
X739586Y932485D01*
X740213Y931351D01*
X740964Y930294D01*
X741827Y929327D01*
X742794Y928464D01*
X743851Y927713D01*
X744985Y927086D01*
X746183Y926590D01*
X747428Y926232D01*
X748706Y926014D01*
X750000Y925942D01*
X751294Y926014D01*
X752572Y926232D01*
X753817Y926590D01*
X755015Y927086D01*
X756149Y927713D01*
X757206Y928464D01*
X758173Y929327D01*
X759036Y930294D01*
X759787Y931351D01*
X760414Y932485D01*
X760910Y933683D01*
X761268Y934928D01*
X761486Y936206D01*
X761558Y937500D01*
X761486Y938794D01*
X761268Y940072D01*
X760910Y941317D01*
X760414Y942515D01*
X759787Y943649D01*
X759036Y944706D01*
X758173Y945673D01*
X757206Y946536D01*
X756149Y947287D01*
X755015Y947914D01*
X753817Y948410D01*
X752572Y948768D01*
X751294Y948986D01*
X750000Y949058D01*
D02*
G37*
G36*
X677000Y863559D02*
X651158D01*
X650210Y863484D01*
X649286Y863262D01*
X648408Y862898D01*
X647597Y862402D01*
X646874Y861784D01*
X646257Y861061D01*
X645760Y860251D01*
X645396Y859372D01*
X645174Y858448D01*
X645100Y857500D01*
X645174Y856552D01*
X645396Y855628D01*
X645760Y854749D01*
X646257Y853939D01*
X646874Y853216D01*
X647597Y852598D01*
X648408Y852102D01*
X649286Y851738D01*
X650210Y851516D01*
X651158Y851441D01*
X677000D01*
X677948Y851516D01*
X678872Y851738D01*
X679751Y852102D01*
X680561Y852598D01*
X681284Y853216D01*
X681902Y853939D01*
X682398Y854749D01*
X682762Y855628D01*
X682984Y856552D01*
X683059Y857500D01*
X682984Y858448D01*
X682762Y859372D01*
X682398Y860251D01*
X681902Y861061D01*
X681284Y861784D01*
X680561Y862402D01*
X679751Y862898D01*
X678872Y863262D01*
X677948Y863484D01*
X677000Y863559D01*
D02*
G37*
G36*
X850000Y949058D02*
X848706Y948986D01*
X847428Y948768D01*
X846183Y948410D01*
X844985Y947914D01*
X843851Y947287D01*
X842794Y946536D01*
X841827Y945673D01*
X840964Y944706D01*
X840213Y943649D01*
X839586Y942515D01*
X839090Y941317D01*
X838732Y940072D01*
X838514Y938794D01*
X838442Y937500D01*
X838514Y936206D01*
X838732Y934928D01*
X839090Y933683D01*
X839586Y932485D01*
X840213Y931351D01*
X840964Y930294D01*
X841827Y929327D01*
X842794Y928464D01*
X843851Y927713D01*
X844985Y927086D01*
X846183Y926590D01*
X847428Y926232D01*
X848706Y926014D01*
X850000Y925942D01*
X851294Y926014D01*
X852572Y926232D01*
X853817Y926590D01*
X855015Y927086D01*
X856149Y927713D01*
X857206Y928464D01*
X858173Y929327D01*
X859036Y930294D01*
X859787Y931351D01*
X860414Y932485D01*
X860910Y933683D01*
X861268Y934928D01*
X861486Y936206D01*
X861558Y937500D01*
X861486Y938794D01*
X861268Y940072D01*
X860910Y941317D01*
X860414Y942515D01*
X859787Y943649D01*
X859036Y944706D01*
X858173Y945673D01*
X857206Y946536D01*
X856149Y947287D01*
X855015Y947914D01*
X853817Y948410D01*
X852572Y948768D01*
X851294Y948986D01*
X850000Y949058D01*
D02*
G37*
G36*
X1100000Y970056D02*
X1098874Y969993D01*
X1097762Y969804D01*
X1096679Y969492D01*
X1095637Y969060D01*
X1094650Y968514D01*
X1093730Y967862D01*
X1092889Y967111D01*
X1092138Y966270D01*
X1091486Y965350D01*
X1090940Y964363D01*
X1090508Y963321D01*
X1090196Y962238D01*
X1090007Y961126D01*
X1089944Y960000D01*
X1090007Y958874D01*
X1090196Y957762D01*
X1090508Y956679D01*
X1090940Y955637D01*
X1091486Y954650D01*
X1092138Y953730D01*
X1092889Y952889D01*
X1093730Y952138D01*
X1094650Y951486D01*
X1095637Y950940D01*
X1096679Y950508D01*
X1097762Y950196D01*
X1098874Y950007D01*
X1100000Y949944D01*
X1101126Y950007D01*
X1102238Y950196D01*
X1103321Y950508D01*
X1104363Y950940D01*
X1105350Y951486D01*
X1106270Y952138D01*
X1107111Y952889D01*
X1107862Y953730D01*
X1108514Y954650D01*
X1109060Y955637D01*
X1109492Y956679D01*
X1109804Y957762D01*
X1109993Y958874D01*
X1110056Y960000D01*
X1109993Y961126D01*
X1109804Y962238D01*
X1109492Y963321D01*
X1109060Y964363D01*
X1108514Y965350D01*
X1107862Y966270D01*
X1107111Y967111D01*
X1106270Y967862D01*
X1105350Y968514D01*
X1104363Y969060D01*
X1103321Y969492D01*
X1102238Y969804D01*
X1101126Y969993D01*
X1100000Y970056D01*
D02*
G37*
G36*
X572500Y957556D02*
X571374Y957493D01*
X570262Y957304D01*
X569179Y956992D01*
X568137Y956560D01*
X567150Y956014D01*
X566230Y955362D01*
X565389Y954611D01*
X564638Y953770D01*
X563985Y952850D01*
X563440Y951863D01*
X563008Y950821D01*
X562696Y949738D01*
X562507Y948626D01*
X562444Y947500D01*
X562507Y946374D01*
X562696Y945262D01*
X563008Y944179D01*
X563440Y943137D01*
X563985Y942150D01*
X564638Y941230D01*
X565389Y940389D01*
X566230Y939638D01*
X567150Y938986D01*
X568137Y938440D01*
X569179Y938008D01*
X570262Y937696D01*
X571374Y937507D01*
X572500Y937444D01*
X573626Y937507D01*
X574738Y937696D01*
X575821Y938008D01*
X576863Y938440D01*
X577850Y938986D01*
X578770Y939638D01*
X579610Y940389D01*
X580362Y941230D01*
X581015Y942150D01*
X581560Y943137D01*
X581992Y944179D01*
X582304Y945262D01*
X582493Y946374D01*
X582556Y947500D01*
X582493Y948626D01*
X582304Y949738D01*
X581992Y950821D01*
X581560Y951863D01*
X581015Y952850D01*
X580362Y953770D01*
X579610Y954611D01*
X578770Y955362D01*
X577850Y956014D01*
X576863Y956560D01*
X575821Y956992D01*
X574738Y957304D01*
X573626Y957493D01*
X572500Y957556D01*
D02*
G37*
G36*
X252468Y846230D02*
X243770D01*
Y837532D01*
X244738Y837696D01*
X245821Y838008D01*
X246863Y838440D01*
X247850Y838986D01*
X248770Y839638D01*
X249611Y840389D01*
X250362Y841230D01*
X251014Y842150D01*
X251560Y843137D01*
X251992Y844179D01*
X252304Y845262D01*
X252468Y846230D01*
D02*
G37*
G36*
X241230D02*
X232532D01*
X232696Y845262D01*
X233008Y844179D01*
X233440Y843137D01*
X233986Y842150D01*
X234638Y841230D01*
X235389Y840389D01*
X236230Y839638D01*
X237150Y838986D01*
X238137Y838440D01*
X239179Y838008D01*
X240262Y837696D01*
X241230Y837532D01*
Y846230D01*
D02*
G37*
G36*
X337500Y858559D02*
X302500D01*
X301552Y858484D01*
X300628Y858262D01*
X299749Y857898D01*
X298939Y857402D01*
X298216Y856784D01*
X297598Y856061D01*
X297102Y855251D01*
X296738Y854372D01*
X296516Y853448D01*
X296441Y852500D01*
X296516Y851552D01*
X296738Y850628D01*
X297102Y849749D01*
X297598Y848939D01*
X298216Y848216D01*
X298939Y847598D01*
X299749Y847102D01*
X300628Y846738D01*
X301552Y846516D01*
X302500Y846441D01*
X337500D01*
X338448Y846516D01*
X339372Y846738D01*
X340251Y847102D01*
X341061Y847598D01*
X341784Y848216D01*
X342402Y848939D01*
X342898Y849749D01*
X343262Y850628D01*
X343484Y851552D01*
X343559Y852500D01*
X343484Y853448D01*
X343262Y854372D01*
X342898Y855251D01*
X342402Y856061D01*
X341784Y856784D01*
X341061Y857402D01*
X340251Y857898D01*
X339372Y858262D01*
X338448Y858484D01*
X337500Y858559D01*
D02*
G37*
G36*
X243770Y857468D02*
Y848770D01*
X252468D01*
X252304Y849738D01*
X251992Y850821D01*
X251560Y851863D01*
X251014Y852850D01*
X250362Y853770D01*
X249611Y854611D01*
X248770Y855362D01*
X247850Y856014D01*
X246863Y856560D01*
X245821Y856992D01*
X244738Y857304D01*
X243770Y857468D01*
D02*
G37*
G36*
X241230D02*
X240262Y857304D01*
X239179Y856992D01*
X238137Y856560D01*
X237150Y856014D01*
X236230Y855362D01*
X235389Y854611D01*
X234638Y853770D01*
X233986Y852850D01*
X233440Y851863D01*
X233008Y850821D01*
X232696Y849738D01*
X232532Y848770D01*
X241230D01*
Y857468D01*
D02*
G37*
G36*
X363730Y1016230D02*
X355781D01*
X356007Y1015090D01*
X356399Y1013937D01*
X356937Y1012845D01*
X357614Y1011833D01*
X358417Y1010917D01*
X359332Y1010114D01*
X360345Y1009437D01*
X361437Y1008899D01*
X362590Y1008507D01*
X363730Y1008281D01*
Y1016230D01*
D02*
G37*
G36*
X260040Y1027540D02*
X239960D01*
Y1007460D01*
X260040D01*
Y1027540D01*
D02*
G37*
G36*
X374219Y1016230D02*
X366270D01*
Y1008281D01*
X367410Y1008507D01*
X368563Y1008899D01*
X369655Y1009437D01*
X370667Y1010114D01*
X371583Y1010917D01*
X372386Y1011833D01*
X373063Y1012845D01*
X373601Y1013937D01*
X373993Y1015090D01*
X374219Y1016230D01*
D02*
G37*
G36*
X366270Y1026719D02*
Y1018770D01*
X374219D01*
X373993Y1019910D01*
X373601Y1021063D01*
X373063Y1022155D01*
X372386Y1023167D01*
X371583Y1024083D01*
X370667Y1024886D01*
X369655Y1025563D01*
X368563Y1026101D01*
X367410Y1026493D01*
X366270Y1026719D01*
D02*
G37*
G36*
X363730D02*
X362590Y1026493D01*
X361437Y1026101D01*
X360345Y1025563D01*
X359332Y1024886D01*
X358417Y1024083D01*
X357614Y1023167D01*
X356937Y1022155D01*
X356399Y1021063D01*
X356007Y1019910D01*
X355781Y1018770D01*
X363730D01*
Y1026719D01*
D02*
G37*
G36*
X1293915Y968915D02*
X1276085D01*
Y951085D01*
X1293915D01*
Y968915D01*
D02*
G37*
G36*
X1235000Y968934D02*
X1233834Y968858D01*
X1232688Y968630D01*
X1231581Y968254D01*
X1230533Y967737D01*
X1229561Y967088D01*
X1228683Y966317D01*
X1227912Y965439D01*
X1227263Y964467D01*
X1226746Y963419D01*
X1226370Y962312D01*
X1226142Y961166D01*
X1226066Y960000D01*
X1226142Y958834D01*
X1226370Y957688D01*
X1226746Y956581D01*
X1227263Y955533D01*
X1227912Y954561D01*
X1228683Y953683D01*
X1229561Y952912D01*
X1230533Y952263D01*
X1231581Y951746D01*
X1232688Y951370D01*
X1233834Y951142D01*
X1235000Y951066D01*
X1236166Y951142D01*
X1237312Y951370D01*
X1238419Y951746D01*
X1239467Y952263D01*
X1240439Y952912D01*
X1241317Y953683D01*
X1242088Y954561D01*
X1242737Y955533D01*
X1243254Y956581D01*
X1243630Y957688D01*
X1243858Y958834D01*
X1243934Y960000D01*
X1243858Y961166D01*
X1243630Y962312D01*
X1243254Y963419D01*
X1242737Y964467D01*
X1242088Y965439D01*
X1241317Y966317D01*
X1240439Y967088D01*
X1239467Y967737D01*
X1238419Y968254D01*
X1237312Y968630D01*
X1236166Y968858D01*
X1235000Y968934D01*
D02*
G37*
G36*
X445000Y977556D02*
X443874Y977493D01*
X442762Y977304D01*
X441679Y976992D01*
X440637Y976560D01*
X439650Y976014D01*
X438730Y975362D01*
X437890Y974611D01*
X437138Y973770D01*
X436485Y972850D01*
X435940Y971863D01*
X435508Y970821D01*
X435196Y969738D01*
X435007Y968626D01*
X434944Y967500D01*
X435007Y966374D01*
X435196Y965262D01*
X435508Y964179D01*
X435940Y963137D01*
X436485Y962150D01*
X437138Y961230D01*
X437890Y960389D01*
X438730Y959638D01*
X439650Y958986D01*
X440637Y958440D01*
X441679Y958008D01*
X442762Y957696D01*
X443874Y957507D01*
X445000Y957444D01*
X446126Y957507D01*
X447238Y957696D01*
X448321Y958008D01*
X449363Y958440D01*
X450350Y958986D01*
X451270Y959638D01*
X452110Y960389D01*
X452862Y961230D01*
X453515Y962150D01*
X454060Y963137D01*
X454492Y964179D01*
X454804Y965262D01*
X454993Y966374D01*
X455056Y967500D01*
X454993Y968626D01*
X454804Y969738D01*
X454492Y970821D01*
X454060Y971863D01*
X453515Y972850D01*
X452862Y973770D01*
X452110Y974611D01*
X451270Y975362D01*
X450350Y976014D01*
X449363Y976560D01*
X448321Y976992D01*
X447238Y977304D01*
X446126Y977493D01*
X445000Y977556D01*
D02*
G37*
G36*
X250000Y1002556D02*
X248874Y1002493D01*
X247762Y1002304D01*
X246679Y1001992D01*
X245637Y1001560D01*
X244650Y1001014D01*
X243730Y1000362D01*
X242889Y999611D01*
X242138Y998770D01*
X241486Y997850D01*
X240940Y996863D01*
X240508Y995821D01*
X240196Y994738D01*
X240007Y993626D01*
X239944Y992500D01*
X240007Y991374D01*
X240196Y990262D01*
X240508Y989179D01*
X240940Y988137D01*
X241486Y987150D01*
X242138Y986230D01*
X242889Y985389D01*
X243730Y984638D01*
X244650Y983986D01*
X245637Y983440D01*
X246679Y983008D01*
X247762Y982696D01*
X248874Y982507D01*
X250000Y982444D01*
X251126Y982507D01*
X252238Y982696D01*
X253321Y983008D01*
X254363Y983440D01*
X255350Y983986D01*
X256270Y984638D01*
X257111Y985389D01*
X257862Y986230D01*
X258514Y987150D01*
X259060Y988137D01*
X259492Y989179D01*
X259804Y990262D01*
X259993Y991374D01*
X260056Y992500D01*
X259993Y993626D01*
X259804Y994738D01*
X259492Y995821D01*
X259060Y996863D01*
X258514Y997850D01*
X257862Y998770D01*
X257111Y999611D01*
X256270Y1000362D01*
X255350Y1001014D01*
X254363Y1001560D01*
X253321Y1001992D01*
X252238Y1002304D01*
X251126Y1002493D01*
X250000Y1002556D01*
D02*
G37*
G36*
X365000Y976810D02*
X363785Y976730D01*
X362590Y976493D01*
X361437Y976101D01*
X360345Y975563D01*
X359332Y974886D01*
X358417Y974083D01*
X357614Y973167D01*
X356937Y972155D01*
X356399Y971063D01*
X356007Y969910D01*
X355770Y968715D01*
X355690Y967500D01*
X355770Y966285D01*
X356007Y965090D01*
X356399Y963937D01*
X356937Y962845D01*
X357614Y961833D01*
X358417Y960917D01*
X359332Y960114D01*
X360345Y959437D01*
X361437Y958899D01*
X362590Y958507D01*
X363785Y958270D01*
X365000Y958190D01*
X366215Y958270D01*
X367410Y958507D01*
X368563Y958899D01*
X369655Y959437D01*
X370667Y960114D01*
X371583Y960917D01*
X372386Y961833D01*
X373063Y962845D01*
X373601Y963937D01*
X373993Y965090D01*
X374230Y966285D01*
X374310Y967500D01*
X374230Y968715D01*
X373993Y969910D01*
X373601Y971063D01*
X373063Y972155D01*
X372386Y973167D01*
X371583Y974083D01*
X370667Y974886D01*
X369655Y975563D01*
X368563Y976101D01*
X367410Y976493D01*
X366215Y976730D01*
X365000Y976810D01*
D02*
G37*
G36*
X449500Y845556D02*
X448374Y845493D01*
X447262Y845304D01*
X446179Y844992D01*
X445137Y844560D01*
X444150Y844015D01*
X443230Y843362D01*
X442389Y842610D01*
X441638Y841770D01*
X440985Y840850D01*
X440440Y839863D01*
X440009Y838821D01*
X439696Y837738D01*
X439507Y836626D01*
X439444Y835500D01*
X439507Y834374D01*
X439696Y833262D01*
X440009Y832179D01*
X440440Y831137D01*
X440985Y830150D01*
X441638Y829230D01*
X442389Y828390D01*
X443230Y827638D01*
X444150Y826985D01*
X445137Y826440D01*
X446179Y826009D01*
X447262Y825696D01*
X448374Y825507D01*
X449500Y825444D01*
X450626Y825507D01*
X451738Y825696D01*
X452821Y826009D01*
X453863Y826440D01*
X454850Y826985D01*
X455770Y827638D01*
X456610Y828390D01*
X457362Y829230D01*
X458014Y830150D01*
X458560Y831137D01*
X458992Y832179D01*
X459304Y833262D01*
X459493Y834374D01*
X459556Y835500D01*
X459493Y836626D01*
X459304Y837738D01*
X458992Y838821D01*
X458560Y839863D01*
X458014Y840850D01*
X457362Y841770D01*
X456610Y842610D01*
X455770Y843362D01*
X454850Y844015D01*
X453863Y844560D01*
X452821Y844992D01*
X451738Y845304D01*
X450626Y845493D01*
X449500Y845556D01*
D02*
G37*
G36*
X1108850Y628306D02*
X1106150D01*
X1105007Y628242D01*
X1103879Y628050D01*
X1102779Y627733D01*
X1101722Y627295D01*
X1100720Y626742D01*
X1099787Y626079D01*
X1098933Y625317D01*
X1098171Y624463D01*
X1097508Y623530D01*
X1096955Y622528D01*
X1096517Y621471D01*
X1096200Y620371D01*
X1096008Y619243D01*
X1095944Y618100D01*
X1096008Y616957D01*
X1096200Y615829D01*
X1096517Y614729D01*
X1096955Y613672D01*
X1097508Y612670D01*
X1098171Y611737D01*
X1098933Y610883D01*
X1099787Y610121D01*
X1100720Y609458D01*
X1101722Y608905D01*
X1102779Y608467D01*
X1103879Y608150D01*
X1105007Y607958D01*
X1106150Y607894D01*
X1108850D01*
X1109993Y607958D01*
X1111121Y608150D01*
X1112221Y608467D01*
X1113278Y608905D01*
X1114280Y609458D01*
X1115213Y610121D01*
X1116067Y610883D01*
X1116829Y611737D01*
X1117492Y612670D01*
X1118045Y613672D01*
X1118483Y614729D01*
X1118800Y615829D01*
X1118992Y616957D01*
X1119056Y618100D01*
X1118992Y619243D01*
X1118800Y620371D01*
X1118483Y621471D01*
X1118045Y622528D01*
X1117492Y623530D01*
X1116829Y624463D01*
X1116067Y625317D01*
X1115213Y626079D01*
X1114280Y626742D01*
X1113278Y627295D01*
X1112221Y627733D01*
X1111121Y628050D01*
X1109993Y628242D01*
X1108850Y628306D01*
D02*
G37*
G36*
X296350D02*
X293650D01*
X292507Y628242D01*
X291379Y628050D01*
X290279Y627733D01*
X289222Y627295D01*
X288220Y626742D01*
X287287Y626079D01*
X286433Y625317D01*
X285671Y624463D01*
X285008Y623530D01*
X284455Y622528D01*
X284017Y621471D01*
X283700Y620371D01*
X283508Y619243D01*
X283444Y618100D01*
X283508Y616957D01*
X283700Y615829D01*
X284017Y614729D01*
X284455Y613672D01*
X285008Y612670D01*
X285671Y611737D01*
X286433Y610883D01*
X287287Y610121D01*
X288220Y609458D01*
X289222Y608905D01*
X290279Y608467D01*
X291379Y608150D01*
X292507Y607958D01*
X293650Y607894D01*
X296350D01*
X297493Y607958D01*
X298621Y608150D01*
X299721Y608467D01*
X300778Y608905D01*
X301780Y609458D01*
X302713Y610121D01*
X303567Y610883D01*
X304329Y611737D01*
X304992Y612670D01*
X305545Y613672D01*
X305983Y614729D01*
X306300Y615829D01*
X306492Y616957D01*
X306556Y618100D01*
X306492Y619243D01*
X306300Y620371D01*
X305983Y621471D01*
X305545Y622528D01*
X304992Y623530D01*
X304329Y624463D01*
X303567Y625317D01*
X302713Y626079D01*
X301780Y626742D01*
X300778Y627295D01*
X299721Y627733D01*
X298621Y628050D01*
X297493Y628242D01*
X296350Y628306D01*
D02*
G37*
G36*
X250400Y628156D02*
X249274Y628093D01*
X248162Y627904D01*
X247079Y627592D01*
X246037Y627160D01*
X245050Y626614D01*
X244130Y625962D01*
X243290Y625210D01*
X242538Y624370D01*
X241886Y623450D01*
X241340Y622463D01*
X240909Y621421D01*
X240596Y620338D01*
X240407Y619226D01*
X240344Y618100D01*
X240407Y616974D01*
X240596Y615862D01*
X240909Y614779D01*
X241340Y613737D01*
X241886Y612750D01*
X242538Y611830D01*
X243290Y610989D01*
X244130Y610238D01*
X245050Y609585D01*
X246037Y609040D01*
X247079Y608609D01*
X248162Y608296D01*
X249274Y608107D01*
X250400Y608044D01*
X251526Y608107D01*
X252638Y608296D01*
X253721Y608609D01*
X254763Y609040D01*
X255750Y609585D01*
X256670Y610238D01*
X257511Y610989D01*
X258262Y611830D01*
X258915Y612750D01*
X259460Y613737D01*
X259891Y614779D01*
X260204Y615862D01*
X260393Y616974D01*
X260456Y618100D01*
X260393Y619226D01*
X260204Y620338D01*
X259891Y621421D01*
X259460Y622463D01*
X258915Y623450D01*
X258262Y624370D01*
X257511Y625210D01*
X256670Y625962D01*
X255750Y626614D01*
X254763Y627160D01*
X253721Y627592D01*
X252638Y627904D01*
X251526Y628093D01*
X250400Y628156D01*
D02*
G37*
G36*
X1108850Y653706D02*
X1106150D01*
X1105007Y653642D01*
X1103879Y653450D01*
X1102779Y653133D01*
X1101722Y652695D01*
X1100720Y652142D01*
X1099787Y651479D01*
X1098933Y650717D01*
X1098171Y649863D01*
X1097508Y648930D01*
X1096955Y647928D01*
X1096517Y646871D01*
X1096200Y645771D01*
X1096008Y644643D01*
X1095944Y643500D01*
X1096008Y642357D01*
X1096200Y641229D01*
X1096517Y640129D01*
X1096955Y639072D01*
X1097508Y638070D01*
X1098171Y637137D01*
X1098933Y636283D01*
X1099787Y635521D01*
X1100720Y634858D01*
X1101722Y634305D01*
X1102779Y633867D01*
X1103879Y633550D01*
X1105007Y633358D01*
X1106150Y633294D01*
X1108850D01*
X1109993Y633358D01*
X1111121Y633550D01*
X1112221Y633867D01*
X1113278Y634305D01*
X1114280Y634858D01*
X1115213Y635521D01*
X1116067Y636283D01*
X1116829Y637137D01*
X1117492Y638070D01*
X1118045Y639072D01*
X1118483Y640129D01*
X1118800Y641229D01*
X1118992Y642357D01*
X1119056Y643500D01*
X1118992Y644643D01*
X1118800Y645771D01*
X1118483Y646871D01*
X1118045Y647928D01*
X1117492Y648930D01*
X1116829Y649863D01*
X1116067Y650717D01*
X1115213Y651479D01*
X1114280Y652142D01*
X1113278Y652695D01*
X1112221Y653133D01*
X1111121Y653450D01*
X1109993Y653642D01*
X1108850Y653706D01*
D02*
G37*
G36*
X1144800Y628156D02*
X1143674Y628093D01*
X1142562Y627904D01*
X1141479Y627592D01*
X1140437Y627160D01*
X1139450Y626614D01*
X1138530Y625962D01*
X1137690Y625210D01*
X1136938Y624370D01*
X1136285Y623450D01*
X1135740Y622463D01*
X1135309Y621421D01*
X1134996Y620338D01*
X1134807Y619226D01*
X1134744Y618100D01*
X1134807Y616974D01*
X1134996Y615862D01*
X1135309Y614779D01*
X1135740Y613737D01*
X1136285Y612750D01*
X1136938Y611830D01*
X1137690Y610989D01*
X1138530Y610238D01*
X1139450Y609585D01*
X1140437Y609040D01*
X1141479Y608609D01*
X1142562Y608296D01*
X1143674Y608107D01*
X1144800Y608044D01*
X1145926Y608107D01*
X1147038Y608296D01*
X1148121Y608609D01*
X1149163Y609040D01*
X1150150Y609585D01*
X1151070Y610238D01*
X1151910Y610989D01*
X1152662Y611830D01*
X1153315Y612750D01*
X1153860Y613737D01*
X1154292Y614779D01*
X1154604Y615862D01*
X1154793Y616974D01*
X1154856Y618100D01*
X1154793Y619226D01*
X1154604Y620338D01*
X1154292Y621421D01*
X1153860Y622463D01*
X1153315Y623450D01*
X1152662Y624370D01*
X1151910Y625210D01*
X1151070Y625962D01*
X1150150Y626614D01*
X1149163Y627160D01*
X1148121Y627592D01*
X1147038Y627904D01*
X1145926Y628093D01*
X1144800Y628156D01*
D02*
G37*
G36*
X787500Y571059D02*
X770000D01*
X769052Y570984D01*
X768128Y570762D01*
X767249Y570398D01*
X766439Y569902D01*
X765716Y569284D01*
X765098Y568561D01*
X764602Y567751D01*
X764238Y566872D01*
X764016Y565948D01*
X763941Y565000D01*
X764016Y564052D01*
X764238Y563128D01*
X764602Y562249D01*
X765098Y561439D01*
X765716Y560716D01*
X766439Y560098D01*
X767249Y559602D01*
X768128Y559238D01*
X769052Y559016D01*
X770000Y558941D01*
X787500D01*
X788448Y559016D01*
X789372Y559238D01*
X790251Y559602D01*
X791061Y560098D01*
X791784Y560716D01*
X792402Y561439D01*
X792898Y562249D01*
X793262Y563128D01*
X793484Y564052D01*
X793559Y565000D01*
X793484Y565948D01*
X793262Y566872D01*
X792898Y567751D01*
X792402Y568561D01*
X791784Y569284D01*
X791061Y569902D01*
X790251Y570398D01*
X789372Y570762D01*
X788448Y570984D01*
X787500Y571059D01*
D02*
G37*
G36*
X1144800Y577356D02*
X1143674Y577293D01*
X1142562Y577104D01*
X1141479Y576791D01*
X1140437Y576360D01*
X1139450Y575815D01*
X1138530Y575162D01*
X1137690Y574411D01*
X1136938Y573570D01*
X1136285Y572650D01*
X1135740Y571663D01*
X1135309Y570621D01*
X1134996Y569538D01*
X1134807Y568426D01*
X1134744Y567300D01*
X1134807Y566174D01*
X1134996Y565062D01*
X1135309Y563979D01*
X1135740Y562937D01*
X1136285Y561950D01*
X1136938Y561030D01*
X1137690Y560190D01*
X1138530Y559438D01*
X1139450Y558786D01*
X1140437Y558240D01*
X1141479Y557808D01*
X1142562Y557496D01*
X1143674Y557307D01*
X1144800Y557244D01*
X1145926Y557307D01*
X1147038Y557496D01*
X1148121Y557808D01*
X1149163Y558240D01*
X1150150Y558786D01*
X1151070Y559438D01*
X1151910Y560190D01*
X1152662Y561030D01*
X1153315Y561950D01*
X1153860Y562937D01*
X1154292Y563979D01*
X1154604Y565062D01*
X1154793Y566174D01*
X1154856Y567300D01*
X1154793Y568426D01*
X1154604Y569538D01*
X1154292Y570621D01*
X1153860Y571663D01*
X1153315Y572650D01*
X1152662Y573570D01*
X1151910Y574411D01*
X1151070Y575162D01*
X1150150Y575815D01*
X1149163Y576360D01*
X1148121Y576791D01*
X1147038Y577104D01*
X1145926Y577293D01*
X1144800Y577356D01*
D02*
G37*
G36*
X296350Y602906D02*
X293650D01*
X292507Y602842D01*
X291379Y602650D01*
X290279Y602333D01*
X289222Y601895D01*
X288220Y601342D01*
X287287Y600679D01*
X286433Y599917D01*
X285671Y599063D01*
X285008Y598130D01*
X284455Y597128D01*
X284017Y596071D01*
X283700Y594971D01*
X283508Y593843D01*
X283444Y592700D01*
X283508Y591557D01*
X283700Y590429D01*
X284017Y589329D01*
X284455Y588272D01*
X285008Y587270D01*
X285671Y586337D01*
X286433Y585483D01*
X287287Y584721D01*
X288220Y584058D01*
X289222Y583505D01*
X290279Y583067D01*
X291379Y582750D01*
X292507Y582558D01*
X293650Y582494D01*
X296350D01*
X297493Y582558D01*
X298621Y582750D01*
X299721Y583067D01*
X300778Y583505D01*
X301780Y584058D01*
X302713Y584721D01*
X303567Y585483D01*
X304329Y586337D01*
X304992Y587270D01*
X305545Y588272D01*
X305983Y589329D01*
X306300Y590429D01*
X306492Y591557D01*
X306556Y592700D01*
X306492Y593843D01*
X306300Y594971D01*
X305983Y596071D01*
X305545Y597128D01*
X304992Y598130D01*
X304329Y599063D01*
X303567Y599917D01*
X302713Y600679D01*
X301780Y601342D01*
X300778Y601895D01*
X299721Y602333D01*
X298621Y602650D01*
X297493Y602842D01*
X296350Y602906D01*
D02*
G37*
G36*
X250400Y602756D02*
X249274Y602693D01*
X248162Y602504D01*
X247079Y602192D01*
X246037Y601760D01*
X245050Y601214D01*
X244130Y600562D01*
X243290Y599810D01*
X242538Y598970D01*
X241886Y598050D01*
X241340Y597063D01*
X240909Y596021D01*
X240596Y594938D01*
X240407Y593826D01*
X240344Y592700D01*
X240407Y591574D01*
X240596Y590462D01*
X240909Y589379D01*
X241340Y588337D01*
X241886Y587350D01*
X242538Y586430D01*
X243290Y585589D01*
X244130Y584838D01*
X245050Y584185D01*
X246037Y583640D01*
X247079Y583209D01*
X248162Y582896D01*
X249274Y582707D01*
X250400Y582644D01*
X251526Y582707D01*
X252638Y582896D01*
X253721Y583209D01*
X254763Y583640D01*
X255750Y584185D01*
X256670Y584838D01*
X257511Y585589D01*
X258262Y586430D01*
X258915Y587350D01*
X259460Y588337D01*
X259891Y589379D01*
X260204Y590462D01*
X260393Y591574D01*
X260456Y592700D01*
X260393Y593826D01*
X260204Y594938D01*
X259891Y596021D01*
X259460Y597063D01*
X258915Y598050D01*
X258262Y598970D01*
X257511Y599810D01*
X256670Y600562D01*
X255750Y601214D01*
X254763Y601760D01*
X253721Y602192D01*
X252638Y602504D01*
X251526Y602693D01*
X250400Y602756D01*
D02*
G37*
G36*
X1108850Y602906D02*
X1106150D01*
X1105007Y602842D01*
X1103879Y602650D01*
X1102779Y602333D01*
X1101722Y601895D01*
X1100720Y601342D01*
X1099787Y600679D01*
X1098933Y599917D01*
X1098171Y599063D01*
X1097508Y598130D01*
X1096955Y597128D01*
X1096517Y596071D01*
X1096200Y594971D01*
X1096008Y593843D01*
X1095944Y592700D01*
X1096008Y591557D01*
X1096200Y590429D01*
X1096517Y589329D01*
X1096955Y588272D01*
X1097508Y587270D01*
X1098171Y586337D01*
X1098933Y585483D01*
X1099787Y584721D01*
X1100720Y584058D01*
X1101722Y583505D01*
X1102779Y583067D01*
X1103879Y582750D01*
X1105007Y582558D01*
X1106150Y582494D01*
X1108850D01*
X1109993Y582558D01*
X1111121Y582750D01*
X1112221Y583067D01*
X1113278Y583505D01*
X1114280Y584058D01*
X1115213Y584721D01*
X1116067Y585483D01*
X1116829Y586337D01*
X1117492Y587270D01*
X1118045Y588272D01*
X1118483Y589329D01*
X1118800Y590429D01*
X1118992Y591557D01*
X1119056Y592700D01*
X1118992Y593843D01*
X1118800Y594971D01*
X1118483Y596071D01*
X1118045Y597128D01*
X1117492Y598130D01*
X1116829Y599063D01*
X1116067Y599917D01*
X1115213Y600679D01*
X1114280Y601342D01*
X1113278Y601895D01*
X1112221Y602333D01*
X1111121Y602650D01*
X1109993Y602842D01*
X1108850Y602906D01*
D02*
G37*
G36*
X1144800Y755156D02*
X1143674Y755093D01*
X1142562Y754904D01*
X1141479Y754592D01*
X1140437Y754160D01*
X1139450Y753615D01*
X1138530Y752962D01*
X1137690Y752210D01*
X1136938Y751370D01*
X1136285Y750450D01*
X1135740Y749463D01*
X1135309Y748421D01*
X1134996Y747338D01*
X1134807Y746226D01*
X1134744Y745100D01*
X1134807Y743974D01*
X1134996Y742862D01*
X1135309Y741779D01*
X1135740Y740737D01*
X1136285Y739750D01*
X1136938Y738830D01*
X1137690Y737990D01*
X1138530Y737238D01*
X1139450Y736585D01*
X1140437Y736040D01*
X1141479Y735609D01*
X1142562Y735296D01*
X1143674Y735107D01*
X1144800Y735044D01*
X1145926Y735107D01*
X1147038Y735296D01*
X1148121Y735609D01*
X1149163Y736040D01*
X1150150Y736585D01*
X1151070Y737238D01*
X1151910Y737990D01*
X1152662Y738830D01*
X1153315Y739750D01*
X1153860Y740737D01*
X1154292Y741779D01*
X1154604Y742862D01*
X1154793Y743974D01*
X1154856Y745100D01*
X1154793Y746226D01*
X1154604Y747338D01*
X1154292Y748421D01*
X1153860Y749463D01*
X1153315Y750450D01*
X1152662Y751370D01*
X1151910Y752210D01*
X1151070Y752962D01*
X1150150Y753615D01*
X1149163Y754160D01*
X1148121Y754592D01*
X1147038Y754904D01*
X1145926Y755093D01*
X1144800Y755156D01*
D02*
G37*
G36*
X1119040Y755290D02*
X1095960D01*
Y734910D01*
X1119040D01*
Y755290D01*
D02*
G37*
G36*
X252500Y795056D02*
X251374Y794993D01*
X250262Y794804D01*
X249179Y794492D01*
X248137Y794060D01*
X247150Y793514D01*
X246230Y792862D01*
X245389Y792111D01*
X244638Y791270D01*
X243986Y790350D01*
X243440Y789363D01*
X243008Y788321D01*
X242696Y787238D01*
X242507Y786126D01*
X242444Y785000D01*
X242507Y783874D01*
X242696Y782762D01*
X243008Y781679D01*
X243440Y780637D01*
X243986Y779650D01*
X244638Y778730D01*
X245389Y777889D01*
X246230Y777138D01*
X247150Y776486D01*
X248137Y775940D01*
X249179Y775508D01*
X250262Y775196D01*
X251374Y775007D01*
X252500Y774944D01*
X253626Y775007D01*
X254738Y775196D01*
X255821Y775508D01*
X256863Y775940D01*
X257850Y776486D01*
X258770Y777138D01*
X259611Y777889D01*
X260362Y778730D01*
X261014Y779650D01*
X261560Y780637D01*
X261992Y781679D01*
X262304Y782762D01*
X262493Y783874D01*
X262556Y785000D01*
X262493Y786126D01*
X262304Y787238D01*
X261992Y788321D01*
X261560Y789363D01*
X261014Y790350D01*
X260362Y791270D01*
X259611Y792111D01*
X258770Y792862D01*
X257850Y793514D01*
X256863Y794060D01*
X255821Y794492D01*
X254738Y794804D01*
X253626Y794993D01*
X252500Y795056D01*
D02*
G37*
G36*
X1060800Y818307D02*
X1059204Y818238D01*
X1057621Y818029D01*
X1056062Y817684D01*
X1054538Y817203D01*
X1053063Y816592D01*
X1051646Y815855D01*
X1050299Y814996D01*
X1049032Y814024D01*
X1047855Y812945D01*
X1046776Y811768D01*
X1045803Y810501D01*
X1044945Y809154D01*
X1044208Y807737D01*
X1043597Y806262D01*
X1043116Y804738D01*
X1042771Y803179D01*
X1042562Y801596D01*
X1042493Y800000D01*
X1042562Y798404D01*
X1042771Y796821D01*
X1043116Y795262D01*
X1043597Y793738D01*
X1044208Y792263D01*
X1044945Y790846D01*
X1045803Y789499D01*
X1046776Y788232D01*
X1047855Y787055D01*
X1049032Y785976D01*
X1050299Y785004D01*
X1051646Y784145D01*
X1053063Y783408D01*
X1054538Y782797D01*
X1056062Y782316D01*
X1057621Y781971D01*
X1059204Y781762D01*
X1060800Y781693D01*
X1062396Y781762D01*
X1063979Y781971D01*
X1065538Y782316D01*
X1067061Y782797D01*
X1068537Y783408D01*
X1069954Y784145D01*
X1071301Y785004D01*
X1072568Y785976D01*
X1073745Y787055D01*
X1074824Y788232D01*
X1075797Y789499D01*
X1076655Y790846D01*
X1077392Y792263D01*
X1078003Y793738D01*
X1078484Y795262D01*
X1078829Y796821D01*
X1079038Y798404D01*
X1079107Y800000D01*
X1079038Y801596D01*
X1078829Y803179D01*
X1078484Y804738D01*
X1078003Y806262D01*
X1077392Y807737D01*
X1076655Y809154D01*
X1075797Y810501D01*
X1074824Y811768D01*
X1073745Y812945D01*
X1072568Y814024D01*
X1071301Y814996D01*
X1069954Y815855D01*
X1068537Y816592D01*
X1067061Y817203D01*
X1065538Y817684D01*
X1063979Y818029D01*
X1062396Y818238D01*
X1060800Y818307D01*
D02*
G37*
G36*
X300000D02*
X298404Y818238D01*
X296821Y818029D01*
X295262Y817684D01*
X293738Y817203D01*
X292263Y816592D01*
X290846Y815855D01*
X289499Y814996D01*
X288232Y814024D01*
X287055Y812945D01*
X285976Y811768D01*
X285003Y810501D01*
X284145Y809154D01*
X283408Y807737D01*
X282797Y806262D01*
X282316Y804738D01*
X281971Y803179D01*
X281762Y801596D01*
X281693Y800000D01*
X281762Y798404D01*
X281971Y796821D01*
X282316Y795262D01*
X282797Y793738D01*
X283408Y792263D01*
X284145Y790846D01*
X285003Y789499D01*
X285976Y788232D01*
X287055Y787055D01*
X288232Y785976D01*
X289499Y785004D01*
X290846Y784145D01*
X292263Y783408D01*
X293738Y782797D01*
X295262Y782316D01*
X296821Y781971D01*
X298404Y781762D01*
X300000Y781693D01*
X301596Y781762D01*
X303179Y781971D01*
X304738Y782316D01*
X306262Y782797D01*
X307737Y783408D01*
X309154Y784145D01*
X310501Y785004D01*
X311768Y785976D01*
X312945Y787055D01*
X314024Y788232D01*
X314996Y789499D01*
X315855Y790846D01*
X316592Y792263D01*
X317203Y793738D01*
X317684Y795262D01*
X318029Y796821D01*
X318238Y798404D01*
X318307Y800000D01*
X318238Y801596D01*
X318029Y803179D01*
X317684Y804738D01*
X317203Y806262D01*
X316592Y807737D01*
X315855Y809154D01*
X314996Y810501D01*
X314024Y811768D01*
X312945Y812945D01*
X311768Y814024D01*
X310501Y814996D01*
X309154Y815855D01*
X307737Y816592D01*
X306262Y817203D01*
X304738Y817684D01*
X303179Y818029D01*
X301596Y818238D01*
X300000Y818307D01*
D02*
G37*
G36*
X1144800Y678956D02*
X1143674Y678893D01*
X1142562Y678704D01*
X1141479Y678391D01*
X1140437Y677960D01*
X1139450Y677414D01*
X1138530Y676762D01*
X1137690Y676011D01*
X1136938Y675170D01*
X1136285Y674250D01*
X1135740Y673263D01*
X1135309Y672221D01*
X1134996Y671138D01*
X1134807Y670026D01*
X1134744Y668900D01*
X1134807Y667774D01*
X1134996Y666662D01*
X1135309Y665579D01*
X1135740Y664537D01*
X1136285Y663550D01*
X1136938Y662630D01*
X1137690Y661789D01*
X1138530Y661038D01*
X1139450Y660386D01*
X1140437Y659840D01*
X1141479Y659408D01*
X1142562Y659096D01*
X1143674Y658907D01*
X1144800Y658844D01*
X1145926Y658907D01*
X1147038Y659096D01*
X1148121Y659408D01*
X1149163Y659840D01*
X1150150Y660386D01*
X1151070Y661038D01*
X1151910Y661789D01*
X1152662Y662630D01*
X1153315Y663550D01*
X1153860Y664537D01*
X1154292Y665579D01*
X1154604Y666662D01*
X1154793Y667774D01*
X1154856Y668900D01*
X1154793Y670026D01*
X1154604Y671138D01*
X1154292Y672221D01*
X1153860Y673263D01*
X1153315Y674250D01*
X1152662Y675170D01*
X1151910Y676011D01*
X1151070Y676762D01*
X1150150Y677414D01*
X1149163Y677960D01*
X1148121Y678391D01*
X1147038Y678704D01*
X1145926Y678893D01*
X1144800Y678956D01*
D02*
G37*
G36*
X1108850Y679106D02*
X1106150D01*
X1105007Y679042D01*
X1103879Y678850D01*
X1102779Y678533D01*
X1101722Y678095D01*
X1100720Y677542D01*
X1099787Y676879D01*
X1098933Y676117D01*
X1098171Y675263D01*
X1097508Y674330D01*
X1096955Y673328D01*
X1096517Y672271D01*
X1096200Y671171D01*
X1096008Y670043D01*
X1095944Y668900D01*
X1096008Y667757D01*
X1096200Y666629D01*
X1096517Y665529D01*
X1096955Y664472D01*
X1097508Y663470D01*
X1098171Y662537D01*
X1098933Y661683D01*
X1099787Y660921D01*
X1100720Y660258D01*
X1101722Y659705D01*
X1102779Y659267D01*
X1103879Y658950D01*
X1105007Y658758D01*
X1106150Y658694D01*
X1108850D01*
X1109993Y658758D01*
X1111121Y658950D01*
X1112221Y659267D01*
X1113278Y659705D01*
X1114280Y660258D01*
X1115213Y660921D01*
X1116067Y661683D01*
X1116829Y662537D01*
X1117492Y663470D01*
X1118045Y664472D01*
X1118483Y665529D01*
X1118800Y666629D01*
X1118992Y667757D01*
X1119056Y668900D01*
X1118992Y670043D01*
X1118800Y671171D01*
X1118483Y672271D01*
X1118045Y673328D01*
X1117492Y674330D01*
X1116829Y675263D01*
X1116067Y676117D01*
X1115213Y676879D01*
X1114280Y677542D01*
X1113278Y678095D01*
X1112221Y678533D01*
X1111121Y678850D01*
X1109993Y679042D01*
X1108850Y679106D01*
D02*
G37*
G36*
Y704506D02*
X1106150D01*
X1105007Y704442D01*
X1103879Y704250D01*
X1102779Y703933D01*
X1101722Y703495D01*
X1100720Y702942D01*
X1099787Y702279D01*
X1098933Y701517D01*
X1098171Y700663D01*
X1097508Y699730D01*
X1096955Y698728D01*
X1096517Y697671D01*
X1096200Y696571D01*
X1096008Y695443D01*
X1095944Y694300D01*
X1096008Y693157D01*
X1096200Y692029D01*
X1096517Y690929D01*
X1096955Y689872D01*
X1097508Y688870D01*
X1098171Y687937D01*
X1098933Y687083D01*
X1099787Y686321D01*
X1100720Y685658D01*
X1101722Y685105D01*
X1102779Y684667D01*
X1103879Y684350D01*
X1105007Y684158D01*
X1106150Y684094D01*
X1108850D01*
X1109993Y684158D01*
X1111121Y684350D01*
X1112221Y684667D01*
X1113278Y685105D01*
X1114280Y685658D01*
X1115213Y686321D01*
X1116067Y687083D01*
X1116829Y687937D01*
X1117492Y688870D01*
X1118045Y689872D01*
X1118483Y690929D01*
X1118800Y692029D01*
X1118992Y693157D01*
X1119056Y694300D01*
X1118992Y695443D01*
X1118800Y696571D01*
X1118483Y697671D01*
X1118045Y698728D01*
X1117492Y699730D01*
X1116829Y700663D01*
X1116067Y701517D01*
X1115213Y702279D01*
X1114280Y702942D01*
X1113278Y703495D01*
X1112221Y703933D01*
X1111121Y704250D01*
X1109993Y704442D01*
X1108850Y704506D01*
D02*
G37*
G36*
Y729906D02*
X1106150D01*
X1105007Y729842D01*
X1103879Y729650D01*
X1102779Y729333D01*
X1101722Y728895D01*
X1100720Y728342D01*
X1099787Y727679D01*
X1098933Y726917D01*
X1098171Y726063D01*
X1097508Y725130D01*
X1096955Y724128D01*
X1096517Y723071D01*
X1096200Y721971D01*
X1096008Y720843D01*
X1095944Y719700D01*
X1096008Y718557D01*
X1096200Y717429D01*
X1096517Y716329D01*
X1096955Y715272D01*
X1097508Y714270D01*
X1098171Y713337D01*
X1098933Y712483D01*
X1099787Y711721D01*
X1100720Y711058D01*
X1101722Y710505D01*
X1102779Y710067D01*
X1103879Y709750D01*
X1105007Y709558D01*
X1106150Y709494D01*
X1108850D01*
X1109993Y709558D01*
X1111121Y709750D01*
X1112221Y710067D01*
X1113278Y710505D01*
X1114280Y711058D01*
X1115213Y711721D01*
X1116067Y712483D01*
X1116829Y713337D01*
X1117492Y714270D01*
X1118045Y715272D01*
X1118483Y716329D01*
X1118800Y717429D01*
X1118992Y718557D01*
X1119056Y719700D01*
X1118992Y720843D01*
X1118800Y721971D01*
X1118483Y723071D01*
X1118045Y724128D01*
X1117492Y725130D01*
X1116829Y726063D01*
X1116067Y726917D01*
X1115213Y727679D01*
X1114280Y728342D01*
X1113278Y728895D01*
X1112221Y729333D01*
X1111121Y729650D01*
X1109993Y729842D01*
X1108850Y729906D01*
D02*
G37*
G36*
X1144800Y704356D02*
X1143674Y704293D01*
X1142562Y704104D01*
X1141479Y703792D01*
X1140437Y703360D01*
X1139450Y702814D01*
X1138530Y702162D01*
X1137690Y701411D01*
X1136938Y700570D01*
X1136285Y699650D01*
X1135740Y698663D01*
X1135309Y697621D01*
X1134996Y696538D01*
X1134807Y695426D01*
X1134744Y694300D01*
X1134807Y693174D01*
X1134996Y692062D01*
X1135309Y690979D01*
X1135740Y689937D01*
X1136285Y688950D01*
X1136938Y688030D01*
X1137690Y687189D01*
X1138530Y686438D01*
X1139450Y685786D01*
X1140437Y685240D01*
X1141479Y684809D01*
X1142562Y684496D01*
X1143674Y684307D01*
X1144800Y684244D01*
X1145926Y684307D01*
X1147038Y684496D01*
X1148121Y684809D01*
X1149163Y685240D01*
X1150150Y685786D01*
X1151070Y686438D01*
X1151910Y687189D01*
X1152662Y688030D01*
X1153315Y688950D01*
X1153860Y689937D01*
X1154292Y690979D01*
X1154604Y692062D01*
X1154793Y693174D01*
X1154856Y694300D01*
X1154793Y695426D01*
X1154604Y696538D01*
X1154292Y697621D01*
X1153860Y698663D01*
X1153315Y699650D01*
X1152662Y700570D01*
X1151910Y701411D01*
X1151070Y702162D01*
X1150150Y702814D01*
X1149163Y703360D01*
X1148121Y703792D01*
X1147038Y704104D01*
X1145926Y704293D01*
X1144800Y704356D01*
D02*
G37*
%LPD*%
D10*
X809999Y500000D02*
X855001D01*
X876000Y479000D01*
X762500Y550000D02*
X787500D01*
X787500Y550000D01*
X825000Y482000D02*
X839000D01*
X1144800Y668900D02*
X1144800Y668900D01*
X839000Y482000D02*
X853000Y468000D01*
Y460000D02*
Y468000D01*
D29*
X302500Y852500D02*
X337500D01*
X1122500Y352500D02*
Y399900D01*
X1107500Y414900D02*
X1122500Y399900D01*
X651158Y857500D02*
X677000D01*
X927500Y320000D02*
X995000D01*
X890000Y290000D02*
X922500D01*
X770000Y565000D02*
X787500D01*
X532500Y287500D02*
Y312500D01*
D33*
X950000Y1305000D02*
X1112500D01*
X892500Y1362500D02*
X950000Y1305000D01*
X1112500D02*
X1151400Y1343900D01*
X1060000Y1424750D02*
Y1472500D01*
X550000Y1375500D02*
Y1495000D01*
X1151400Y1356400D02*
Y1424750D01*
X280000Y1240400D02*
X617900D01*
X550000Y1495000D02*
X605000Y1550000D01*
X982500D01*
X1060000Y1472500D01*
X740000Y1362500D02*
X892500D01*
X617900Y1240400D02*
X740000Y1362500D01*
D35*
X252500Y785000D02*
D03*
X242500Y847500D02*
D03*
X1100000Y960000D02*
D03*
X250400Y618100D02*
D03*
Y592700D02*
D03*
Y567300D02*
D03*
Y541900D02*
D03*
X449500Y835500D02*
D03*
X1175000Y287500D02*
D03*
X445000Y967500D02*
D03*
X572500Y947500D02*
D03*
X634000Y373500D02*
D03*
X495000Y312500D02*
D03*
X472500Y500000D02*
D03*
X250000Y992500D02*
D03*
X437500Y270000D02*
D03*
X1144800Y618100D02*
D03*
Y567300D02*
D03*
Y694300D02*
D03*
Y491100D02*
D03*
Y516500D02*
D03*
Y745100D02*
D03*
Y668900D02*
D03*
Y465700D02*
D03*
D36*
X1107500Y414900D02*
D03*
Y440300D02*
D03*
Y465700D02*
D03*
Y491100D02*
D03*
Y516500D02*
D03*
Y541900D02*
D03*
X295000Y618100D02*
D03*
Y592700D02*
D03*
Y567300D02*
D03*
X1107500Y592700D02*
D03*
Y618100D02*
D03*
Y643500D02*
D03*
Y668900D02*
D03*
Y694300D02*
D03*
Y719700D02*
D03*
D37*
Y567300D02*
D03*
X295000Y541900D02*
D03*
X1107500Y745100D02*
D03*
D38*
X1087500Y1155000D02*
D03*
X1133500D02*
D03*
X1292500D02*
D03*
X1246500D02*
D03*
D39*
X900000Y1137500D02*
D03*
X700000D02*
D03*
X750000Y937500D02*
D03*
X850000D02*
D03*
D40*
X1330000Y1240400D02*
D03*
X280000D02*
D03*
D41*
X1330000Y1319600D02*
D03*
X280000D02*
D03*
D42*
X250000Y1017500D02*
D03*
D43*
X1285000Y960000D02*
D03*
D44*
X1235000D02*
D03*
D45*
X825122Y1238814D02*
D03*
X774877Y1261185D02*
D03*
X365000Y1017500D02*
D03*
Y967500D02*
D03*
D46*
X412500Y270000D02*
D03*
D47*
X968600Y1424750D02*
D03*
X1060000D02*
D03*
X1151400D02*
D03*
D48*
X620000Y1375500D02*
D03*
X550000D02*
D03*
X480000D02*
D03*
D49*
X1127500Y872500D02*
D03*
Y890000D02*
D03*
Y907500D02*
D03*
X302500Y852500D02*
D03*
X315000Y897500D02*
D03*
X1132000Y362000D02*
D03*
X1114000D02*
D03*
X1122500Y352500D02*
D03*
X1113000Y390000D02*
D03*
X1132000D02*
D03*
Y376000D02*
D03*
X1113000D02*
D03*
X671000Y867000D02*
D03*
Y848000D02*
D03*
X657000Y867000D02*
D03*
Y848000D02*
D03*
X677000Y857500D02*
D03*
X651158D02*
D03*
X302500Y865000D02*
D03*
X307500Y842500D02*
D03*
X331000Y862000D02*
D03*
X336000Y843000D02*
D03*
X842000Y510000D02*
D03*
X850000Y491000D02*
D03*
X977500Y332500D02*
D03*
X987500Y310000D02*
D03*
X972500D02*
D03*
X947500D02*
D03*
X942500Y332500D02*
D03*
X957500D02*
D03*
X995000Y320000D02*
D03*
X890000Y290000D02*
D03*
X922500D02*
D03*
X927500Y320000D02*
D03*
X809999Y500000D02*
D03*
X762500Y550000D02*
D03*
X770000Y565000D02*
D03*
X787500D02*
D03*
Y550000D02*
D03*
X337500Y852500D02*
D03*
X532500Y312500D02*
D03*
Y287500D02*
D03*
X825000Y482000D02*
D03*
X800000Y247500D02*
D03*
X820000Y455000D02*
D03*
X1232500Y312500D02*
D03*
X880000Y557500D02*
D03*
X775000Y597500D02*
D03*
X735000Y507500D02*
D03*
X710000Y497500D02*
D03*
X760000Y492500D02*
D03*
X532500Y367500D02*
D03*
X432500Y860000D02*
D03*
Y902500D02*
D03*
X532500Y977500D02*
D03*
Y990000D02*
D03*
X1230000Y247500D02*
D03*
X1230000Y400000D02*
D03*
Y550000D02*
D03*
X1230000Y700000D02*
D03*
X522500Y917500D02*
D03*
X385000Y875000D02*
D03*
X432500Y892500D02*
D03*
Y850000D02*
D03*
X385000Y832500D02*
D03*
X342500Y837500D02*
D03*
X502500Y990000D02*
D03*
Y977500D02*
D03*
X907500Y582500D02*
D03*
Y485000D02*
D03*
X827500Y402500D02*
D03*
X810000D02*
D03*
X730000Y397500D02*
D03*
X755000Y630000D02*
D03*
X450000Y490000D02*
D03*
X507500Y355000D02*
D03*
X452500Y340000D02*
D03*
X587500Y320000D02*
D03*
X1290000Y377500D02*
D03*
X1240000D02*
D03*
Y527500D02*
D03*
X1290000D02*
D03*
X1240000Y677500D02*
D03*
X1290000D02*
D03*
X1240000Y827500D02*
D03*
X1290000D02*
D03*
X980000Y268650D02*
D03*
X755000Y415000D02*
D03*
X1162500Y930000D02*
D03*
X925000Y547500D02*
D03*
X452500Y385000D02*
D03*
X355000Y867500D02*
D03*
X270000Y247500D02*
D03*
X227500Y290000D02*
D03*
Y650000D02*
D03*
Y1042500D02*
D03*
X1372500D02*
D03*
Y290000D02*
D03*
X1330000Y247500D02*
D03*
X1372500Y650000D02*
D03*
X800000Y1042500D02*
D03*
X400000Y412500D02*
D03*
X407500Y512500D02*
D03*
X445000Y395000D02*
D03*
X607500Y340000D02*
D03*
X260000Y925000D02*
D03*
X876000Y479000D02*
D03*
X848000Y427000D02*
D03*
X854000Y443000D02*
D03*
X853000Y460000D02*
D03*
X722500Y635000D02*
D03*
Y625000D02*
D03*
M02*
