G04*
G04 #@! TF.GenerationSoftware,Altium Limited,CircuitStudio,1.5.2 (30)*
G04*
G04 Layer_Physical_Order=1*
G04 Layer_Color=255*
%FSLAX44Y44*%
%MOMM*%
G71*
G01*
G75*
%ADD10C,0.2540*%
%ADD11R,0.9000X0.6000*%
%ADD12R,2.6000X1.4000*%
%ADD13R,0.8000X0.8000*%
%ADD14R,0.6000X0.9000*%
%ADD15R,0.8000X0.8000*%
%ADD16R,1.3000X0.9000*%
%ADD17R,2.1590X1.7780*%
%ADD18R,0.6000X0.6000*%
%ADD19R,1.7000X0.8000*%
%ADD20R,0.4500X1.4500*%
%ADD21R,0.6000X0.6000*%
G04:AMPARAMS|DCode=22|XSize=1.1mm|YSize=0.6mm|CornerRadius=0.075mm|HoleSize=0mm|Usage=FLASHONLY|Rotation=0.000|XOffset=0mm|YOffset=0mm|HoleType=Round|Shape=RoundedRectangle|*
%AMROUNDEDRECTD22*
21,1,1.1000,0.4500,0,0,0.0*
21,1,0.9500,0.6000,0,0,0.0*
1,1,0.1500,0.4750,-0.2250*
1,1,0.1500,-0.4750,-0.2250*
1,1,0.1500,-0.4750,0.2250*
1,1,0.1500,0.4750,0.2250*
%
%ADD22ROUNDEDRECTD22*%
%ADD23C,0.7874*%
%ADD24R,0.9000X1.3000*%
%ADD25R,0.3000X1.2000*%
%ADD26R,1.2000X0.3000*%
%ADD27C,0.7000*%
%ADD28C,0.5000*%
%ADD29C,2.0000*%
%ADD30C,0.4000*%
%ADD31C,1.0000*%
%ADD32C,6.0000*%
%ADD33C,5.0000*%
%ADD34O,1.8000X1.5300*%
%ADD35R,1.8000X1.5300*%
%ADD36C,1.5000*%
%ADD37C,1.9500*%
%ADD38C,1.8000*%
%ADD39C,2.4750*%
%ADD40R,2.4750X2.4750*%
%ADD41R,1.5000X1.5000*%
%ADD42R,1.2750X1.2750*%
%ADD43C,1.2750*%
%ADD44C,1.3500*%
%ADD45R,1.5000X1.5000*%
%ADD46C,2.4000*%
%ADD47C,2.5500*%
%ADD48C,0.6000*%
G36*
X1375988Y275000D02*
X1375996Y274894D01*
X1375943Y273128D01*
X1375773Y271264D01*
X1375491Y269412D01*
X1375098Y267581D01*
X1374595Y265778D01*
X1373985Y264007D01*
X1373268Y262278D01*
X1372448Y260594D01*
X1371528Y258963D01*
X1370512Y257390D01*
X1369402Y255882D01*
X1368203Y254444D01*
X1366920Y253080D01*
X1365556Y251797D01*
X1364118Y250598D01*
X1362610Y249488D01*
X1361037Y248472D01*
X1359406Y247552D01*
X1357722Y246732D01*
X1355992Y246015D01*
X1354222Y245404D01*
X1352419Y244902D01*
X1350588Y244509D01*
X1348737Y244227D01*
X1346872Y244057D01*
X1345106Y244004D01*
X1345000Y244012D01*
X255000D01*
X254894Y244004D01*
X253128Y244057D01*
X251264Y244227D01*
X249412Y244509D01*
X247581Y244902D01*
X245778Y245404D01*
X244007Y246015D01*
X242278Y246732D01*
X240594Y247552D01*
X238963Y248472D01*
X237390Y249488D01*
X235882Y250598D01*
X234444Y251797D01*
X233080Y253080D01*
X231797Y254444D01*
X230598Y255882D01*
X229488Y257390D01*
X228472Y258963D01*
X227552Y260594D01*
X226732Y262278D01*
X226015Y264007D01*
X225404Y265778D01*
X224902Y267581D01*
X224509Y269412D01*
X224227Y271264D01*
X224057Y273128D01*
X224004Y274894D01*
X224012Y275000D01*
Y1047500D01*
X1375988D01*
Y275000D01*
D02*
G37*
%LPC*%
G36*
X729040Y504040D02*
X723770D01*
Y498770D01*
X729040D01*
Y504040D01*
D02*
G37*
G36*
X721230D02*
X715960D01*
Y498770D01*
X721230D01*
Y504040D01*
D02*
G37*
G36*
X414540Y498730D02*
X410270D01*
Y494460D01*
X414540D01*
Y498730D01*
D02*
G37*
G36*
X407730Y505540D02*
X403460D01*
Y501270D01*
X407730D01*
Y505540D01*
D02*
G37*
G36*
X919540Y556540D02*
X913770D01*
Y548770D01*
X919540D01*
Y556540D01*
D02*
G37*
G36*
X911230D02*
X905460D01*
Y548770D01*
X911230D01*
Y556540D01*
D02*
G37*
G36*
X414540Y505540D02*
X410270D01*
Y501270D01*
X414540D01*
Y505540D01*
D02*
G37*
G36*
X448730Y476230D02*
X442960D01*
Y471960D01*
X448730D01*
Y476230D01*
D02*
G37*
G36*
X1108850Y450502D02*
X1108770D01*
Y441570D01*
X1118963D01*
X1118856Y442290D01*
X1118613Y443262D01*
X1118276Y444204D01*
X1117848Y445109D01*
X1117333Y445968D01*
X1116737Y446772D01*
X1116064Y447514D01*
X1115322Y448186D01*
X1114518Y448783D01*
X1113659Y449298D01*
X1112754Y449726D01*
X1111812Y450063D01*
X1110840Y450306D01*
X1109850Y450453D01*
X1108850Y450502D01*
D02*
G37*
G36*
X1106230D02*
X1106150D01*
X1105150Y450453D01*
X1104160Y450306D01*
X1103188Y450063D01*
X1102246Y449726D01*
X1101341Y449298D01*
X1100482Y448783D01*
X1099678Y448186D01*
X1098936Y447514D01*
X1098263Y446772D01*
X1097667Y445968D01*
X1097152Y445109D01*
X1096724Y444204D01*
X1096387Y443262D01*
X1096144Y442290D01*
X1096037Y441570D01*
X1106230D01*
Y450502D01*
D02*
G37*
G36*
X457040Y476230D02*
X451270D01*
Y471960D01*
X457040D01*
Y476230D01*
D02*
G37*
G36*
X407730Y498730D02*
X403460D01*
Y494460D01*
X407730D01*
Y498730D01*
D02*
G37*
G36*
X457040Y483040D02*
X451270D01*
Y478770D01*
X457040D01*
Y483040D01*
D02*
G37*
G36*
X448730D02*
X442960D01*
Y478770D01*
X448730D01*
Y483040D01*
D02*
G37*
G36*
X300000Y818304D02*
X298564Y818248D01*
X297137Y818079D01*
X295727Y817798D01*
X294344Y817408D01*
X292995Y816911D01*
X291690Y816309D01*
X290436Y815607D01*
X289241Y814808D01*
X288112Y813919D01*
X287057Y812943D01*
X286081Y811888D01*
X285192Y810759D01*
X284393Y809564D01*
X283691Y808310D01*
X283089Y807005D01*
X282592Y805656D01*
X282202Y804273D01*
X281921Y802863D01*
X281752Y801436D01*
X281696Y800000D01*
X281752Y798564D01*
X281921Y797137D01*
X282202Y795727D01*
X282592Y794344D01*
X283089Y792995D01*
X283691Y791690D01*
X284393Y790436D01*
X285192Y789241D01*
X286081Y788112D01*
X287057Y787057D01*
X288112Y786081D01*
X289241Y785192D01*
X290436Y784393D01*
X291690Y783691D01*
X292995Y783089D01*
X294344Y782592D01*
X295727Y782202D01*
X297137Y781921D01*
X298564Y781752D01*
X300000Y781696D01*
X301436Y781752D01*
X302863Y781921D01*
X304273Y782202D01*
X305656Y782592D01*
X307005Y783089D01*
X308310Y783691D01*
X309564Y784393D01*
X310759Y785192D01*
X311887Y786081D01*
X312943Y787057D01*
X313918Y788112D01*
X314808Y789241D01*
X315607Y790436D01*
X316309Y791690D01*
X316911Y792995D01*
X317408Y794344D01*
X317798Y795727D01*
X318079Y797137D01*
X318248Y798564D01*
X318304Y800000D01*
X318248Y801436D01*
X318079Y802863D01*
X317798Y804273D01*
X317408Y805656D01*
X316911Y807005D01*
X316309Y808310D01*
X315607Y809564D01*
X314808Y810759D01*
X313918Y811888D01*
X312943Y812943D01*
X311887Y813919D01*
X310759Y814808D01*
X309564Y815607D01*
X308310Y816309D01*
X307005Y816911D01*
X305656Y817408D01*
X304273Y817798D01*
X302863Y818079D01*
X301436Y818248D01*
X300000Y818304D01*
D02*
G37*
G36*
X747020Y640620D02*
X739250D01*
Y634850D01*
X747020D01*
Y640620D01*
D02*
G37*
G36*
X736710D02*
X728940D01*
Y634850D01*
X736710D01*
Y640620D01*
D02*
G37*
G36*
X1060800Y818304D02*
X1059364Y818248D01*
X1057937Y818079D01*
X1056527Y817798D01*
X1055144Y817408D01*
X1053795Y816911D01*
X1052490Y816309D01*
X1051236Y815607D01*
X1050041Y814808D01*
X1048912Y813919D01*
X1047857Y812943D01*
X1046881Y811888D01*
X1045992Y810759D01*
X1045193Y809564D01*
X1044491Y808310D01*
X1043889Y807005D01*
X1043392Y805656D01*
X1043002Y804273D01*
X1042721Y802863D01*
X1042552Y801436D01*
X1042496Y800000D01*
X1042552Y798564D01*
X1042721Y797137D01*
X1043002Y795727D01*
X1043392Y794344D01*
X1043889Y792995D01*
X1044491Y791690D01*
X1045193Y790436D01*
X1045992Y789241D01*
X1046881Y788112D01*
X1047857Y787057D01*
X1048912Y786081D01*
X1050041Y785192D01*
X1051236Y784393D01*
X1052490Y783691D01*
X1053795Y783089D01*
X1055144Y782592D01*
X1056527Y782202D01*
X1057937Y781921D01*
X1059364Y781752D01*
X1060800Y781696D01*
X1062236Y781752D01*
X1063663Y781921D01*
X1065073Y782202D01*
X1066456Y782592D01*
X1067805Y783089D01*
X1069110Y783691D01*
X1070364Y784393D01*
X1071559Y785192D01*
X1072688Y786081D01*
X1073743Y787057D01*
X1074718Y788112D01*
X1075608Y789241D01*
X1076407Y790436D01*
X1077109Y791690D01*
X1077711Y792995D01*
X1078208Y794344D01*
X1078598Y795727D01*
X1078879Y797137D01*
X1079048Y798564D01*
X1079104Y800000D01*
X1079048Y801436D01*
X1078879Y802863D01*
X1078598Y804273D01*
X1078208Y805656D01*
X1077711Y807005D01*
X1077109Y808310D01*
X1076407Y809564D01*
X1075608Y810759D01*
X1074718Y811888D01*
X1073743Y812943D01*
X1072688Y813919D01*
X1071559Y814808D01*
X1070364Y815607D01*
X1069110Y816309D01*
X1067805Y816911D01*
X1066456Y817408D01*
X1065073Y817798D01*
X1063663Y818079D01*
X1062236Y818248D01*
X1060800Y818304D01*
D02*
G37*
G36*
X1310730Y826230D02*
X1296460D01*
Y817960D01*
X1310730D01*
Y826230D01*
D02*
G37*
G36*
X1233540D02*
X1219270D01*
Y817960D01*
X1233540D01*
Y826230D01*
D02*
G37*
G36*
X1216730D02*
X1202460D01*
Y817960D01*
X1216730D01*
Y826230D01*
D02*
G37*
G36*
X908770Y576540D02*
Y571270D01*
X914040D01*
Y576540D01*
X908770D01*
D02*
G37*
G36*
X914040Y568730D02*
X908770D01*
Y563460D01*
X914040D01*
Y568730D01*
D02*
G37*
G36*
X260040Y1027540D02*
X239960D01*
Y1007460D01*
X260040D01*
Y1012449D01*
X282908D01*
X317449Y977908D01*
Y845000D01*
X317492Y844341D01*
X317621Y843693D01*
X317834Y843067D01*
X318126Y842475D01*
X318493Y841925D01*
X318929Y841429D01*
X376428Y783929D01*
X376925Y783493D01*
X377475Y783126D01*
X378067Y782834D01*
X378693Y782621D01*
X379341Y782492D01*
X380000Y782449D01*
X440000D01*
X440659Y782492D01*
X441307Y782621D01*
X441933Y782834D01*
X442525Y783126D01*
X443075Y783493D01*
X443572Y783929D01*
X453072Y793428D01*
X453507Y793925D01*
X453874Y794475D01*
X454166Y795067D01*
X454379Y795693D01*
X454508Y796341D01*
X454551Y797000D01*
Y826822D01*
X455085Y827142D01*
X455877Y827730D01*
X456608Y828392D01*
X457270Y829123D01*
X457511Y829447D01*
X511947D01*
Y809500D01*
X511999Y808710D01*
X512153Y807933D01*
X512343Y807374D01*
X512408Y807184D01*
X512758Y806473D01*
X513198Y805815D01*
X513720Y805220D01*
X708640Y610300D01*
X709235Y609778D01*
X709893Y609338D01*
X710604Y608988D01*
X710794Y608923D01*
X711353Y608733D01*
X712130Y608579D01*
X712920Y608527D01*
X728940D01*
Y607540D01*
X732447D01*
Y586500D01*
X732499Y585710D01*
X732653Y584933D01*
X732843Y584374D01*
X732908Y584184D01*
X733258Y583474D01*
X733698Y582815D01*
X734220Y582220D01*
X747553Y568887D01*
X746581Y566540D01*
X738960D01*
Y561540D01*
Y561322D01*
X726583D01*
X615202Y672702D01*
X614746Y673092D01*
X614235Y673405D01*
X613958Y673520D01*
X613681Y673635D01*
X613098Y673775D01*
X612500Y673822D01*
X481583D01*
X313822Y841583D01*
Y862500D01*
X313775Y863098D01*
X313635Y863681D01*
X313405Y864235D01*
X313092Y864746D01*
X312702Y865202D01*
X295202Y882702D01*
X294746Y883092D01*
X294235Y883405D01*
X293958Y883520D01*
X293681Y883635D01*
X293098Y883775D01*
X292500Y883822D01*
X247040D01*
Y885540D01*
X232960D01*
Y874460D01*
X247040D01*
Y876178D01*
X290917D01*
X306178Y860917D01*
Y840000D01*
X306225Y839402D01*
X306365Y838819D01*
X306480Y838542D01*
X306595Y838265D01*
X306908Y837754D01*
X307298Y837298D01*
X477298Y667298D01*
X477754Y666908D01*
X478265Y666595D01*
X478427Y666528D01*
X478819Y666365D01*
X479402Y666225D01*
X480000Y666178D01*
X610917D01*
X718427Y558668D01*
X717455Y556322D01*
X556583D01*
X492102Y620802D01*
X491646Y621192D01*
X491135Y621505D01*
X490858Y621620D01*
X490581Y621735D01*
X489998Y621875D01*
X489400Y621922D01*
X305805D01*
X305776Y622004D01*
X305348Y622909D01*
X304833Y623768D01*
X304237Y624572D01*
X303564Y625314D01*
X302822Y625987D01*
X302018Y626583D01*
X301159Y627098D01*
X300254Y627526D01*
X299312Y627863D01*
X298340Y628106D01*
X297350Y628253D01*
X296350Y628302D01*
X293650D01*
X292650Y628253D01*
X291660Y628106D01*
X290688Y627863D01*
X289746Y627526D01*
X288841Y627098D01*
X287982Y626583D01*
X287178Y625987D01*
X286436Y625314D01*
X285763Y624572D01*
X285167Y623768D01*
X284652Y622909D01*
X284224Y622004D01*
X284195Y621922D01*
X259696D01*
X259687Y621947D01*
X259265Y622839D01*
X258758Y623685D01*
X258170Y624477D01*
X257508Y625208D01*
X256777Y625870D01*
X255985Y626458D01*
X255138Y626965D01*
X254247Y627387D01*
X253318Y627719D01*
X252361Y627959D01*
X251385Y628104D01*
X250400Y628152D01*
X249415Y628104D01*
X248439Y627959D01*
X247482Y627719D01*
X246553Y627387D01*
X245662Y626965D01*
X244815Y626458D01*
X244023Y625870D01*
X243593Y625481D01*
X242460Y625695D01*
X241053Y626520D01*
Y637493D01*
X256780Y653220D01*
X257302Y653815D01*
X257596Y654255D01*
X257742Y654473D01*
X258092Y655184D01*
X258347Y655933D01*
X258372Y656062D01*
X258501Y656710D01*
X258553Y657500D01*
Y812493D01*
X288616Y842555D01*
X289015Y842496D01*
X290000Y842448D01*
X290985Y842496D01*
X291961Y842641D01*
X292918Y842881D01*
X293847Y843213D01*
X294739Y843635D01*
X295585Y844142D01*
X296377Y844730D01*
X297108Y845392D01*
X297770Y846123D01*
X298358Y846915D01*
X298865Y847762D01*
X299287Y848653D01*
X299619Y849582D01*
X299859Y850539D01*
X300004Y851515D01*
X300052Y852500D01*
X300004Y853485D01*
X299859Y854461D01*
X299619Y855418D01*
X299287Y856347D01*
X298865Y857238D01*
X298358Y858085D01*
X297770Y858877D01*
X297108Y859608D01*
X296377Y860270D01*
X295585Y860858D01*
X294739Y861365D01*
X293847Y861787D01*
X292918Y862119D01*
X291961Y862359D01*
X290985Y862504D01*
X290000Y862552D01*
X289015Y862504D01*
X288039Y862359D01*
X287082Y862119D01*
X286153Y861787D01*
X285261Y861365D01*
X284415Y860858D01*
X283623Y860270D01*
X282892Y859608D01*
X282230Y858877D01*
X281642Y858085D01*
X281135Y857238D01*
X280713Y856347D01*
X280381Y855418D01*
X280141Y854461D01*
X279996Y853485D01*
X279948Y852500D01*
X279996Y851515D01*
X280056Y851116D01*
X248220Y819280D01*
X247698Y818685D01*
X247258Y818027D01*
X246908Y817316D01*
X246781Y816942D01*
X246653Y816567D01*
X246499Y815790D01*
X246447Y815000D01*
Y660007D01*
X230720Y644280D01*
X230198Y643685D01*
X229758Y643027D01*
X229583Y642671D01*
X229408Y642316D01*
X229343Y642126D01*
X229153Y641567D01*
X228999Y640790D01*
X228947Y640000D01*
Y507500D01*
X228999Y506710D01*
X229153Y505933D01*
X229343Y505374D01*
X229408Y505184D01*
X229758Y504473D01*
X230198Y503815D01*
X230720Y503220D01*
X249470Y484470D01*
X250065Y483948D01*
X250723Y483508D01*
X251434Y483158D01*
X252183Y482903D01*
X252960Y482749D01*
X253750Y482697D01*
X331243D01*
X376447Y437493D01*
Y262500D01*
X376499Y261710D01*
X376653Y260933D01*
X376781Y260558D01*
X376908Y260184D01*
X377083Y259829D01*
X377258Y259473D01*
X377698Y258815D01*
X378220Y258220D01*
X385720Y250720D01*
X386315Y250198D01*
X386973Y249758D01*
X387684Y249408D01*
X387874Y249343D01*
X388433Y249153D01*
X389210Y248999D01*
X390000Y248947D01*
X525000D01*
X525790Y248999D01*
X526567Y249153D01*
X526941Y249281D01*
X527316Y249408D01*
X527671Y249583D01*
X528027Y249758D01*
X528685Y250198D01*
X529280Y250720D01*
X536780Y258220D01*
X537302Y258815D01*
X537742Y259473D01*
X538092Y260184D01*
X538157Y260374D01*
X538347Y260933D01*
X538501Y261710D01*
X538553Y262500D01*
Y287500D01*
X538501Y288290D01*
X538347Y289067D01*
X538092Y289816D01*
X537742Y290527D01*
X537302Y291185D01*
X536780Y291780D01*
X536185Y292302D01*
X536025Y292409D01*
X536341Y294258D01*
X536712Y294949D01*
X566491D01*
X575720Y285720D01*
X576315Y285198D01*
X576973Y284758D01*
X577684Y284408D01*
X577874Y284343D01*
X578433Y284153D01*
X579210Y283999D01*
X580000Y283947D01*
X890000D01*
X890790Y283999D01*
X891567Y284153D01*
X892316Y284408D01*
X893027Y284758D01*
X893685Y285198D01*
X894280Y285720D01*
X894802Y286315D01*
X895242Y286973D01*
X895592Y287684D01*
X895847Y288433D01*
X896001Y289210D01*
X896053Y290000D01*
X896001Y290790D01*
X895847Y291567D01*
X895592Y292316D01*
X895242Y293027D01*
X894802Y293685D01*
X894280Y294280D01*
X893685Y294802D01*
X893027Y295242D01*
X892316Y295592D01*
X891567Y295847D01*
X890790Y296001D01*
X890000Y296053D01*
X582507D01*
X576053Y302507D01*
Y312500D01*
X576001Y313290D01*
X575847Y314067D01*
X575592Y314816D01*
X575242Y315527D01*
X575051Y315813D01*
Y320000D01*
X575051Y320000D01*
Y324460D01*
X577040D01*
Y335540D01*
X562960D01*
Y324460D01*
X564949D01*
Y316250D01*
X564949Y316250D01*
Y315813D01*
X564758Y315527D01*
X564408Y314816D01*
X564153Y314067D01*
X563999Y313290D01*
X563947Y312500D01*
Y305051D01*
X536712D01*
X536341Y305742D01*
X536025Y307591D01*
X536185Y307698D01*
X536780Y308220D01*
X537302Y308815D01*
X537742Y309473D01*
X538092Y310184D01*
X538347Y310933D01*
X538501Y311710D01*
X538553Y312500D01*
Y337850D01*
X538832Y338385D01*
X538968Y338541D01*
X540750Y339950D01*
X550250D01*
X550766Y339991D01*
X551270Y340111D01*
X551748Y340309D01*
X552190Y340580D01*
X552584Y340916D01*
X552920Y341310D01*
X553145Y341678D01*
X562960D01*
Y339460D01*
X577040D01*
Y341678D01*
X580460D01*
Y339460D01*
X594540D01*
Y350540D01*
X580460D01*
Y349322D01*
X577040D01*
Y350540D01*
X573822D01*
Y354460D01*
X577040D01*
Y365540D01*
X562960D01*
Y354460D01*
X566178D01*
Y350540D01*
X562960D01*
Y349322D01*
X553145D01*
X552920Y349690D01*
X552584Y350084D01*
X552190Y350420D01*
X551748Y350690D01*
X551270Y350889D01*
X550766Y351010D01*
X550250Y351050D01*
X547547D01*
X546495Y353590D01*
X547702Y354798D01*
X548092Y355254D01*
X548405Y355765D01*
X548472Y355927D01*
X548635Y356319D01*
X548775Y356902D01*
X548822Y357500D01*
Y358950D01*
X550250D01*
X550766Y358991D01*
X551270Y359111D01*
X551748Y359310D01*
X552190Y359580D01*
X552584Y359916D01*
X552920Y360310D01*
X553190Y360752D01*
X553389Y361230D01*
X553509Y361734D01*
X553550Y362250D01*
Y366750D01*
X553509Y367266D01*
X553389Y367770D01*
X553190Y368248D01*
X552920Y368690D01*
X552584Y369084D01*
X552190Y369420D01*
X551748Y369691D01*
X551270Y369889D01*
X550766Y370010D01*
X550551Y370027D01*
Y373460D01*
X551540D01*
Y386178D01*
X563417D01*
X566178Y383417D01*
Y380540D01*
X562960D01*
Y369460D01*
X577040D01*
Y371178D01*
X580460D01*
Y369460D01*
X594540D01*
Y380540D01*
X580460D01*
Y378822D01*
X577040D01*
Y380540D01*
X573822D01*
Y385000D01*
X573775Y385598D01*
X573635Y386181D01*
X573520Y386458D01*
X573405Y386735D01*
X573092Y387246D01*
X572702Y387702D01*
X567702Y392702D01*
X567246Y393092D01*
X566735Y393405D01*
X566458Y393520D01*
X566181Y393635D01*
X565598Y393775D01*
X565000Y393822D01*
X525000D01*
X524402Y393775D01*
X523819Y393635D01*
X523265Y393405D01*
X522754Y393092D01*
X522298Y392702D01*
X516798Y387202D01*
X516408Y386746D01*
X516095Y386235D01*
X515980Y385958D01*
X515865Y385681D01*
X515725Y385098D01*
X515678Y384500D01*
Y370050D01*
X514750D01*
X514234Y370010D01*
X513730Y369889D01*
X513252Y369691D01*
X512810Y369420D01*
X512416Y369084D01*
X512080Y368690D01*
X511810Y368248D01*
X511611Y367770D01*
X511491Y367266D01*
X511450Y366750D01*
Y362250D01*
X511491Y361734D01*
X511611Y361230D01*
X511810Y360752D01*
X512080Y360310D01*
X512416Y359916D01*
Y359584D01*
X512080Y359190D01*
X511810Y358748D01*
X511611Y358270D01*
X511491Y357766D01*
X511450Y357250D01*
Y356270D01*
X519500D01*
Y353730D01*
X511450D01*
Y352750D01*
X511491Y352234D01*
X511611Y351730D01*
X511810Y351252D01*
X511197Y349741D01*
X510438Y348822D01*
X502040D01*
Y350540D01*
X487960D01*
Y339460D01*
X491178D01*
Y321796D01*
X491153Y321787D01*
X490261Y321365D01*
X489415Y320858D01*
X488623Y320270D01*
X487892Y319608D01*
X487230Y318877D01*
X486642Y318085D01*
X486135Y317239D01*
X485713Y316347D01*
X485381Y315418D01*
X485141Y314461D01*
X484996Y313485D01*
X484948Y312500D01*
X484996Y311515D01*
X485141Y310539D01*
X485381Y309582D01*
X485713Y308653D01*
X486135Y307761D01*
X486642Y306915D01*
X487230Y306123D01*
X487892Y305392D01*
X488623Y304730D01*
X489415Y304142D01*
X490261Y303635D01*
X491153Y303213D01*
X491178Y303204D01*
Y294040D01*
X488460D01*
Y280960D01*
X500920D01*
X501540Y280960D01*
X502500D01*
X503460D01*
X504080Y280960D01*
X516540D01*
Y294040D01*
X518703Y294949D01*
X528288D01*
X528659Y294258D01*
X528975Y292409D01*
X528815Y292302D01*
X528220Y291780D01*
X527698Y291185D01*
X527258Y290527D01*
X526908Y289816D01*
X526653Y289067D01*
X526499Y288290D01*
X526447Y287500D01*
Y265007D01*
X522493Y261053D01*
X446334D01*
X446122Y261278D01*
X445243Y263593D01*
X445270Y263623D01*
X445858Y264415D01*
X446365Y265261D01*
X446787Y266153D01*
X447119Y267082D01*
X447359Y268039D01*
X447504Y269015D01*
X447552Y270000D01*
X447504Y270985D01*
X447359Y271961D01*
X447119Y272918D01*
X446787Y273847D01*
X446365Y274739D01*
X445858Y275585D01*
X445270Y276377D01*
X444608Y277108D01*
X443877Y277770D01*
X443085Y278358D01*
X442239Y278865D01*
X441347Y279287D01*
X441322Y279296D01*
Y314460D01*
X444540D01*
Y325540D01*
X430460D01*
Y314460D01*
X433678D01*
Y279296D01*
X433653Y279287D01*
X432761Y278865D01*
X431915Y278358D01*
X431123Y277770D01*
X430392Y277108D01*
X429730Y276377D01*
X429142Y275585D01*
X428635Y274739D01*
X428213Y273847D01*
X427881Y272918D01*
X427641Y271961D01*
X427496Y270985D01*
X427448Y270000D01*
X427496Y269015D01*
X427641Y268039D01*
X427881Y267082D01*
X428213Y266153D01*
X428635Y265261D01*
X429142Y264415D01*
X429730Y263623D01*
X429757Y263593D01*
X428878Y261278D01*
X428666Y261053D01*
X422540D01*
Y280040D01*
X416322D01*
Y314460D01*
X419540D01*
Y325540D01*
X405460D01*
Y314460D01*
X408678D01*
Y280040D01*
X402460D01*
Y261053D01*
X392507D01*
X388553Y265007D01*
Y345639D01*
X390960Y345960D01*
Y345960D01*
X404040D01*
Y345960D01*
X405960D01*
Y345960D01*
X408678D01*
Y340540D01*
X405460D01*
Y329460D01*
X419540D01*
Y340540D01*
X416322D01*
Y345960D01*
X419040D01*
Y359040D01*
X416322D01*
Y365460D01*
X418040D01*
Y368678D01*
X420000D01*
X420598Y368725D01*
X421181Y368865D01*
X421458Y368980D01*
X421735Y369095D01*
X422246Y369408D01*
X422702Y369798D01*
X423242Y370337D01*
X425000Y371260D01*
X426758Y370337D01*
X427298Y369798D01*
X427754Y369408D01*
X428265Y369095D01*
X428427Y369028D01*
X428819Y368865D01*
X429402Y368725D01*
X430000Y368678D01*
X431960D01*
Y365460D01*
X433678D01*
Y359040D01*
X430960D01*
Y345960D01*
X433678D01*
Y340540D01*
X430460D01*
Y329460D01*
X444540D01*
Y340540D01*
X441322D01*
Y344164D01*
X442579Y345421D01*
X443862Y345960D01*
X444040D01*
X445000D01*
X445960D01*
X446580Y345960D01*
X451230D01*
Y352500D01*
Y359040D01*
X446580D01*
X445960Y359040D01*
X445000D01*
X444040D01*
X443862D01*
X441322Y360107D01*
Y365460D01*
X443040D01*
Y379540D01*
X432072D01*
Y385710D01*
X433480D01*
Y395500D01*
Y405290D01*
X419072D01*
Y408667D01*
X424083Y413678D01*
X430000D01*
X430598Y413725D01*
X431181Y413865D01*
X431458Y413980D01*
X431735Y414095D01*
X432246Y414408D01*
X432702Y414798D01*
X437452Y419548D01*
X437842Y420004D01*
X438155Y420515D01*
X438222Y420677D01*
X438385Y421069D01*
X438525Y421652D01*
X438572Y422250D01*
Y429710D01*
X439540D01*
Y449290D01*
X435513D01*
X434541Y451637D01*
X435202Y452298D01*
X435592Y452754D01*
X435905Y453265D01*
X436020Y453542D01*
X436135Y453819D01*
X436275Y454402D01*
X436322Y455000D01*
Y455460D01*
X438040D01*
Y458678D01*
X442960D01*
Y456960D01*
X457040D01*
Y468040D01*
X442960D01*
Y466322D01*
X438040D01*
Y469540D01*
X426960D01*
Y455460D01*
X426960Y455460D01*
X426960D01*
X425149Y453818D01*
X425000Y453740D01*
X424820Y453834D01*
X423040Y455460D01*
X423040D01*
X423040Y455460D01*
Y469540D01*
X421322D01*
Y472960D01*
X423040D01*
Y487040D01*
X411960D01*
Y472960D01*
X413678D01*
Y469540D01*
X411960D01*
Y455460D01*
X413678D01*
Y455000D01*
X413725Y454402D01*
X413865Y453819D01*
X413980Y453542D01*
X414095Y453265D01*
X414408Y452754D01*
X414798Y452298D01*
X415458Y451637D01*
X414487Y449290D01*
X410460D01*
Y444554D01*
X406540D01*
Y446540D01*
X393460D01*
Y446053D01*
X385007D01*
X338030Y493030D01*
X337435Y493552D01*
X336777Y493992D01*
X336066Y494342D01*
X335876Y494407D01*
X335317Y494597D01*
X334540Y494751D01*
X333750Y494803D01*
X256257D01*
X241053Y510007D01*
Y533480D01*
X242460Y534305D01*
X243593Y534519D01*
X244023Y534130D01*
X244815Y533542D01*
X245662Y533035D01*
X246553Y532613D01*
X247482Y532281D01*
X248439Y532041D01*
X249415Y531896D01*
X250400Y531848D01*
X251385Y531896D01*
X252361Y532041D01*
X253318Y532281D01*
X254247Y532613D01*
X255138Y533035D01*
X255985Y533542D01*
X256777Y534130D01*
X257508Y534792D01*
X258170Y535523D01*
X258758Y536315D01*
X259265Y537161D01*
X259687Y538053D01*
X259696Y538078D01*
X283460D01*
Y531710D01*
X306540D01*
Y538078D01*
X484017D01*
X507298Y514798D01*
X507753Y514408D01*
X508265Y514095D01*
X508542Y513980D01*
X508819Y513865D01*
X509402Y513725D01*
X510000Y513678D01*
X738960D01*
Y513460D01*
Y508460D01*
Y508460D01*
X747500D01*
X756040D01*
Y508460D01*
Y513460D01*
Y518460D01*
Y523460D01*
Y528460D01*
Y528678D01*
X763417D01*
X793502Y498593D01*
X792450Y496053D01*
X772500D01*
X771710Y496001D01*
X770933Y495847D01*
X770184Y495592D01*
X769473Y495242D01*
X769079Y494978D01*
X768815Y494802D01*
X768220Y494280D01*
X758580Y484640D01*
X756040Y485692D01*
Y488460D01*
Y491541D01*
X747500D01*
Y493460D01*
X756040D01*
Y493460D01*
Y498460D01*
Y503460D01*
Y506541D01*
X747500D01*
X738960D01*
Y503460D01*
Y498460D01*
Y493460D01*
Y491540D01*
Y491322D01*
X735000D01*
X734402Y491275D01*
X733819Y491135D01*
X733265Y490905D01*
X732754Y490592D01*
X732298Y490202D01*
X731580Y489485D01*
X730238Y489757D01*
X729040Y490537D01*
Y490960D01*
X729040Y491580D01*
Y496230D01*
X722500D01*
X715960D01*
Y491580D01*
X715960Y490960D01*
Y490000D01*
Y489040D01*
X715960Y488420D01*
Y475960D01*
X717449D01*
Y472500D01*
X717492Y471841D01*
X717621Y471193D01*
X717834Y470567D01*
X718126Y469975D01*
X718493Y469425D01*
X718929Y468928D01*
X724086Y463771D01*
X724153Y463433D01*
X724408Y462684D01*
X724758Y461973D01*
X725198Y461315D01*
X725720Y460720D01*
X726315Y460198D01*
X726973Y459758D01*
X727684Y459408D01*
X728433Y459153D01*
X729210Y458999D01*
X730000Y458947D01*
X743947D01*
Y432507D01*
X740720Y429280D01*
X740198Y428685D01*
X739758Y428027D01*
X739583Y427671D01*
X739408Y427316D01*
X739343Y427126D01*
X739153Y426567D01*
X738999Y425790D01*
X738947Y425000D01*
Y405000D01*
X738999Y404210D01*
X739153Y403433D01*
X739408Y402684D01*
X739758Y401973D01*
X740198Y401315D01*
X740720Y400720D01*
X741315Y400198D01*
X741973Y399758D01*
X742684Y399408D01*
X743433Y399153D01*
X743771Y399086D01*
X746429Y396428D01*
X746925Y395993D01*
X747475Y395626D01*
X748067Y395334D01*
X748693Y395121D01*
X749341Y394992D01*
X750000Y394949D01*
X787500D01*
X788159Y394992D01*
X788807Y395121D01*
X789433Y395334D01*
X790025Y395626D01*
X790575Y395993D01*
X791071Y396428D01*
X796071Y401429D01*
X796507Y401925D01*
X796874Y402475D01*
X797166Y403067D01*
X797379Y403693D01*
X797508Y404341D01*
X797551Y405000D01*
Y408460D01*
X799040D01*
Y421540D01*
X799040D01*
Y423460D01*
X799040D01*
Y426178D01*
X801664D01*
X802922Y424921D01*
X803460Y423638D01*
Y423460D01*
Y422500D01*
Y421540D01*
X803460Y420920D01*
Y416270D01*
X810000D01*
X816540D01*
Y420920D01*
X816540Y421540D01*
Y422500D01*
Y423460D01*
Y423638D01*
X817112Y425000D01*
X819949Y425393D01*
X820421Y424921D01*
X820960Y423638D01*
Y423460D01*
Y422500D01*
Y421540D01*
X820960Y420920D01*
Y416270D01*
X827500D01*
X834040D01*
Y420920D01*
X834040Y421540D01*
Y422500D01*
Y423460D01*
X834040Y424080D01*
Y432237D01*
X836387Y433209D01*
X838178Y431417D01*
Y394583D01*
X834417Y390822D01*
X679583D01*
X567702Y502702D01*
X567246Y503092D01*
X566735Y503405D01*
X566458Y503520D01*
X566181Y503635D01*
X565598Y503775D01*
X565000Y503822D01*
X481796D01*
X481787Y503847D01*
X481365Y504739D01*
X480858Y505585D01*
X480270Y506377D01*
X479608Y507108D01*
X478877Y507770D01*
X478085Y508358D01*
X477239Y508865D01*
X476347Y509287D01*
X475418Y509619D01*
X474461Y509859D01*
X473485Y510004D01*
X472500Y510052D01*
X471515Y510004D01*
X470539Y509859D01*
X469582Y509619D01*
X468653Y509287D01*
X467761Y508865D01*
X466915Y508358D01*
X466123Y507770D01*
X465392Y507108D01*
X464730Y506377D01*
X464142Y505585D01*
X463635Y504739D01*
X463213Y503847D01*
X463204Y503822D01*
X436540D01*
Y505540D01*
X425460D01*
Y494460D01*
X427178D01*
Y493500D01*
X427225Y492902D01*
X427365Y492319D01*
X427480Y492042D01*
X427595Y491765D01*
X427908Y491254D01*
X428298Y490798D01*
X428678Y490417D01*
Y487040D01*
X426960D01*
Y472960D01*
X438040D01*
Y487040D01*
X436322D01*
Y492000D01*
X436323Y492010D01*
X436540Y494460D01*
X438368Y496178D01*
X463204D01*
X463213Y496153D01*
X463635Y495261D01*
X464142Y494415D01*
X464730Y493623D01*
X465392Y492892D01*
X466123Y492230D01*
X466915Y491642D01*
X467761Y491135D01*
X468653Y490713D01*
X469582Y490381D01*
X470539Y490141D01*
X471515Y489996D01*
X472500Y489948D01*
X473485Y489996D01*
X474461Y490141D01*
X475418Y490381D01*
X476347Y490713D01*
X477239Y491135D01*
X478085Y491642D01*
X478877Y492230D01*
X479608Y492892D01*
X480270Y493623D01*
X480858Y494415D01*
X481365Y495261D01*
X481787Y496153D01*
X481796Y496178D01*
X563417D01*
X675298Y384298D01*
X675754Y383908D01*
X676265Y383595D01*
X676542Y383480D01*
X676819Y383365D01*
X677402Y383225D01*
X678000Y383178D01*
X836000D01*
X836598Y383225D01*
X837181Y383365D01*
X837458Y383480D01*
X837735Y383595D01*
X838246Y383908D01*
X838702Y384298D01*
X844702Y390298D01*
X845092Y390754D01*
X845405Y391265D01*
X845567Y391657D01*
X845635Y391819D01*
X845775Y392402D01*
X845822Y393000D01*
Y431181D01*
X848362Y432233D01*
X851178Y429417D01*
Y388583D01*
X839917Y377322D01*
X643296D01*
X643287Y377347D01*
X642865Y378238D01*
X642358Y379085D01*
X641770Y379877D01*
X641108Y380608D01*
X640377Y381270D01*
X639585Y381858D01*
X638739Y382365D01*
X637847Y382787D01*
X636918Y383119D01*
X635961Y383359D01*
X634985Y383504D01*
X634000Y383552D01*
X633015Y383504D01*
X632039Y383359D01*
X631082Y383119D01*
X630153Y382787D01*
X629262Y382365D01*
X628415Y381858D01*
X627623Y381270D01*
X626892Y380608D01*
X626230Y379877D01*
X625642Y379085D01*
X625135Y378238D01*
X624713Y377347D01*
X624704Y377322D01*
X613040D01*
Y379040D01*
X601960D01*
Y367960D01*
X601960D01*
X602448Y365728D01*
X600768Y363822D01*
X594540D01*
Y365540D01*
X580460D01*
Y354460D01*
X594540D01*
Y356178D01*
X601960D01*
Y352770D01*
X607500D01*
X613040D01*
Y357040D01*
X608537D01*
X607485Y359580D01*
X610202Y362298D01*
X610592Y362754D01*
X610905Y363265D01*
X610972Y363427D01*
X611135Y363819D01*
X611275Y364402D01*
X611322Y365000D01*
Y367960D01*
X613040D01*
Y369678D01*
X624704D01*
X624713Y369653D01*
X625135Y368761D01*
X625642Y367915D01*
X626230Y367123D01*
X626892Y366392D01*
X627623Y365730D01*
X628415Y365142D01*
X629262Y364635D01*
X630153Y364213D01*
X631082Y363881D01*
X632039Y363641D01*
X633015Y363496D01*
X634000Y363448D01*
X634985Y363496D01*
X635961Y363641D01*
X636918Y363881D01*
X637847Y364213D01*
X638739Y364635D01*
X639585Y365142D01*
X640377Y365730D01*
X641108Y366392D01*
X641770Y367123D01*
X642358Y367915D01*
X642865Y368761D01*
X643287Y369653D01*
X643296Y369678D01*
X841500D01*
X842098Y369725D01*
X842681Y369865D01*
X842958Y369980D01*
X843235Y370095D01*
X843746Y370408D01*
X844202Y370798D01*
X857702Y384298D01*
X858092Y384754D01*
X858405Y385265D01*
X858520Y385542D01*
X858635Y385819D01*
X858775Y386402D01*
X858822Y387000D01*
Y431000D01*
X858775Y431598D01*
X858635Y432181D01*
X858520Y432458D01*
X858405Y432735D01*
X858092Y433246D01*
X857702Y433702D01*
X846767Y444638D01*
X847819Y447178D01*
X860417D01*
X901178Y406417D01*
Y280000D01*
X901225Y279402D01*
X901365Y278819D01*
X901480Y278542D01*
X901595Y278265D01*
X901908Y277754D01*
X902298Y277298D01*
X930048Y249548D01*
X930504Y249158D01*
X931015Y248845D01*
X931569Y248615D01*
X932152Y248475D01*
X932750Y248428D01*
X978250D01*
X978848Y248475D01*
X979431Y248615D01*
X979708Y248730D01*
X979985Y248845D01*
X980496Y249158D01*
X980952Y249548D01*
X987583Y256178D01*
X1208960D01*
Y253460D01*
X1221420D01*
X1222040Y253460D01*
X1223000D01*
X1223960D01*
X1224580Y253460D01*
X1229230D01*
Y260000D01*
Y266540D01*
X1224580D01*
X1223960Y266540D01*
X1223000D01*
X1222040D01*
X1221396Y268161D01*
X1221197Y269080D01*
X1221275Y269402D01*
X1221322Y270000D01*
Y272960D01*
X1223040D01*
Y286726D01*
X1226960D01*
Y272960D01*
X1238040D01*
Y287040D01*
X1236322D01*
Y288000D01*
X1236275Y288598D01*
X1236135Y289181D01*
X1236020Y289458D01*
X1235905Y289735D01*
X1235592Y290247D01*
X1235444Y290420D01*
X1235764Y292059D01*
X1236137Y292960D01*
X1238040D01*
Y306447D01*
X1335000D01*
X1335790Y306499D01*
X1336567Y306653D01*
X1336942Y306781D01*
X1337316Y306908D01*
X1337671Y307083D01*
X1338026Y307258D01*
X1338685Y307698D01*
X1339280Y308220D01*
X1351780Y320720D01*
X1352302Y321315D01*
X1352742Y321973D01*
X1353092Y322684D01*
X1353157Y322874D01*
X1353347Y323433D01*
X1353501Y324210D01*
X1353553Y325000D01*
Y452500D01*
Y602500D01*
Y752500D01*
Y880000D01*
Y960000D01*
X1353501Y960790D01*
X1353347Y961567D01*
X1353092Y962316D01*
X1352915Y962676D01*
X1352742Y963027D01*
X1352302Y963685D01*
X1351780Y964280D01*
X1321780Y994280D01*
X1321185Y994802D01*
X1320526Y995242D01*
X1320171Y995417D01*
X1319816Y995592D01*
X1319442Y995719D01*
X1319067Y995847D01*
X1318290Y996001D01*
X1317500Y996053D01*
X1076500D01*
X1075710Y996001D01*
X1074933Y995847D01*
X1074374Y995657D01*
X1074184Y995592D01*
X1073474Y995242D01*
X1072815Y994802D01*
X1072220Y994280D01*
X941493Y863553D01*
X677000D01*
X676210Y863501D01*
X675433Y863347D01*
X674684Y863092D01*
X673973Y862742D01*
X673315Y862302D01*
X672720Y861780D01*
X672198Y861185D01*
X671758Y860526D01*
X671408Y859816D01*
X671153Y859067D01*
X670999Y858290D01*
X670947Y857500D01*
X670999Y856710D01*
X671153Y855933D01*
X671408Y855184D01*
X671758Y854473D01*
X672198Y853815D01*
X672720Y853220D01*
X673315Y852698D01*
X673973Y852258D01*
X674684Y851908D01*
X675433Y851653D01*
X676210Y851499D01*
X677000Y851447D01*
X944000D01*
X944790Y851499D01*
X945567Y851653D01*
X946126Y851843D01*
X946316Y851908D01*
X947027Y852258D01*
X947685Y852698D01*
X948280Y853220D01*
X1079007Y983947D01*
X1279949D01*
Y968915D01*
X1276085D01*
Y951085D01*
X1273973Y950051D01*
X1241529D01*
X1239948Y952288D01*
X1239964Y952591D01*
X1240567Y953019D01*
X1241314Y953686D01*
X1241981Y954433D01*
X1242560Y955249D01*
X1243045Y956126D01*
X1243428Y957051D01*
X1243705Y958013D01*
X1243873Y959000D01*
X1243929Y960000D01*
X1243873Y961000D01*
X1243705Y961987D01*
X1243428Y962949D01*
X1243045Y963874D01*
X1242560Y964751D01*
X1241981Y965567D01*
X1241314Y966314D01*
X1240567Y966981D01*
X1239751Y967560D01*
X1238874Y968045D01*
X1237949Y968428D01*
X1236987Y968705D01*
X1236000Y968873D01*
X1235000Y968929D01*
X1234000Y968873D01*
X1233013Y968705D01*
X1232051Y968428D01*
X1231126Y968045D01*
X1230249Y967560D01*
X1229433Y966981D01*
X1228686Y966314D01*
X1228019Y965567D01*
X1227439Y964751D01*
X1226955Y963874D01*
X1226934Y963822D01*
X1187040D01*
Y965540D01*
X1172960D01*
X1172960Y965540D01*
Y965540D01*
X1171027Y966877D01*
X1170702Y967203D01*
X1170246Y967592D01*
X1169735Y967906D01*
X1169458Y968020D01*
X1169181Y968135D01*
X1168598Y968275D01*
X1168000Y968322D01*
X1158040D01*
Y971540D01*
X1146960D01*
Y957460D01*
X1158040D01*
Y960678D01*
X1166417D01*
X1169798Y957298D01*
X1170254Y956908D01*
X1170765Y956595D01*
X1171319Y956365D01*
X1171902Y956225D01*
X1172500Y956178D01*
X1172960D01*
Y954460D01*
X1187040D01*
Y956178D01*
X1226934D01*
X1226955Y956126D01*
X1227439Y955249D01*
X1228019Y954433D01*
X1228686Y953686D01*
X1229433Y953019D01*
X1230036Y952591D01*
X1230052Y952288D01*
X1228471Y950051D01*
X1187040D01*
Y950540D01*
X1172960D01*
Y939460D01*
X1187040D01*
Y939949D01*
X1280000D01*
X1280659Y939992D01*
X1281307Y940121D01*
X1281933Y940334D01*
X1282525Y940626D01*
X1283075Y940993D01*
X1283571Y941429D01*
X1288571Y946429D01*
X1289007Y946925D01*
X1289374Y947475D01*
X1289666Y948067D01*
X1289879Y948693D01*
X1290008Y949341D01*
X1290051Y950000D01*
Y951085D01*
X1293915D01*
Y968915D01*
X1290051D01*
Y983947D01*
X1314993D01*
X1341447Y957493D01*
Y885051D01*
X1217500D01*
X1216841Y885008D01*
X1216193Y884879D01*
X1215567Y884666D01*
X1214975Y884374D01*
X1214425Y884007D01*
X1213929Y883571D01*
X1181429Y851071D01*
X1180993Y850575D01*
X1180626Y850025D01*
X1180334Y849433D01*
X1180121Y848807D01*
X1179992Y848159D01*
X1179949Y847500D01*
Y584592D01*
X1173929Y578572D01*
X1173493Y578075D01*
X1173126Y577525D01*
X1172834Y576933D01*
X1172621Y576307D01*
X1172492Y575659D01*
X1172449Y575000D01*
Y442092D01*
X1150308Y419951D01*
X1117703D01*
X1117333Y420568D01*
X1116737Y421372D01*
X1116064Y422114D01*
X1115322Y422786D01*
X1114518Y423383D01*
X1113659Y423898D01*
X1112754Y424326D01*
X1111812Y424663D01*
X1110840Y424906D01*
X1109850Y425053D01*
X1108850Y425102D01*
X1106150D01*
X1105150Y425053D01*
X1104160Y424906D01*
X1103188Y424663D01*
X1102246Y424326D01*
X1101341Y423898D01*
X1100482Y423383D01*
X1099678Y422786D01*
X1098936Y422114D01*
X1098263Y421372D01*
X1097667Y420568D01*
X1097152Y419709D01*
X1096724Y418804D01*
X1096387Y417862D01*
X1096144Y416890D01*
X1095997Y415900D01*
X1095948Y414900D01*
X1095997Y413900D01*
X1096144Y412910D01*
X1096387Y411938D01*
X1096724Y410996D01*
X1097152Y410091D01*
X1097667Y409232D01*
X1098263Y408428D01*
X1098936Y407686D01*
X1099678Y407014D01*
X1100482Y406417D01*
X1101341Y405902D01*
X1102246Y405474D01*
X1103188Y405137D01*
X1104160Y404894D01*
X1105150Y404747D01*
X1106150Y404698D01*
X1108850D01*
X1109850Y404747D01*
X1110840Y404894D01*
X1111812Y405137D01*
X1112754Y405474D01*
X1113659Y405902D01*
X1114518Y406417D01*
X1115322Y407014D01*
X1116064Y407686D01*
X1116737Y408428D01*
X1117333Y409232D01*
X1117703Y409849D01*
X1152400D01*
X1153059Y409892D01*
X1153707Y410021D01*
X1154333Y410234D01*
X1154925Y410526D01*
X1155475Y410893D01*
X1155972Y411329D01*
X1181071Y436428D01*
X1181507Y436925D01*
X1181874Y437475D01*
X1182166Y438067D01*
X1182379Y438693D01*
X1182508Y439341D01*
X1182551Y440000D01*
Y572908D01*
X1188571Y578928D01*
X1189007Y579425D01*
X1189374Y579975D01*
X1189666Y580567D01*
X1189879Y581193D01*
X1190008Y581841D01*
X1190051Y582500D01*
Y845408D01*
X1219592Y874949D01*
X1341447D01*
Y757551D01*
X1238040D01*
Y759540D01*
X1226960D01*
Y746370D01*
X1223040D01*
Y759540D01*
X1221322D01*
Y772960D01*
X1233540D01*
Y778678D01*
X1296460D01*
Y772960D01*
X1327540D01*
Y792040D01*
X1296460D01*
Y786322D01*
X1233540D01*
Y792040D01*
X1202460D01*
Y772960D01*
X1213678D01*
Y759540D01*
X1211960D01*
Y745460D01*
X1213678D01*
Y745000D01*
X1213725Y744402D01*
X1213865Y743819D01*
X1213980Y743542D01*
X1214095Y743265D01*
X1214408Y742754D01*
X1214798Y742298D01*
X1215015Y742080D01*
X1213963Y739540D01*
X1211960D01*
Y726041D01*
X1211725Y723598D01*
Y723598D01*
Y723598D01*
X1211678Y723000D01*
X1211678Y721580D01*
X1210465Y719040D01*
X1208960D01*
Y716322D01*
X1205000D01*
X1204402Y716275D01*
X1203819Y716135D01*
X1203542Y716020D01*
X1203265Y715905D01*
X1202754Y715592D01*
X1202298Y715202D01*
X1194798Y707702D01*
X1194408Y707246D01*
X1194095Y706735D01*
X1193980Y706458D01*
X1193865Y706181D01*
X1193725Y705598D01*
X1193678Y705000D01*
Y569083D01*
X1187298Y562702D01*
X1186908Y562246D01*
X1186595Y561735D01*
X1186480Y561458D01*
X1186365Y561181D01*
X1186225Y560598D01*
X1186178Y560000D01*
Y431583D01*
X1155917Y401322D01*
X1099083D01*
X1067702Y432702D01*
X1067246Y433092D01*
X1066735Y433405D01*
X1066458Y433520D01*
X1066181Y433635D01*
X1065598Y433775D01*
X1065000Y433822D01*
X1016583D01*
X991012Y459392D01*
X991581Y461186D01*
X992119Y461878D01*
X1096695D01*
X1096724Y461796D01*
X1097152Y460891D01*
X1097667Y460032D01*
X1098263Y459228D01*
X1098936Y458486D01*
X1099678Y457813D01*
X1100482Y457217D01*
X1101341Y456702D01*
X1102246Y456274D01*
X1103188Y455937D01*
X1104160Y455694D01*
X1105150Y455547D01*
X1106150Y455498D01*
X1108850D01*
X1109850Y455547D01*
X1110840Y455694D01*
X1111812Y455937D01*
X1112754Y456274D01*
X1113659Y456702D01*
X1114518Y457217D01*
X1115322Y457813D01*
X1116064Y458486D01*
X1116737Y459228D01*
X1117333Y460032D01*
X1117848Y460891D01*
X1118276Y461796D01*
X1118305Y461878D01*
X1135504D01*
X1135513Y461853D01*
X1135935Y460961D01*
X1136442Y460115D01*
X1137030Y459323D01*
X1137692Y458592D01*
X1138423Y457930D01*
X1139215Y457342D01*
X1140061Y456835D01*
X1140953Y456413D01*
X1141882Y456081D01*
X1142839Y455841D01*
X1143815Y455696D01*
X1144800Y455648D01*
X1145785Y455696D01*
X1146761Y455841D01*
X1147718Y456081D01*
X1148647Y456413D01*
X1149538Y456835D01*
X1150385Y457342D01*
X1151177Y457930D01*
X1151908Y458592D01*
X1152570Y459323D01*
X1153158Y460115D01*
X1153665Y460961D01*
X1154087Y461853D01*
X1154419Y462782D01*
X1154659Y463739D01*
X1154804Y464715D01*
X1154852Y465700D01*
X1154804Y466685D01*
X1154659Y467661D01*
X1154419Y468618D01*
X1154087Y469547D01*
X1153665Y470438D01*
X1153158Y471285D01*
X1152570Y472077D01*
X1151908Y472808D01*
X1151177Y473470D01*
X1150385Y474058D01*
X1149538Y474565D01*
X1148647Y474987D01*
X1147718Y475319D01*
X1146761Y475559D01*
X1145785Y475704D01*
X1144800Y475752D01*
X1143815Y475704D01*
X1142839Y475559D01*
X1141882Y475319D01*
X1140953Y474987D01*
X1140061Y474565D01*
X1139215Y474058D01*
X1138423Y473470D01*
X1137692Y472808D01*
X1137030Y472077D01*
X1136442Y471285D01*
X1135935Y470438D01*
X1135513Y469547D01*
X1135504Y469522D01*
X1118305D01*
X1118276Y469604D01*
X1117848Y470509D01*
X1117333Y471368D01*
X1116737Y472172D01*
X1116064Y472914D01*
X1115322Y473587D01*
X1114518Y474183D01*
X1113659Y474698D01*
X1112754Y475126D01*
X1111812Y475463D01*
X1110840Y475706D01*
X1109850Y475853D01*
X1108850Y475902D01*
X1106150D01*
X1105150Y475853D01*
X1104160Y475706D01*
X1103188Y475463D01*
X1102246Y475126D01*
X1101341Y474698D01*
X1100482Y474183D01*
X1099678Y473587D01*
X1098936Y472914D01*
X1098263Y472172D01*
X1097667Y471368D01*
X1097152Y470509D01*
X1096724Y469604D01*
X1096695Y469522D01*
X993383D01*
X978112Y484792D01*
X978681Y486586D01*
X979219Y487278D01*
X1096695D01*
X1096724Y487196D01*
X1097152Y486291D01*
X1097667Y485432D01*
X1098263Y484628D01*
X1098936Y483886D01*
X1099678Y483214D01*
X1100482Y482617D01*
X1101341Y482102D01*
X1102246Y481674D01*
X1103188Y481337D01*
X1104160Y481094D01*
X1105150Y480947D01*
X1106150Y480898D01*
X1108850D01*
X1109850Y480947D01*
X1110840Y481094D01*
X1111812Y481337D01*
X1112754Y481674D01*
X1113659Y482102D01*
X1114518Y482617D01*
X1115322Y483214D01*
X1116064Y483886D01*
X1116737Y484628D01*
X1117333Y485432D01*
X1117848Y486291D01*
X1118276Y487196D01*
X1118305Y487278D01*
X1135504D01*
X1135513Y487253D01*
X1135935Y486362D01*
X1136442Y485515D01*
X1137030Y484723D01*
X1137692Y483992D01*
X1138423Y483330D01*
X1139215Y482742D01*
X1140061Y482235D01*
X1140953Y481813D01*
X1141882Y481481D01*
X1142839Y481241D01*
X1143815Y481096D01*
X1144800Y481048D01*
X1145785Y481096D01*
X1146761Y481241D01*
X1147718Y481481D01*
X1148647Y481813D01*
X1149538Y482235D01*
X1150385Y482742D01*
X1151177Y483330D01*
X1151908Y483992D01*
X1152570Y484723D01*
X1153158Y485515D01*
X1153665Y486362D01*
X1154087Y487253D01*
X1154419Y488182D01*
X1154659Y489139D01*
X1154804Y490115D01*
X1154852Y491100D01*
X1154804Y492085D01*
X1154659Y493061D01*
X1154419Y494018D01*
X1154087Y494947D01*
X1153665Y495839D01*
X1153158Y496685D01*
X1152570Y497477D01*
X1151908Y498208D01*
X1151177Y498870D01*
X1150385Y499458D01*
X1149538Y499965D01*
X1148647Y500387D01*
X1147718Y500719D01*
X1146761Y500959D01*
X1145785Y501104D01*
X1144800Y501152D01*
X1143815Y501104D01*
X1142839Y500959D01*
X1141882Y500719D01*
X1140953Y500387D01*
X1140061Y499965D01*
X1139215Y499458D01*
X1138423Y498870D01*
X1137692Y498208D01*
X1137030Y497477D01*
X1136442Y496685D01*
X1135935Y495839D01*
X1135513Y494947D01*
X1135504Y494922D01*
X1118305D01*
X1118276Y495004D01*
X1117848Y495909D01*
X1117333Y496768D01*
X1116737Y497572D01*
X1116064Y498314D01*
X1115322Y498987D01*
X1114518Y499583D01*
X1113659Y500098D01*
X1112754Y500526D01*
X1111812Y500863D01*
X1110840Y501106D01*
X1109850Y501253D01*
X1108850Y501302D01*
X1106150D01*
X1105150Y501253D01*
X1104160Y501106D01*
X1103188Y500863D01*
X1102246Y500526D01*
X1101341Y500098D01*
X1100482Y499583D01*
X1099678Y498987D01*
X1098936Y498314D01*
X1098263Y497572D01*
X1097667Y496768D01*
X1097152Y495909D01*
X1096724Y495004D01*
X1096695Y494922D01*
X980483D01*
X965212Y510192D01*
X965781Y511986D01*
X966319Y512678D01*
X1096695D01*
X1096724Y512596D01*
X1097152Y511691D01*
X1097667Y510832D01*
X1098263Y510028D01*
X1098936Y509286D01*
X1099678Y508614D01*
X1100482Y508017D01*
X1101341Y507502D01*
X1102246Y507074D01*
X1103188Y506737D01*
X1104160Y506494D01*
X1105150Y506347D01*
X1106150Y506298D01*
X1108850D01*
X1109850Y506347D01*
X1110840Y506494D01*
X1111812Y506737D01*
X1112754Y507074D01*
X1113659Y507502D01*
X1114518Y508017D01*
X1115322Y508614D01*
X1116064Y509286D01*
X1116737Y510028D01*
X1117333Y510832D01*
X1117848Y511691D01*
X1118276Y512596D01*
X1118305Y512678D01*
X1135504D01*
X1135513Y512653D01*
X1135935Y511762D01*
X1136442Y510915D01*
X1137030Y510123D01*
X1137692Y509392D01*
X1138423Y508730D01*
X1139215Y508142D01*
X1140061Y507635D01*
X1140953Y507213D01*
X1141882Y506881D01*
X1142839Y506641D01*
X1143815Y506496D01*
X1144800Y506448D01*
X1145785Y506496D01*
X1146761Y506641D01*
X1147718Y506881D01*
X1148647Y507213D01*
X1149538Y507635D01*
X1150385Y508142D01*
X1151177Y508730D01*
X1151908Y509392D01*
X1152570Y510123D01*
X1153158Y510915D01*
X1153665Y511762D01*
X1154087Y512653D01*
X1154419Y513582D01*
X1154659Y514539D01*
X1154804Y515515D01*
X1154852Y516500D01*
X1154804Y517485D01*
X1154659Y518461D01*
X1154419Y519418D01*
X1154087Y520347D01*
X1153665Y521239D01*
X1153158Y522085D01*
X1152570Y522877D01*
X1151908Y523608D01*
X1151177Y524270D01*
X1150385Y524858D01*
X1149538Y525365D01*
X1148647Y525787D01*
X1147718Y526119D01*
X1146761Y526359D01*
X1145785Y526504D01*
X1144800Y526552D01*
X1143815Y526504D01*
X1142839Y526359D01*
X1141882Y526119D01*
X1140953Y525787D01*
X1140061Y525365D01*
X1139215Y524858D01*
X1138423Y524270D01*
X1137692Y523608D01*
X1137030Y522877D01*
X1136442Y522085D01*
X1135935Y521239D01*
X1135513Y520347D01*
X1135504Y520322D01*
X1118305D01*
X1118276Y520404D01*
X1117848Y521309D01*
X1117333Y522168D01*
X1116737Y522972D01*
X1116064Y523714D01*
X1115322Y524386D01*
X1114518Y524983D01*
X1113659Y525498D01*
X1112754Y525926D01*
X1111812Y526263D01*
X1110840Y526506D01*
X1109850Y526653D01*
X1108850Y526702D01*
X1106150D01*
X1105150Y526653D01*
X1104160Y526506D01*
X1103188Y526263D01*
X1102246Y525926D01*
X1101341Y525498D01*
X1100482Y524983D01*
X1099678Y524386D01*
X1098936Y523714D01*
X1098263Y522972D01*
X1097667Y522168D01*
X1097152Y521309D01*
X1096724Y520404D01*
X1096695Y520322D01*
X967583D01*
X947702Y540202D01*
X947246Y540592D01*
X946735Y540905D01*
X946458Y541020D01*
X946181Y541135D01*
X945598Y541275D01*
X945000Y541322D01*
X919540D01*
Y546230D01*
X912500D01*
X905460D01*
Y541322D01*
X900540D01*
Y556540D01*
X886460D01*
Y551322D01*
X881583D01*
X877702Y555202D01*
X877246Y555592D01*
X876735Y555905D01*
X876458Y556020D01*
X876181Y556135D01*
X875598Y556275D01*
X875598Y558725D01*
X876181Y558865D01*
X876458Y558980D01*
X876735Y559095D01*
X877246Y559408D01*
X877702Y559798D01*
X883420Y565515D01*
X885960Y564577D01*
Y563460D01*
X898420D01*
X899040Y563460D01*
X900000D01*
X900960D01*
X901580Y563460D01*
X906230D01*
Y570000D01*
Y576540D01*
X901580D01*
X900960Y576540D01*
X900000D01*
X899040D01*
X898692D01*
X897640Y579080D01*
X905207Y586647D01*
X1097952D01*
X1098263Y586228D01*
X1098936Y585486D01*
X1099678Y584813D01*
X1100482Y584217D01*
X1101341Y583702D01*
X1102246Y583274D01*
X1103188Y582937D01*
X1104160Y582694D01*
X1105150Y582547D01*
X1106150Y582498D01*
X1108850D01*
X1109850Y582547D01*
X1110840Y582694D01*
X1111812Y582937D01*
X1112754Y583274D01*
X1113659Y583702D01*
X1114518Y584217D01*
X1115322Y584813D01*
X1116064Y585486D01*
X1116737Y586228D01*
X1117333Y587032D01*
X1117848Y587891D01*
X1118276Y588796D01*
X1118613Y589738D01*
X1118856Y590710D01*
X1119003Y591700D01*
X1119052Y592700D01*
X1119003Y593700D01*
X1118856Y594690D01*
X1118613Y595662D01*
X1118276Y596604D01*
X1117848Y597509D01*
X1117333Y598368D01*
X1116737Y599172D01*
X1116064Y599914D01*
X1115322Y600587D01*
X1114710Y601040D01*
X1114697Y601356D01*
X1116137Y603580D01*
X1133515D01*
X1136178Y600917D01*
Y590000D01*
X1136225Y589402D01*
X1136365Y588819D01*
X1136480Y588542D01*
X1136595Y588265D01*
X1136908Y587754D01*
X1137298Y587298D01*
X1140978Y583617D01*
Y576596D01*
X1140953Y576587D01*
X1140061Y576165D01*
X1139215Y575658D01*
X1138423Y575070D01*
X1137692Y574408D01*
X1137030Y573677D01*
X1136442Y572885D01*
X1135935Y572038D01*
X1135513Y571147D01*
X1135504Y571122D01*
X1119040D01*
Y577490D01*
X1095960D01*
Y557110D01*
X1119040D01*
Y563478D01*
X1135504D01*
X1135513Y563453D01*
X1135935Y562561D01*
X1136442Y561715D01*
X1137030Y560923D01*
X1137692Y560192D01*
X1138423Y559530D01*
X1139215Y558942D01*
X1140061Y558435D01*
X1140953Y558013D01*
X1141882Y557681D01*
X1142839Y557441D01*
X1143815Y557296D01*
X1144800Y557248D01*
X1145785Y557296D01*
X1146761Y557441D01*
X1147718Y557681D01*
X1148647Y558013D01*
X1149538Y558435D01*
X1150385Y558942D01*
X1151177Y559530D01*
X1151908Y560192D01*
X1152570Y560923D01*
X1153158Y561715D01*
X1153665Y562561D01*
X1154087Y563453D01*
X1154419Y564382D01*
X1154659Y565339D01*
X1154804Y566315D01*
X1154852Y567300D01*
X1154804Y568285D01*
X1154659Y569261D01*
X1154419Y570218D01*
X1154087Y571147D01*
X1153665Y572038D01*
X1153158Y572885D01*
X1152570Y573677D01*
X1151908Y574408D01*
X1151177Y575070D01*
X1150385Y575658D01*
X1149538Y576165D01*
X1148647Y576587D01*
X1148622Y576596D01*
Y585200D01*
X1148575Y585798D01*
X1148435Y586381D01*
X1148320Y586658D01*
X1148205Y586935D01*
X1147892Y587446D01*
X1147502Y587902D01*
X1143822Y591583D01*
Y598678D01*
X1157500D01*
X1158098Y598725D01*
X1158681Y598865D01*
X1158958Y598980D01*
X1159235Y599095D01*
X1159746Y599408D01*
X1160202Y599798D01*
X1163638Y603233D01*
X1166178Y602181D01*
Y599333D01*
X1159798Y592952D01*
X1159408Y592496D01*
X1159095Y591985D01*
X1158980Y591708D01*
X1158865Y591431D01*
X1158725Y590848D01*
X1158678Y590250D01*
Y558483D01*
X1145917Y545722D01*
X1118305D01*
X1118276Y545804D01*
X1117848Y546709D01*
X1117333Y547568D01*
X1116737Y548372D01*
X1116064Y549114D01*
X1115322Y549786D01*
X1114518Y550383D01*
X1113659Y550898D01*
X1112754Y551326D01*
X1111812Y551663D01*
X1110840Y551906D01*
X1109850Y552053D01*
X1108850Y552102D01*
X1106150D01*
X1105150Y552053D01*
X1104160Y551906D01*
X1103188Y551663D01*
X1102246Y551326D01*
X1101341Y550898D01*
X1100482Y550383D01*
X1099678Y549786D01*
X1098936Y549114D01*
X1098263Y548372D01*
X1097667Y547568D01*
X1097152Y546709D01*
X1096724Y545804D01*
X1096387Y544862D01*
X1096144Y543890D01*
X1095997Y542900D01*
X1095948Y541900D01*
X1095997Y540900D01*
X1096144Y539910D01*
X1096387Y538938D01*
X1096724Y537996D01*
X1097152Y537091D01*
X1097667Y536232D01*
X1098263Y535428D01*
X1098936Y534686D01*
X1099678Y534013D01*
X1100482Y533417D01*
X1101341Y532902D01*
X1102246Y532474D01*
X1103188Y532137D01*
X1104160Y531894D01*
X1105150Y531747D01*
X1106150Y531698D01*
X1108850D01*
X1109850Y531747D01*
X1110840Y531894D01*
X1111812Y532137D01*
X1112754Y532474D01*
X1113659Y532902D01*
X1114518Y533417D01*
X1115322Y534013D01*
X1116064Y534686D01*
X1116737Y535428D01*
X1117333Y536232D01*
X1117848Y537091D01*
X1118276Y537996D01*
X1118305Y538078D01*
X1147500D01*
X1148098Y538125D01*
X1148681Y538265D01*
X1148958Y538380D01*
X1149235Y538495D01*
X1149746Y538808D01*
X1150202Y539198D01*
X1165202Y554198D01*
X1165592Y554654D01*
X1165905Y555165D01*
X1165972Y555327D01*
X1166135Y555719D01*
X1166275Y556302D01*
X1166322Y556900D01*
Y588667D01*
X1172702Y595048D01*
X1173092Y595504D01*
X1173405Y596015D01*
X1173472Y596177D01*
X1173635Y596569D01*
X1173775Y597152D01*
X1173822Y597750D01*
Y645500D01*
X1173775Y646098D01*
X1173635Y646681D01*
X1173405Y647235D01*
X1173092Y647746D01*
X1172702Y648202D01*
X1161452Y659452D01*
X1160996Y659842D01*
X1160485Y660155D01*
X1160208Y660270D01*
X1159931Y660385D01*
X1159348Y660525D01*
X1158750Y660572D01*
X1154230D01*
X1153642Y661263D01*
X1153056Y662969D01*
X1154401Y665078D01*
X1158900D01*
X1159498Y665125D01*
X1160081Y665265D01*
X1160358Y665380D01*
X1160635Y665495D01*
X1161146Y665808D01*
X1161602Y666198D01*
X1167702Y672298D01*
X1168092Y672754D01*
X1168405Y673265D01*
X1168635Y673819D01*
X1168775Y674402D01*
X1168822Y675000D01*
Y750000D01*
X1168775Y750598D01*
X1168635Y751181D01*
X1168472Y751573D01*
X1168405Y751735D01*
X1168092Y752246D01*
X1167702Y752702D01*
X1157702Y762702D01*
X1157246Y763092D01*
X1156735Y763405D01*
X1156458Y763520D01*
X1156181Y763635D01*
X1155598Y763775D01*
X1155000Y763822D01*
X917500D01*
X916902Y763775D01*
X916319Y763635D01*
X916042Y763520D01*
X915765Y763405D01*
X915254Y763092D01*
X914798Y762702D01*
X814798Y662702D01*
X814408Y662246D01*
X814095Y661735D01*
X813980Y661458D01*
X813865Y661181D01*
X813725Y660598D01*
X813678Y660000D01*
Y591040D01*
X806322D01*
Y660917D01*
X1096129Y950724D01*
X1096153Y950713D01*
X1097082Y950381D01*
X1098039Y950141D01*
X1099015Y949996D01*
X1100000Y949948D01*
X1100985Y949996D01*
X1101961Y950141D01*
X1102918Y950381D01*
X1103847Y950713D01*
X1104738Y951135D01*
X1105585Y951642D01*
X1106377Y952230D01*
X1107108Y952892D01*
X1107770Y953623D01*
X1108358Y954415D01*
X1108865Y955262D01*
X1109287Y956153D01*
X1109296Y956178D01*
X1117960D01*
Y954460D01*
X1132040D01*
Y965540D01*
X1117960D01*
Y963822D01*
X1109296D01*
X1109287Y963847D01*
X1108865Y964738D01*
X1108358Y965585D01*
X1107770Y966377D01*
X1107108Y967108D01*
X1106377Y967770D01*
X1105585Y968358D01*
X1104738Y968865D01*
X1103847Y969287D01*
X1102918Y969619D01*
X1101961Y969859D01*
X1100985Y970004D01*
X1100000Y970052D01*
X1099015Y970004D01*
X1098039Y969859D01*
X1097082Y969619D01*
X1096153Y969287D01*
X1095262Y968865D01*
X1094415Y968358D01*
X1093623Y967770D01*
X1092892Y967108D01*
X1092230Y966377D01*
X1091642Y965585D01*
X1091135Y964738D01*
X1090713Y963847D01*
X1090381Y962918D01*
X1090141Y961961D01*
X1089996Y960985D01*
X1089948Y960000D01*
X1089996Y959015D01*
X1090141Y958039D01*
X1090381Y957082D01*
X1090713Y956153D01*
X1090724Y956129D01*
X799798Y665202D01*
X799408Y664746D01*
X799095Y664235D01*
X798980Y663958D01*
X798865Y663681D01*
X798725Y663098D01*
X798678Y662500D01*
Y591040D01*
X786322D01*
Y737500D01*
X786275Y738098D01*
X786135Y738681D01*
X786020Y738958D01*
X785905Y739235D01*
X785592Y739746D01*
X785202Y740202D01*
X737702Y787702D01*
X737246Y788092D01*
X736735Y788405D01*
X736458Y788520D01*
X736181Y788635D01*
X735598Y788775D01*
X735000Y788822D01*
X708583D01*
X667822Y829583D01*
Y905000D01*
X667775Y905598D01*
X667635Y906181D01*
X667405Y906735D01*
X667092Y907246D01*
X666702Y907702D01*
X624202Y950202D01*
X623746Y950592D01*
X623235Y950905D01*
X622958Y951020D01*
X622681Y951135D01*
X622098Y951275D01*
X621500Y951322D01*
X581796D01*
X581787Y951347D01*
X581365Y952238D01*
X580858Y953085D01*
X580270Y953877D01*
X579608Y954608D01*
X578877Y955270D01*
X578085Y955858D01*
X577239Y956365D01*
X576347Y956787D01*
X575418Y957119D01*
X574461Y957359D01*
X573485Y957504D01*
X572500Y957552D01*
X571515Y957504D01*
X570539Y957359D01*
X569582Y957119D01*
X568653Y956787D01*
X567761Y956365D01*
X566915Y955858D01*
X566123Y955270D01*
X565392Y954608D01*
X564730Y953877D01*
X564142Y953085D01*
X563635Y952238D01*
X563213Y951347D01*
X563204Y951322D01*
X547040D01*
Y953040D01*
X532960D01*
Y951322D01*
X526583D01*
X523202Y954703D01*
X522746Y955092D01*
X522235Y955406D01*
X521958Y955520D01*
X521681Y955635D01*
X521098Y955775D01*
X520500Y955822D01*
X518040D01*
Y959040D01*
X506960D01*
Y944960D01*
X518040D01*
Y945463D01*
X520580Y946515D01*
X522298Y944798D01*
X522754Y944408D01*
X523265Y944095D01*
X523819Y943865D01*
X524402Y943725D01*
X525000Y943678D01*
X532960D01*
Y941960D01*
X547040D01*
Y943678D01*
X563204D01*
X563213Y943653D01*
X563635Y942762D01*
X564142Y941915D01*
X564730Y941123D01*
X565392Y940392D01*
X566123Y939730D01*
X566915Y939142D01*
X567761Y938635D01*
X568653Y938213D01*
X569582Y937881D01*
X570539Y937641D01*
X571515Y937496D01*
X572500Y937448D01*
X573485Y937496D01*
X574461Y937641D01*
X575418Y937881D01*
X576347Y938213D01*
X577239Y938635D01*
X578085Y939142D01*
X578877Y939730D01*
X579608Y940392D01*
X580270Y941123D01*
X580858Y941915D01*
X581365Y942762D01*
X581787Y943653D01*
X581796Y943678D01*
X619917D01*
X660178Y903417D01*
Y828000D01*
X660225Y827402D01*
X660365Y826819D01*
X660480Y826542D01*
X660595Y826265D01*
X660908Y825754D01*
X661298Y825298D01*
X704298Y782298D01*
X704754Y781908D01*
X705265Y781595D01*
X705542Y781480D01*
X705819Y781365D01*
X706402Y781225D01*
X707000Y781178D01*
X733417D01*
X778678Y735917D01*
Y591040D01*
X771322D01*
Y608460D01*
X774040D01*
Y620920D01*
X774040Y621540D01*
Y622500D01*
Y623460D01*
X774040Y624080D01*
Y628730D01*
X767500D01*
X760960D01*
Y624080D01*
X760960Y623460D01*
Y622591D01*
X760864Y621474D01*
X758780Y620051D01*
X753313D01*
X753026Y620242D01*
X752316Y620592D01*
X751567Y620847D01*
X750790Y621001D01*
X750000Y621053D01*
X747020D01*
Y621620D01*
X728940D01*
Y620633D01*
X715427D01*
X524053Y812007D01*
Y832993D01*
X542507Y851447D01*
X651158D01*
X651948Y851499D01*
X652725Y851653D01*
X653475Y851908D01*
X654185Y852258D01*
X654843Y852698D01*
X655438Y853220D01*
X655960Y853815D01*
X656400Y854473D01*
X656750Y855184D01*
X657005Y855933D01*
X657159Y856710D01*
X657211Y857500D01*
X657159Y858290D01*
X657005Y859067D01*
X656750Y859816D01*
X656400Y860526D01*
X655960Y861185D01*
X655438Y861780D01*
X654843Y862302D01*
X654185Y862742D01*
X653475Y863092D01*
X652725Y863347D01*
X651948Y863501D01*
X651158Y863553D01*
X546053D01*
Y917500D01*
X546001Y918290D01*
X545847Y919067D01*
X545592Y919816D01*
X545242Y920527D01*
X545051Y920813D01*
Y926960D01*
X547040D01*
Y938040D01*
X532960D01*
Y926960D01*
X534949D01*
Y920813D01*
X534758Y920527D01*
X534408Y919816D01*
X534153Y919067D01*
X533999Y918290D01*
X533947Y917500D01*
Y860007D01*
X515493Y841553D01*
X457511D01*
X457270Y841877D01*
X456608Y842608D01*
X455877Y843270D01*
X455085Y843858D01*
X454239Y844365D01*
X453347Y844787D01*
X452418Y845119D01*
X451461Y845359D01*
X450485Y845504D01*
X449500Y845552D01*
X448515Y845504D01*
X447539Y845359D01*
X446582Y845119D01*
X445653Y844787D01*
X444762Y844365D01*
X443915Y843858D01*
X443123Y843270D01*
X442392Y842608D01*
X441730Y841877D01*
X441489Y841553D01*
X424040D01*
Y842540D01*
X405960D01*
Y840551D01*
X405500D01*
X404841Y840508D01*
X404193Y840379D01*
X403567Y840166D01*
X402975Y839874D01*
X402580Y839610D01*
X400040Y840040D01*
Y840040D01*
X388960D01*
Y825960D01*
X400040D01*
Y827949D01*
X403000D01*
X403660Y827993D01*
X404308Y828121D01*
X405960Y828460D01*
X405960Y828460D01*
X405960Y828460D01*
X424040D01*
Y829447D01*
X441489D01*
X441730Y829123D01*
X442392Y828392D01*
X443123Y827730D01*
X443915Y827142D01*
X444449Y826822D01*
Y799092D01*
X437908Y792551D01*
X382092D01*
X327551Y847092D01*
Y980000D01*
X327508Y980659D01*
X327379Y981307D01*
X327166Y981933D01*
X326874Y982525D01*
X326507Y983075D01*
X326072Y983571D01*
X288571Y1021071D01*
X288075Y1021507D01*
X287525Y1021874D01*
X286933Y1022166D01*
X286307Y1022379D01*
X285659Y1022508D01*
X285000Y1022551D01*
X260040D01*
Y1027540D01*
D02*
G37*
G36*
X736710Y632310D02*
X728940D01*
Y626540D01*
X736710D01*
Y632310D01*
D02*
G37*
G36*
X774040Y636540D02*
X768770D01*
Y631270D01*
X774040D01*
Y636540D01*
D02*
G37*
G36*
X766230D02*
X760960D01*
Y631270D01*
X766230D01*
Y636540D01*
D02*
G37*
G36*
X747020Y632310D02*
X739250D01*
Y626540D01*
X747020D01*
Y632310D01*
D02*
G37*
G36*
X1118963Y439030D02*
X1108770D01*
Y430098D01*
X1108850D01*
X1109850Y430147D01*
X1110840Y430294D01*
X1111812Y430537D01*
X1112754Y430874D01*
X1113659Y431302D01*
X1114518Y431817D01*
X1115322Y432413D01*
X1116064Y433086D01*
X1116737Y433828D01*
X1117333Y434632D01*
X1117848Y435491D01*
X1118276Y436396D01*
X1118613Y437338D01*
X1118856Y438310D01*
X1118963Y439030D01*
D02*
G37*
G36*
X459040Y351230D02*
X453770D01*
Y345960D01*
X459040D01*
Y351230D01*
D02*
G37*
G36*
X300000Y378304D02*
X298564Y378248D01*
X297137Y378079D01*
X295727Y377798D01*
X294344Y377408D01*
X292995Y376911D01*
X291690Y376309D01*
X290436Y375607D01*
X289241Y374808D01*
X288112Y373918D01*
X287057Y372943D01*
X286081Y371888D01*
X285192Y370759D01*
X284393Y369564D01*
X283691Y368310D01*
X283089Y367005D01*
X282592Y365656D01*
X282202Y364273D01*
X281921Y362863D01*
X281752Y361436D01*
X281696Y360000D01*
X281752Y358564D01*
X281921Y357137D01*
X282202Y355727D01*
X282592Y354344D01*
X283089Y352995D01*
X283691Y351690D01*
X284393Y350436D01*
X285192Y349241D01*
X286081Y348112D01*
X287057Y347057D01*
X288112Y346082D01*
X289241Y345192D01*
X290436Y344393D01*
X291690Y343691D01*
X292995Y343089D01*
X294344Y342592D01*
X295727Y342202D01*
X297137Y341921D01*
X298564Y341752D01*
X300000Y341696D01*
X301436Y341752D01*
X302863Y341921D01*
X304273Y342202D01*
X305656Y342592D01*
X307005Y343089D01*
X308310Y343691D01*
X309564Y344393D01*
X310759Y345192D01*
X311887Y346082D01*
X312943Y347057D01*
X313918Y348112D01*
X314808Y349241D01*
X315607Y350436D01*
X316309Y351690D01*
X316911Y352995D01*
X317408Y354344D01*
X317798Y355727D01*
X318079Y357137D01*
X318248Y358564D01*
X318304Y360000D01*
X318248Y361436D01*
X318079Y362863D01*
X317798Y364273D01*
X317408Y365656D01*
X316911Y367005D01*
X316309Y368310D01*
X315607Y369564D01*
X314808Y370759D01*
X313918Y371888D01*
X312943Y372943D01*
X311887Y373918D01*
X310759Y374808D01*
X309564Y375607D01*
X308310Y376309D01*
X307005Y376911D01*
X305656Y377408D01*
X304273Y377798D01*
X302863Y378079D01*
X301436Y378248D01*
X300000Y378304D01*
D02*
G37*
G36*
X594540Y335540D02*
X588770D01*
Y331270D01*
X594540D01*
Y335540D01*
D02*
G37*
G36*
X606230Y350230D02*
X601960D01*
Y345960D01*
X606230D01*
Y350230D01*
D02*
G37*
G36*
X493730Y358730D02*
X487960D01*
Y354460D01*
X493730D01*
Y358730D01*
D02*
G37*
G36*
X453770Y359040D02*
Y353770D01*
X459040D01*
Y359040D01*
X453770D01*
D02*
G37*
G36*
X613040Y350230D02*
X608770D01*
Y345960D01*
X613040D01*
Y350230D01*
D02*
G37*
G36*
X1237040Y258730D02*
X1231770D01*
Y253460D01*
X1237040D01*
Y258730D01*
D02*
G37*
G36*
X1345000Y301514D02*
X1343266Y301457D01*
X1341539Y301287D01*
X1339827Y301005D01*
X1338138Y300611D01*
X1336477Y300107D01*
X1334854Y299496D01*
X1333273Y298780D01*
X1331743Y297962D01*
X1330269Y297046D01*
X1328859Y296035D01*
X1327518Y294934D01*
X1326252Y293748D01*
X1325066Y292482D01*
X1323965Y291141D01*
X1322954Y289730D01*
X1322038Y288257D01*
X1321220Y286727D01*
X1320504Y285147D01*
X1319893Y283523D01*
X1319389Y281862D01*
X1318995Y280173D01*
X1318713Y278461D01*
X1318543Y276734D01*
X1318486Y275000D01*
X1318543Y273266D01*
X1318713Y271539D01*
X1318995Y269827D01*
X1319389Y268138D01*
X1319893Y266477D01*
X1320504Y264853D01*
X1321220Y263273D01*
X1322038Y261743D01*
X1322954Y260270D01*
X1323965Y258859D01*
X1325066Y257518D01*
X1326252Y256252D01*
X1327518Y255066D01*
X1328859Y253965D01*
X1330269Y252954D01*
X1331743Y252038D01*
X1333273Y251220D01*
X1334854Y250504D01*
X1336477Y249893D01*
X1338138Y249389D01*
X1339827Y248995D01*
X1341539Y248713D01*
X1343266Y248543D01*
X1345000Y248486D01*
X1346734Y248543D01*
X1348461Y248713D01*
X1350173Y248995D01*
X1351862Y249389D01*
X1353523Y249893D01*
X1355146Y250504D01*
X1356727Y251220D01*
X1358257Y252038D01*
X1359731Y252954D01*
X1361141Y253965D01*
X1362482Y255066D01*
X1363748Y256252D01*
X1364934Y257518D01*
X1366035Y258859D01*
X1367046Y260270D01*
X1367962Y261743D01*
X1368780Y263273D01*
X1369496Y264853D01*
X1370107Y266477D01*
X1370611Y268138D01*
X1371005Y269827D01*
X1371287Y271539D01*
X1371457Y273266D01*
X1371514Y275000D01*
X1371457Y276734D01*
X1371287Y278461D01*
X1371005Y280173D01*
X1370611Y281862D01*
X1370107Y283523D01*
X1369496Y285147D01*
X1368780Y286727D01*
X1367962Y288257D01*
X1367046Y289730D01*
X1366035Y291141D01*
X1364934Y292482D01*
X1363748Y293748D01*
X1362482Y294934D01*
X1361141Y296035D01*
X1359731Y297046D01*
X1358257Y297962D01*
X1356727Y298780D01*
X1355146Y299496D01*
X1353523Y300107D01*
X1351862Y300611D01*
X1350173Y301005D01*
X1348461Y301287D01*
X1346734Y301457D01*
X1345000Y301514D01*
D02*
G37*
G36*
X255000D02*
X253266Y301457D01*
X251539Y301287D01*
X249827Y301005D01*
X248138Y300611D01*
X246477Y300107D01*
X244853Y299496D01*
X243273Y298780D01*
X241743Y297962D01*
X240270Y297046D01*
X238859Y296035D01*
X237518Y294934D01*
X236252Y293748D01*
X235066Y292482D01*
X233965Y291141D01*
X232954Y289730D01*
X232038Y288257D01*
X231220Y286727D01*
X230504Y285147D01*
X229893Y283523D01*
X229389Y281862D01*
X228995Y280173D01*
X228713Y278461D01*
X228543Y276734D01*
X228486Y275000D01*
X228543Y273266D01*
X228713Y271539D01*
X228995Y269827D01*
X229389Y268138D01*
X229893Y266477D01*
X230504Y264853D01*
X231220Y263273D01*
X232038Y261743D01*
X232954Y260270D01*
X233965Y258859D01*
X235066Y257518D01*
X236252Y256252D01*
X237518Y255066D01*
X238859Y253965D01*
X240270Y252954D01*
X241743Y252038D01*
X243273Y251220D01*
X244853Y250504D01*
X246477Y249893D01*
X248138Y249389D01*
X249827Y248995D01*
X251539Y248713D01*
X253266Y248543D01*
X255000Y248486D01*
X256734Y248543D01*
X258461Y248713D01*
X260173Y248995D01*
X261862Y249389D01*
X263523Y249893D01*
X265147Y250504D01*
X266727Y251220D01*
X268257Y252038D01*
X269730Y252954D01*
X271141Y253965D01*
X272482Y255066D01*
X273748Y256252D01*
X274934Y257518D01*
X276035Y258859D01*
X277046Y260270D01*
X277962Y261743D01*
X278780Y263273D01*
X279496Y264853D01*
X280107Y266477D01*
X280611Y268138D01*
X281005Y269827D01*
X281287Y271539D01*
X281457Y273266D01*
X281514Y275000D01*
X281457Y276734D01*
X281287Y278461D01*
X281005Y280173D01*
X280611Y281862D01*
X280107Y283523D01*
X279496Y285147D01*
X278780Y286727D01*
X277962Y288257D01*
X277046Y289730D01*
X276035Y291141D01*
X274934Y292482D01*
X273748Y293748D01*
X272482Y294934D01*
X271141Y296035D01*
X269730Y297046D01*
X268257Y297962D01*
X266727Y298780D01*
X265147Y299496D01*
X263523Y300107D01*
X261862Y300611D01*
X260173Y301005D01*
X258461Y301287D01*
X256734Y301457D01*
X255000Y301514D01*
D02*
G37*
G36*
X1231770Y266540D02*
Y261270D01*
X1237040D01*
Y266540D01*
X1231770D01*
D02*
G37*
G36*
X586230Y335540D02*
X580460D01*
Y331270D01*
X586230D01*
Y335540D01*
D02*
G37*
G36*
X594540Y328730D02*
X588770D01*
Y324460D01*
X594540D01*
Y328730D01*
D02*
G37*
G36*
X586230D02*
X580460D01*
Y324460D01*
X586230D01*
Y328730D01*
D02*
G37*
G36*
X808730Y413730D02*
X803460D01*
Y408460D01*
X808730D01*
Y413730D01*
D02*
G37*
G36*
X439540Y405290D02*
X436020D01*
Y396770D01*
X439540D01*
Y405290D01*
D02*
G37*
G36*
Y394230D02*
X436020D01*
Y385710D01*
X439540D01*
Y394230D01*
D02*
G37*
G36*
X816540Y413730D02*
X811270D01*
Y408460D01*
X816540D01*
Y413730D01*
D02*
G37*
G36*
X1106230Y439030D02*
X1096037D01*
X1096144Y438310D01*
X1096387Y437338D01*
X1096724Y436396D01*
X1097152Y435491D01*
X1097667Y434632D01*
X1098263Y433828D01*
X1098936Y433086D01*
X1099678Y432413D01*
X1100482Y431817D01*
X1101341Y431302D01*
X1102246Y430874D01*
X1103188Y430537D01*
X1104160Y430294D01*
X1105150Y430147D01*
X1106150Y430098D01*
X1106230D01*
Y439030D01*
D02*
G37*
G36*
X834040Y413730D02*
X828770D01*
Y408460D01*
X834040D01*
Y413730D01*
D02*
G37*
G36*
X826230D02*
X820960D01*
Y408460D01*
X826230D01*
Y413730D01*
D02*
G37*
G36*
X502040Y365540D02*
X496270D01*
Y361270D01*
X502040D01*
Y365540D01*
D02*
G37*
G36*
X493730D02*
X487960D01*
Y361270D01*
X493730D01*
Y365540D01*
D02*
G37*
G36*
X502040Y358730D02*
X496270D01*
Y354460D01*
X502040D01*
Y358730D01*
D02*
G37*
G36*
X451230Y371230D02*
X446960D01*
Y365460D01*
X451230D01*
Y371230D01*
D02*
G37*
G36*
X458040Y379540D02*
X453770D01*
Y373770D01*
X458040D01*
Y379540D01*
D02*
G37*
G36*
X451230D02*
X446960D01*
Y373770D01*
X451230D01*
Y379540D01*
D02*
G37*
G36*
X458040Y371230D02*
X453770D01*
Y365460D01*
X458040D01*
Y371230D01*
D02*
G37*
G36*
X527540Y935040D02*
X523270D01*
Y929270D01*
X527540D01*
Y935040D01*
D02*
G37*
G36*
X353730Y878730D02*
X348460D01*
Y873460D01*
X353730D01*
Y878730D01*
D02*
G37*
G36*
X381040Y874230D02*
X376770D01*
Y868460D01*
X381040D01*
Y874230D01*
D02*
G37*
G36*
X520730Y935040D02*
X516460D01*
Y929270D01*
X520730D01*
Y935040D01*
D02*
G37*
G36*
X374230Y882540D02*
X369960D01*
Y876770D01*
X374230D01*
Y882540D01*
D02*
G37*
G36*
X361540Y878730D02*
X356270D01*
Y873460D01*
X361540D01*
Y878730D01*
D02*
G37*
G36*
X588040Y991340D02*
X565960D01*
Y978260D01*
X588040D01*
Y978747D01*
X647693D01*
X730720Y895720D01*
X731315Y895198D01*
X731973Y894758D01*
X732684Y894408D01*
X732874Y894343D01*
X733433Y894153D01*
X734210Y893999D01*
X735000Y893947D01*
X812500D01*
X813290Y893999D01*
X814067Y894153D01*
X814442Y894281D01*
X814816Y894408D01*
X815171Y894583D01*
X815527Y894758D01*
X816185Y895198D01*
X816780Y895720D01*
X847332Y926272D01*
X847746Y926168D01*
X848867Y926002D01*
X850000Y925946D01*
X851133Y926002D01*
X852254Y926168D01*
X853354Y926444D01*
X854421Y926826D01*
X855446Y927310D01*
X856419Y927893D01*
X857330Y928569D01*
X858170Y929330D01*
X858931Y930170D01*
X859607Y931081D01*
X860190Y932054D01*
X860674Y933079D01*
X861056Y934146D01*
X861332Y935246D01*
X861498Y936367D01*
X861554Y937500D01*
X861498Y938633D01*
X861332Y939754D01*
X861056Y940854D01*
X860674Y941921D01*
X860190Y942946D01*
X859607Y943919D01*
X858931Y944830D01*
X858170Y945670D01*
X857330Y946431D01*
X856419Y947107D01*
X855446Y947690D01*
X854421Y948174D01*
X853354Y948556D01*
X852254Y948832D01*
X851133Y948998D01*
X850000Y949054D01*
X848867Y948998D01*
X847746Y948832D01*
X846646Y948556D01*
X845579Y948174D01*
X844554Y947690D01*
X843581Y947107D01*
X842670Y946431D01*
X841830Y945670D01*
X841069Y944830D01*
X840393Y943919D01*
X839810Y942946D01*
X839326Y941921D01*
X838944Y940854D01*
X838668Y939754D01*
X838502Y938633D01*
X838446Y937500D01*
X838502Y936367D01*
X838668Y935246D01*
X838772Y934832D01*
X809993Y906053D01*
X737507D01*
X654480Y989080D01*
X653885Y989602D01*
X653226Y990042D01*
X652871Y990217D01*
X652516Y990392D01*
X652141Y990519D01*
X651767Y990647D01*
X650990Y990801D01*
X650200Y990853D01*
X588040D01*
Y991340D01*
D02*
G37*
G36*
X374230Y874230D02*
X369960D01*
Y868460D01*
X374230D01*
Y874230D01*
D02*
G37*
G36*
X1132040Y950540D02*
X1117960D01*
Y939460D01*
X1132040D01*
X1132040Y939460D01*
Y939460D01*
X1133972Y938123D01*
X1134297Y937798D01*
X1134753Y937408D01*
X1135265Y937095D01*
X1135427Y937028D01*
X1135819Y936865D01*
X1136402Y936725D01*
X1137000Y936678D01*
X1137460D01*
Y933460D01*
X1148540D01*
Y947540D01*
X1137460D01*
X1137460Y947540D01*
X1135043Y947838D01*
X1134746Y948092D01*
X1134235Y948405D01*
X1133958Y948520D01*
X1133681Y948635D01*
X1133098Y948775D01*
X1132500Y948822D01*
X1132040D01*
Y950540D01*
D02*
G37*
G36*
X1160730Y939230D02*
X1156460D01*
Y933460D01*
X1160730D01*
Y939230D01*
D02*
G37*
G36*
X1167540D02*
X1163270D01*
Y933460D01*
X1167540D01*
Y939230D01*
D02*
G37*
G36*
X250000Y1002552D02*
X249015Y1002504D01*
X248039Y1002359D01*
X247082Y1002119D01*
X246153Y1001787D01*
X245261Y1001365D01*
X244415Y1000858D01*
X243623Y1000270D01*
X242892Y999608D01*
X242230Y998877D01*
X241642Y998085D01*
X241135Y997238D01*
X240713Y996347D01*
X240381Y995418D01*
X240141Y994461D01*
X239996Y993485D01*
X239948Y992500D01*
X239996Y991515D01*
X240141Y990539D01*
X240381Y989582D01*
X240713Y988653D01*
X241135Y987762D01*
X241642Y986915D01*
X242230Y986123D01*
X242892Y985392D01*
X243623Y984730D01*
X244415Y984142D01*
X245261Y983635D01*
X246153Y983213D01*
X246178Y983204D01*
Y944040D01*
X244460D01*
Y929960D01*
X255540D01*
Y944040D01*
X253822D01*
Y983204D01*
X253847Y983213D01*
X254739Y983635D01*
X255585Y984142D01*
X256377Y984730D01*
X257108Y985392D01*
X257770Y986123D01*
X258358Y986915D01*
X258865Y987762D01*
X259287Y988653D01*
X259619Y989582D01*
X259859Y990539D01*
X260004Y991515D01*
X260052Y992500D01*
X260004Y993485D01*
X259859Y994461D01*
X259619Y995418D01*
X259287Y996347D01*
X258865Y997238D01*
X258358Y998085D01*
X257770Y998877D01*
X257108Y999608D01*
X256377Y1000270D01*
X255585Y1000858D01*
X254739Y1001365D01*
X253847Y1001787D01*
X252918Y1002119D01*
X251961Y1002359D01*
X250985Y1002504D01*
X250000Y1002552D01*
D02*
G37*
G36*
X424040Y861540D02*
X416270D01*
Y855770D01*
X424040D01*
Y861540D01*
D02*
G37*
G36*
X413730D02*
X405960D01*
Y855770D01*
X413730D01*
Y861540D01*
D02*
G37*
G36*
X243770Y857461D02*
Y848770D01*
X252461D01*
X252359Y849461D01*
X252119Y850418D01*
X251787Y851347D01*
X251365Y852238D01*
X250858Y853085D01*
X250270Y853877D01*
X249608Y854608D01*
X248877Y855270D01*
X248085Y855858D01*
X247239Y856365D01*
X246347Y856787D01*
X245418Y857119D01*
X244461Y857359D01*
X243770Y857461D01*
D02*
G37*
G36*
X424040Y904040D02*
X416270D01*
Y898270D01*
X424040D01*
Y904040D01*
D02*
G37*
G36*
X492040Y938040D02*
X477960D01*
Y926960D01*
X492040D01*
X492040Y926960D01*
Y926960D01*
X493973Y925623D01*
X494297Y925298D01*
X494753Y924908D01*
X495265Y924595D01*
X495542Y924480D01*
X495819Y924365D01*
X496402Y924225D01*
X497000Y924178D01*
X497460D01*
Y920960D01*
X508540D01*
Y935040D01*
X497460D01*
X497460Y935040D01*
X495043Y935338D01*
X494746Y935592D01*
X494235Y935905D01*
X493958Y936020D01*
X493681Y936135D01*
X493098Y936275D01*
X492500Y936322D01*
X492040D01*
Y938040D01*
D02*
G37*
G36*
X520730Y926730D02*
X516460D01*
Y920960D01*
X520730D01*
Y926730D01*
D02*
G37*
G36*
X258230Y911730D02*
X253960D01*
Y905960D01*
X258230D01*
Y911730D01*
D02*
G37*
G36*
X265040Y920040D02*
X260770D01*
Y914270D01*
X265040D01*
Y920040D01*
D02*
G37*
G36*
X258230D02*
X253960D01*
Y914270D01*
X258230D01*
Y920040D01*
D02*
G37*
G36*
X265040Y911730D02*
X260770D01*
Y905960D01*
X265040D01*
Y911730D01*
D02*
G37*
G36*
X527540Y926730D02*
X523270D01*
Y920960D01*
X527540D01*
Y926730D01*
D02*
G37*
G36*
X246040Y920040D02*
X234960D01*
Y905960D01*
X236178D01*
Y900540D01*
X232960D01*
Y889460D01*
X247040D01*
Y900540D01*
X243822D01*
Y905960D01*
X246040D01*
Y920040D01*
D02*
G37*
G36*
X424040Y885040D02*
X405960D01*
Y883051D01*
X405500D01*
X404841Y883008D01*
X404193Y882879D01*
X403567Y882666D01*
X402975Y882374D01*
X402580Y882111D01*
X400040Y882540D01*
Y882540D01*
X388960D01*
Y868460D01*
X389449D01*
Y864040D01*
X379460D01*
Y862051D01*
X374500D01*
X373841Y862008D01*
X373193Y861879D01*
X372567Y861667D01*
X371975Y861374D01*
X371426Y861007D01*
X370929Y860572D01*
X367908Y857551D01*
X361540D01*
Y859040D01*
X348460D01*
Y858553D01*
X337500D01*
X336710Y858501D01*
X335933Y858347D01*
X335184Y858092D01*
X334473Y857742D01*
X333815Y857302D01*
X333220Y856780D01*
X332698Y856185D01*
X332258Y855527D01*
X331908Y854816D01*
X331653Y854067D01*
X331499Y853290D01*
X331447Y852500D01*
X331499Y851710D01*
X331653Y850933D01*
X331908Y850184D01*
X332258Y849473D01*
X332698Y848815D01*
X333220Y848220D01*
X333815Y847698D01*
X334473Y847258D01*
X335184Y846908D01*
X335933Y846653D01*
X336710Y846499D01*
X337500Y846447D01*
X348139D01*
X348460Y844040D01*
X348460Y843420D01*
Y838770D01*
X355000D01*
X361540D01*
Y843420D01*
X361540Y844040D01*
Y844909D01*
X361636Y846026D01*
X363720Y847449D01*
X370000D01*
X370659Y847492D01*
X371307Y847621D01*
X371933Y847834D01*
X372525Y848126D01*
X373075Y848493D01*
X373572Y848929D01*
X376592Y851949D01*
X379460D01*
Y849960D01*
X390540D01*
Y851949D01*
X392000D01*
X392659Y851993D01*
X393307Y852122D01*
X393933Y852334D01*
X394526Y852626D01*
X395075Y852993D01*
X395572Y853429D01*
X398071Y855928D01*
X398507Y856425D01*
X398874Y856974D01*
X399166Y857567D01*
X399379Y858193D01*
X399507Y858841D01*
X399551Y859500D01*
Y868460D01*
X400040D01*
Y870449D01*
X403000D01*
X403660Y870493D01*
X404308Y870622D01*
X405960Y870960D01*
X405960Y870960D01*
X405960Y870960D01*
X424040D01*
Y885040D01*
D02*
G37*
G36*
X381040Y882540D02*
X376770D01*
Y876770D01*
X381040D01*
Y882540D01*
D02*
G37*
G36*
X413730Y895730D02*
X405960D01*
Y889960D01*
X413730D01*
Y895730D01*
D02*
G37*
G36*
Y904040D02*
X405960D01*
Y898270D01*
X413730D01*
Y904040D01*
D02*
G37*
G36*
X424040Y895730D02*
X416270D01*
Y889960D01*
X424040D01*
Y895730D01*
D02*
G37*
G36*
X588040Y1016740D02*
X565960D01*
Y1003660D01*
X588040D01*
Y1004147D01*
X674793D01*
X738772Y940168D01*
X738668Y939754D01*
X738502Y938633D01*
X738446Y937500D01*
X738502Y936367D01*
X738668Y935246D01*
X738944Y934146D01*
X739326Y933079D01*
X739810Y932054D01*
X740393Y931081D01*
X741069Y930170D01*
X741830Y929330D01*
X742670Y928569D01*
X743581Y927893D01*
X744554Y927310D01*
X745579Y926826D01*
X746646Y926444D01*
X747746Y926168D01*
X748867Y926002D01*
X750000Y925946D01*
X751133Y926002D01*
X752254Y926168D01*
X753354Y926444D01*
X754421Y926826D01*
X755446Y927310D01*
X756419Y927893D01*
X757330Y928569D01*
X758170Y929330D01*
X758931Y930170D01*
X759607Y931081D01*
X760190Y932054D01*
X760674Y933079D01*
X761056Y934146D01*
X761332Y935246D01*
X761498Y936367D01*
X761554Y937500D01*
X761498Y938633D01*
X761332Y939754D01*
X761056Y940854D01*
X760674Y941921D01*
X760190Y942946D01*
X759607Y943919D01*
X758931Y944830D01*
X758170Y945670D01*
X757330Y946431D01*
X756419Y947107D01*
X755446Y947690D01*
X754421Y948174D01*
X753354Y948556D01*
X752254Y948832D01*
X751133Y948998D01*
X750000Y949054D01*
X748867Y948998D01*
X747746Y948832D01*
X747332Y948728D01*
X681580Y1014480D01*
X680985Y1015002D01*
X680327Y1015442D01*
X679616Y1015792D01*
X679426Y1015857D01*
X678867Y1016047D01*
X678090Y1016201D01*
X677300Y1016253D01*
X588040D01*
Y1016740D01*
D02*
G37*
G36*
X498655Y1021430D02*
X471985D01*
Y998570D01*
X481178D01*
Y953040D01*
X477960D01*
Y941960D01*
X492040D01*
Y953040D01*
X488822D01*
Y998570D01*
X498655D01*
Y1004147D01*
X506960D01*
Y1003660D01*
X529040D01*
Y1016740D01*
X506960D01*
Y1016253D01*
X498655D01*
Y1021430D01*
D02*
G37*
G36*
X363730Y1016230D02*
X355793D01*
X355929Y1015430D01*
X356217Y1014427D01*
X356617Y1013463D01*
X357122Y1012550D01*
X357725Y1011699D01*
X358421Y1010921D01*
X359199Y1010225D01*
X360050Y1009622D01*
X360963Y1009117D01*
X361927Y1008717D01*
X362929Y1008429D01*
X363730Y1008293D01*
Y1016230D01*
D02*
G37*
G36*
X374207D02*
X366270D01*
Y1008293D01*
X367070Y1008429D01*
X368073Y1008717D01*
X369037Y1009117D01*
X369950Y1009622D01*
X370801Y1010225D01*
X371579Y1010921D01*
X372275Y1011699D01*
X372878Y1012550D01*
X373383Y1013463D01*
X373782Y1014427D01*
X374071Y1015430D01*
X374207Y1016230D01*
D02*
G37*
G36*
X529040Y991340D02*
X519270D01*
Y986070D01*
X529040D01*
Y991340D01*
D02*
G37*
G36*
X1327540Y837040D02*
X1313270D01*
Y828770D01*
X1327540D01*
Y837040D01*
D02*
G37*
G36*
X1233540D02*
X1219270D01*
Y828770D01*
X1233540D01*
Y837040D01*
D02*
G37*
G36*
X516730Y991340D02*
X506960D01*
Y986070D01*
X516730D01*
Y991340D01*
D02*
G37*
G36*
X381040Y831730D02*
X376770D01*
Y825960D01*
X381040D01*
Y831730D01*
D02*
G37*
G36*
X374230D02*
X369960D01*
Y825960D01*
X374230D01*
Y831730D01*
D02*
G37*
G36*
X1327540Y826230D02*
X1313270D01*
Y817960D01*
X1327540D01*
Y826230D01*
D02*
G37*
G36*
X1310730Y837040D02*
X1296460D01*
Y828770D01*
X1310730D01*
Y837040D01*
D02*
G37*
G36*
X363730Y1026707D02*
X362929Y1026571D01*
X361927Y1026283D01*
X360963Y1025883D01*
X360050Y1025378D01*
X359199Y1024775D01*
X358421Y1024079D01*
X357725Y1023301D01*
X357122Y1022450D01*
X356617Y1021537D01*
X356217Y1020573D01*
X355929Y1019570D01*
X355793Y1018770D01*
X363730D01*
Y1026707D01*
D02*
G37*
G36*
X366270D02*
Y1018770D01*
X374207D01*
X374071Y1019570D01*
X373782Y1020573D01*
X373383Y1021537D01*
X372878Y1022450D01*
X372275Y1023301D01*
X371579Y1024079D01*
X370801Y1024775D01*
X369950Y1025378D01*
X369037Y1025883D01*
X368073Y1026283D01*
X367070Y1026571D01*
X366270Y1026707D01*
D02*
G37*
G36*
X1216730Y837040D02*
X1202460D01*
Y828770D01*
X1216730D01*
Y837040D01*
D02*
G37*
G36*
X353730Y836230D02*
X348460D01*
Y830960D01*
X353730D01*
Y836230D01*
D02*
G37*
G36*
X252461Y846230D02*
X243770D01*
Y837539D01*
X244461Y837641D01*
X245418Y837881D01*
X246347Y838213D01*
X247239Y838635D01*
X248085Y839142D01*
X248877Y839730D01*
X249608Y840392D01*
X250270Y841123D01*
X250858Y841915D01*
X251365Y842762D01*
X251787Y843653D01*
X252119Y844582D01*
X252359Y845539D01*
X252461Y846230D01*
D02*
G37*
G36*
X241230Y857461D02*
X240539Y857359D01*
X239582Y857119D01*
X238653Y856787D01*
X237761Y856365D01*
X236915Y855858D01*
X236123Y855270D01*
X235392Y854608D01*
X234730Y853877D01*
X234142Y853085D01*
X233635Y852238D01*
X233213Y851347D01*
X232881Y850418D01*
X232641Y849461D01*
X232539Y848770D01*
X241230D01*
Y857461D01*
D02*
G37*
G36*
X516730Y983530D02*
X506960D01*
Y978260D01*
X516730D01*
Y983530D01*
D02*
G37*
G36*
X458015Y1021430D02*
X431345D01*
Y998570D01*
X437128D01*
Y975052D01*
X370411D01*
X369950Y975378D01*
X369037Y975883D01*
X368073Y976283D01*
X367070Y976571D01*
X366042Y976746D01*
X365000Y976805D01*
X363958Y976746D01*
X362929Y976571D01*
X361927Y976283D01*
X360963Y975883D01*
X360050Y975378D01*
X359199Y974775D01*
X358421Y974079D01*
X357725Y973301D01*
X357122Y972450D01*
X356617Y971537D01*
X356217Y970573D01*
X355929Y969570D01*
X355834Y969014D01*
X349660Y962840D01*
X349096Y962209D01*
X348606Y961518D01*
X348196Y960777D01*
X348006Y960318D01*
X347872Y959994D01*
X347637Y959181D01*
X347496Y958346D01*
X347448Y957500D01*
X347448Y957500D01*
Y915000D01*
X347496Y914155D01*
X347637Y913320D01*
X347872Y912506D01*
X348196Y911723D01*
X348606Y910982D01*
X348947Y910501D01*
Y901540D01*
X348460D01*
Y889080D01*
X348460Y888460D01*
Y887500D01*
Y886540D01*
X348460Y885920D01*
Y881270D01*
X355000D01*
X361540D01*
Y885920D01*
X361540Y886540D01*
Y887409D01*
X361636Y888526D01*
X363720Y889949D01*
X367500D01*
X368159Y889992D01*
X368807Y890121D01*
X369433Y890334D01*
X370025Y890626D01*
X370575Y890993D01*
X371072Y891429D01*
X374092Y894449D01*
X379460D01*
Y892460D01*
X390540D01*
Y906540D01*
X379460D01*
Y904551D01*
X372000D01*
X371341Y904508D01*
X370693Y904379D01*
X370067Y904167D01*
X369475Y903874D01*
X368926Y903507D01*
X368429Y903072D01*
X365408Y900051D01*
X361540D01*
Y901540D01*
X361053D01*
Y910501D01*
X361394Y910982D01*
X361804Y911723D01*
X362128Y912506D01*
X362363Y913320D01*
X362504Y914155D01*
X362552Y915000D01*
Y954372D01*
X366514Y958334D01*
X367070Y958429D01*
X368073Y958717D01*
X369037Y959117D01*
X369950Y959622D01*
X370411Y959948D01*
X438382D01*
X438623Y959730D01*
X439415Y959142D01*
X440261Y958635D01*
X441153Y958213D01*
X442082Y957881D01*
X443039Y957641D01*
X444015Y957496D01*
X445000Y957448D01*
X445985Y957496D01*
X446961Y957641D01*
X447918Y957881D01*
X448847Y958213D01*
X449739Y958635D01*
X450585Y959142D01*
X451377Y959730D01*
X452108Y960392D01*
X452770Y961123D01*
X453358Y961915D01*
X453865Y962762D01*
X454287Y963653D01*
X454619Y964582D01*
X454859Y965539D01*
X455004Y966515D01*
X455052Y967500D01*
X455004Y968485D01*
X454859Y969461D01*
X454619Y970418D01*
X454287Y971347D01*
X453865Y972238D01*
X453358Y973085D01*
X452770Y973877D01*
X452232Y974471D01*
Y998570D01*
X458015D01*
Y1021430D01*
D02*
G37*
G36*
X413730Y853230D02*
X405960D01*
Y847460D01*
X413730D01*
Y853230D01*
D02*
G37*
G36*
X424040D02*
X416270D01*
Y847460D01*
X424040D01*
Y853230D01*
D02*
G37*
G36*
X241230Y846230D02*
X232539D01*
X232641Y845539D01*
X232881Y844582D01*
X233213Y843653D01*
X233635Y842762D01*
X234142Y841915D01*
X234730Y841123D01*
X235392Y840392D01*
X236123Y839730D01*
X236915Y839142D01*
X237761Y838635D01*
X238653Y838213D01*
X239582Y837881D01*
X240539Y837641D01*
X241230Y837539D01*
Y846230D01*
D02*
G37*
G36*
X381040Y840040D02*
X376770D01*
Y834270D01*
X381040D01*
Y840040D01*
D02*
G37*
G36*
X374230D02*
X369960D01*
Y834270D01*
X374230D01*
Y840040D01*
D02*
G37*
G36*
X361540Y836230D02*
X356270D01*
Y830960D01*
X361540D01*
Y836230D01*
D02*
G37*
G36*
X1167540Y947540D02*
X1163270D01*
Y941770D01*
X1167540D01*
Y947540D01*
D02*
G37*
G36*
X1160730D02*
X1156460D01*
Y941770D01*
X1160730D01*
Y947540D01*
D02*
G37*
G36*
X529040Y983530D02*
X519270D01*
Y978260D01*
X529040D01*
Y983530D01*
D02*
G37*
%LPD*%
G36*
X946178Y393417D02*
Y320000D01*
X946225Y319402D01*
X946365Y318819D01*
X946480Y318542D01*
X946595Y318265D01*
X946908Y317754D01*
X947298Y317298D01*
X963678Y300917D01*
Y297736D01*
X963549Y297650D01*
X962910Y297090D01*
X962706Y296856D01*
X962453Y296734D01*
X961150Y296587D01*
X959847Y296734D01*
X959594Y296856D01*
X959390Y297090D01*
X958751Y297650D01*
X958045Y298121D01*
X957284Y298497D01*
X956480Y298770D01*
X955647Y298935D01*
X954800Y298991D01*
X953953Y298935D01*
X953800Y298905D01*
X938822Y313883D01*
Y397181D01*
X941362Y398233D01*
X946178Y393417D01*
D02*
G37*
G36*
X956365Y338819D02*
X956480Y338542D01*
X956595Y338265D01*
X956908Y337754D01*
X957298Y337298D01*
X976378Y318217D01*
Y297736D01*
X976248Y297650D01*
X975610Y297090D01*
X975406Y296856D01*
X975153Y296734D01*
X973850Y296587D01*
X972547Y296734D01*
X972294Y296856D01*
X972090Y297090D01*
X971451Y297650D01*
X971322Y297736D01*
Y302500D01*
X971275Y303098D01*
X971135Y303681D01*
X971020Y303958D01*
X970905Y304235D01*
X970592Y304746D01*
X970202Y305203D01*
X953822Y321583D01*
Y338533D01*
X956362Y338834D01*
X956365Y338819D01*
D02*
G37*
G36*
X1214178Y459540D02*
X1211960D01*
Y445460D01*
X1214181D01*
X1214225Y444902D01*
X1214365Y444319D01*
X1214480Y444042D01*
X1214595Y443765D01*
X1214908Y443254D01*
X1215298Y442798D01*
X1216015Y442080D01*
X1214963Y439540D01*
X1211960D01*
Y425460D01*
X1213678D01*
Y421583D01*
X1212798Y420702D01*
X1212408Y420246D01*
X1212095Y419735D01*
X1211980Y419458D01*
X1211865Y419181D01*
X1211831Y419040D01*
X1208960D01*
Y416322D01*
X1200000D01*
X1199402Y416275D01*
X1198819Y416135D01*
X1198542Y416020D01*
X1198265Y415905D01*
X1197754Y415592D01*
X1197298Y415202D01*
X1154623Y372528D01*
X1107877D01*
X1104267Y376138D01*
X1105319Y378678D01*
X1155000D01*
X1155598Y378725D01*
X1156181Y378865D01*
X1156458Y378980D01*
X1156735Y379095D01*
X1157246Y379408D01*
X1157702Y379798D01*
X1200202Y422298D01*
X1200592Y422754D01*
X1200905Y423265D01*
X1201020Y423542D01*
X1201135Y423819D01*
X1201275Y424402D01*
X1201322Y425000D01*
Y470891D01*
X1202460Y472960D01*
X1214178D01*
Y459540D01*
D02*
G37*
G36*
X1157719Y392986D02*
X1158288Y391192D01*
X1153417Y386322D01*
X1104083D01*
X1099267Y391138D01*
X1100319Y393678D01*
X1157181D01*
X1157719Y392986D01*
D02*
G37*
G36*
X531270Y373460D02*
X536540D01*
Y373460D01*
X537909D01*
X539843Y372447D01*
X539748Y370303D01*
X539631Y369847D01*
X539252Y369691D01*
X538810Y369420D01*
X538416Y369084D01*
X538080Y368690D01*
X537809Y368248D01*
X537611Y367770D01*
X537491Y367266D01*
X537450Y366750D01*
Y362250D01*
X537491Y361734D01*
X537580Y361362D01*
X537595Y361197D01*
X536798Y359585D01*
X536211Y358908D01*
X536096Y358822D01*
X536000D01*
X535402Y358775D01*
X534819Y358635D01*
X534542Y358520D01*
X534265Y358405D01*
X533754Y358092D01*
X533298Y357702D01*
X530090Y354495D01*
X528960Y354679D01*
X527550Y355482D01*
Y357250D01*
X527509Y357766D01*
X527389Y358270D01*
X527191Y358748D01*
X526920Y359190D01*
X526584Y359584D01*
Y359916D01*
X526920Y360310D01*
X527191Y360752D01*
X527389Y361230D01*
X527509Y361734D01*
X527550Y362250D01*
Y366750D01*
X527509Y367266D01*
X527389Y367770D01*
X527191Y368248D01*
X526920Y368690D01*
X526584Y369084D01*
X526190Y369420D01*
X525748Y369691D01*
X525270Y369889D01*
X524766Y370010D01*
X524250Y370050D01*
X523963Y370920D01*
X525760Y373460D01*
X528730D01*
Y380000D01*
X531270D01*
Y373460D01*
D02*
G37*
G36*
X784473Y559758D02*
X785184Y559408D01*
X785933Y559153D01*
X786710Y558999D01*
X787500Y558947D01*
X838947D01*
Y540000D01*
X838999Y539210D01*
X839153Y538433D01*
X839281Y538059D01*
X839408Y537684D01*
X839583Y537328D01*
X839758Y536973D01*
X840198Y536315D01*
X840720Y535720D01*
X843947Y532493D01*
Y527500D01*
X843999Y526710D01*
X844153Y525933D01*
X844408Y525184D01*
X844758Y524473D01*
X844949Y524187D01*
Y505000D01*
X844992Y504341D01*
X845121Y503693D01*
X845334Y503067D01*
X845626Y502475D01*
X845993Y501925D01*
X846178Y501714D01*
Y500000D01*
X846225Y499402D01*
X846365Y498819D01*
X846480Y498542D01*
X846595Y498265D01*
X846908Y497754D01*
X847298Y497298D01*
X849798Y494798D01*
X850254Y494408D01*
X850765Y494095D01*
X851319Y493865D01*
X851902Y493725D01*
X852500Y493678D01*
X853960D01*
Y493460D01*
Y488460D01*
Y487263D01*
X851613Y486292D01*
X839822Y498083D01*
Y515000D01*
X839775Y515598D01*
X839635Y516181D01*
X839520Y516458D01*
X839405Y516735D01*
X839092Y517246D01*
X838702Y517702D01*
X803702Y552702D01*
X803246Y553092D01*
X802735Y553405D01*
X802458Y553520D01*
X802181Y553635D01*
X801598Y553775D01*
X801000Y553822D01*
X791517D01*
X791426Y553926D01*
X790880Y554405D01*
X790276Y554808D01*
X789625Y555129D01*
X788937Y555363D01*
X788225Y555504D01*
X787500Y555552D01*
X786775Y555504D01*
X786063Y555363D01*
X785375Y555129D01*
X784724Y554808D01*
X784120Y554405D01*
X783862Y554178D01*
X782763Y554388D01*
X781322Y555210D01*
Y559039D01*
X781760Y559427D01*
X783815Y560198D01*
X784473Y559758D01*
D02*
G37*
G36*
X1009798Y417298D02*
X1010254Y416908D01*
X1010765Y416595D01*
X1011319Y416365D01*
X1011902Y416225D01*
X1012500Y416178D01*
X1063417D01*
X1070983Y408612D01*
X1069931Y406072D01*
X966333D01*
X882202Y490202D01*
X881746Y490592D01*
X881235Y490905D01*
X880958Y491020D01*
X880681Y491135D01*
X880667Y491138D01*
X880967Y493678D01*
X885960D01*
Y490960D01*
X898420D01*
X899040Y490960D01*
X900000D01*
X900960D01*
X901580Y490960D01*
X906230D01*
Y497500D01*
Y504040D01*
X901580D01*
X900960Y504040D01*
X900000D01*
X899040D01*
X898420Y504040D01*
X885960D01*
Y501322D01*
X871040D01*
Y503460D01*
Y508460D01*
Y508678D01*
X918417D01*
X1009798Y417298D01*
D02*
G37*
G36*
X1341447Y457551D02*
X1238040D01*
Y459540D01*
X1226960D01*
Y446870D01*
X1223040D01*
Y459540D01*
X1221822D01*
Y472960D01*
X1233540D01*
Y478678D01*
X1296460D01*
Y472960D01*
X1327540D01*
Y492040D01*
X1296460D01*
Y486322D01*
X1233540D01*
Y492040D01*
X1202460D01*
X1201322Y494109D01*
Y515891D01*
X1202460Y517960D01*
X1203862Y517960D01*
X1216730D01*
Y527500D01*
Y537040D01*
X1203862D01*
X1202460Y537040D01*
X1201322Y539109D01*
Y539109D01*
Y553417D01*
X1206420Y558515D01*
X1208960Y558285D01*
Y555960D01*
X1221420D01*
X1222040Y555960D01*
X1223000D01*
X1223960D01*
X1224580Y555960D01*
X1229230D01*
Y562500D01*
Y569040D01*
X1224580D01*
X1223960Y569040D01*
X1223464D01*
X1221322Y570885D01*
Y575460D01*
X1223040D01*
Y589226D01*
X1226960D01*
Y575460D01*
X1238040D01*
Y589540D01*
X1236822D01*
Y590500D01*
X1236775Y591098D01*
X1236635Y591681D01*
X1236520Y591958D01*
X1236405Y592235D01*
X1236092Y592746D01*
X1235944Y592920D01*
X1236264Y594559D01*
X1236637Y595460D01*
X1238040D01*
Y597449D01*
X1341447D01*
Y457551D01*
D02*
G37*
G36*
X410460Y434007D02*
Y429710D01*
X430928D01*
Y423833D01*
X428417Y421322D01*
X422500D01*
X421902Y421275D01*
X421319Y421135D01*
X420765Y420905D01*
X420254Y420592D01*
X419798Y420202D01*
X412548Y412952D01*
X412158Y412496D01*
X411845Y411985D01*
X411730Y411708D01*
X411615Y411431D01*
X411475Y410848D01*
X411428Y410250D01*
Y405290D01*
X410460D01*
Y399322D01*
X405500D01*
X404902Y399275D01*
X404319Y399135D01*
X403765Y398905D01*
X403254Y398592D01*
X402798Y398202D01*
X394798Y390202D01*
X394408Y389746D01*
X394095Y389235D01*
X393980Y388958D01*
X393865Y388681D01*
X393725Y388098D01*
X393678Y387500D01*
Y379540D01*
X391960D01*
Y365460D01*
X393678D01*
Y359040D01*
X390960D01*
Y359040D01*
X388553Y359361D01*
Y433947D01*
X393139D01*
X393460Y431540D01*
X393460Y430920D01*
Y426270D01*
X400000D01*
X406540D01*
Y430920D01*
X406540Y431540D01*
Y432500D01*
Y433460D01*
X407920Y434848D01*
X410460Y434007D01*
D02*
G37*
G36*
X1341447Y327507D02*
X1332493Y318553D01*
X1232500D01*
X1231710Y318501D01*
X1230933Y318347D01*
X1230184Y318092D01*
X1229473Y317742D01*
X1228815Y317302D01*
X1228220Y316780D01*
X1227698Y316185D01*
X1227258Y315527D01*
X1226908Y314816D01*
X1226653Y314067D01*
X1226499Y313290D01*
X1226447Y312500D01*
X1226499Y311710D01*
X1226653Y310933D01*
X1226908Y310184D01*
X1227258Y309474D01*
X1227256Y309457D01*
X1226960Y307040D01*
Y307040D01*
D01*
X1226960D01*
X1226960Y307040D01*
Y294370D01*
X1223040D01*
Y307040D01*
X1221322D01*
Y322960D01*
X1233540D01*
Y328678D01*
X1296460D01*
Y322960D01*
X1327540D01*
Y342040D01*
X1296460D01*
Y336322D01*
X1233540D01*
Y342040D01*
X1202460D01*
Y322960D01*
X1213678D01*
Y307040D01*
X1211960D01*
Y292960D01*
X1213681D01*
X1213725Y292402D01*
X1213865Y291819D01*
X1213980Y291542D01*
X1214095Y291265D01*
X1214408Y290754D01*
X1214798Y290298D01*
X1215515Y289580D01*
X1214463Y287040D01*
X1211960D01*
Y275308D01*
X1211960Y272960D01*
Y272960D01*
D01*
X1211960Y272959D01*
X1212523Y270591D01*
X1212556Y270420D01*
X1212408Y270246D01*
X1212095Y269735D01*
X1211980Y269458D01*
X1211865Y269181D01*
X1211725Y268598D01*
X1211678Y268000D01*
Y266540D01*
X1208960D01*
Y263822D01*
X986000D01*
X985402Y263775D01*
X984819Y263635D01*
X984427Y263472D01*
X984265Y263405D01*
X983754Y263092D01*
X983298Y262702D01*
X976667Y256072D01*
X969069D01*
X968017Y258612D01*
X970202Y260798D01*
X970592Y261254D01*
X970905Y261765D01*
X970972Y261927D01*
X971135Y262319D01*
X971275Y262902D01*
X971322Y263500D01*
Y274564D01*
X971451Y274650D01*
X972090Y275210D01*
X972294Y275444D01*
X972547Y275567D01*
X973850Y275713D01*
X975153Y275567D01*
X975406Y275444D01*
X975610Y275210D01*
X976248Y274650D01*
X976954Y274179D01*
X977716Y273803D01*
X978520Y273530D01*
X978930Y273449D01*
Y279800D01*
X981470D01*
Y273449D01*
X981880Y273530D01*
X982684Y273803D01*
X983063Y273990D01*
X983330Y274025D01*
X984400Y273804D01*
X985699Y273258D01*
X986053Y272940D01*
X986138Y272734D01*
X986545Y271997D01*
X987032Y271311D01*
X987593Y270683D01*
X988221Y270123D01*
X988907Y269636D01*
X989644Y269228D01*
X990421Y268906D01*
X991230Y268673D01*
X992060Y268532D01*
X992900Y268485D01*
X993740Y268532D01*
X994570Y268673D01*
X995379Y268906D01*
X996156Y269228D01*
X996893Y269636D01*
X997579Y270123D01*
X998207Y270683D01*
X998767Y271311D01*
X999254Y271997D01*
X999662Y272734D01*
X999984Y273511D01*
X1000217Y274320D01*
X1000358Y275150D01*
X1000405Y275990D01*
X1000358Y276830D01*
X1000217Y277660D01*
X999984Y278469D01*
X999662Y279246D01*
X999254Y279983D01*
X998767Y280669D01*
X998207Y281297D01*
X997579Y281858D01*
X996893Y282344D01*
X996156Y282752D01*
X995379Y283074D01*
X994570Y283307D01*
X993740Y283448D01*
X992900Y283495D01*
X992060Y283448D01*
X991230Y283307D01*
X990421Y283074D01*
X989644Y282752D01*
X988907Y282344D01*
X988868Y282317D01*
X987704Y282302D01*
X986953Y282481D01*
X985836Y283031D01*
X985821Y283046D01*
X985350Y283752D01*
X984790Y284390D01*
X984556Y284594D01*
X984434Y284847D01*
X984287Y286150D01*
X984434Y287453D01*
X984556Y287706D01*
X984790Y287910D01*
X985350Y288549D01*
X985821Y289255D01*
X985836Y289269D01*
X986953Y289819D01*
X987704Y289998D01*
X988868Y289983D01*
X988907Y289956D01*
X989644Y289548D01*
X990421Y289226D01*
X991230Y288993D01*
X992060Y288852D01*
X992900Y288805D01*
X993740Y288852D01*
X994570Y288993D01*
X995379Y289226D01*
X996156Y289548D01*
X996893Y289956D01*
X997579Y290443D01*
X998207Y291003D01*
X998767Y291631D01*
X999254Y292317D01*
X999662Y293054D01*
X999984Y293831D01*
X1000217Y294640D01*
X1000358Y295470D01*
X1000405Y296310D01*
X1000358Y297150D01*
X1000217Y297980D01*
X999984Y298789D01*
X999662Y299566D01*
X999254Y300303D01*
X998767Y300989D01*
X998207Y301617D01*
X997579Y302178D01*
X996893Y302665D01*
X996156Y303072D01*
X995379Y303394D01*
X994570Y303627D01*
X993740Y303768D01*
X992900Y303815D01*
X992060Y303768D01*
X991230Y303627D01*
X990421Y303394D01*
X989644Y303072D01*
X988907Y302665D01*
X988221Y302178D01*
X987593Y301617D01*
X987032Y300989D01*
X986545Y300303D01*
X984022Y300987D01*
Y319800D01*
X983975Y320398D01*
X983835Y320981D01*
X983672Y321373D01*
X983605Y321535D01*
X983292Y322046D01*
X982902Y322503D01*
X963822Y341583D01*
Y395000D01*
X963775Y395598D01*
X963635Y396181D01*
X964235Y397391D01*
X964393Y397596D01*
X965347Y398428D01*
X1071167D01*
X1103592Y366004D01*
X1104048Y365614D01*
X1104559Y365301D01*
X1105113Y365071D01*
X1105696Y364931D01*
X1106294Y364884D01*
X1156206D01*
X1156804Y364931D01*
X1157387Y365071D01*
X1157664Y365186D01*
X1157941Y365301D01*
X1158452Y365614D01*
X1158908Y366004D01*
X1201583Y408678D01*
X1208960D01*
Y405960D01*
X1221420D01*
X1222040Y405960D01*
X1223000D01*
X1223960D01*
X1224580Y405960D01*
X1229230D01*
Y412500D01*
Y419040D01*
X1224580D01*
X1223960Y419040D01*
X1223464D01*
X1221322Y420885D01*
Y425460D01*
X1223040D01*
Y439226D01*
X1226960D01*
Y425460D01*
X1238040D01*
Y439540D01*
X1236822D01*
Y440500D01*
X1236775Y441098D01*
X1236635Y441681D01*
X1236520Y441958D01*
X1236405Y442235D01*
X1236092Y442746D01*
X1235944Y442920D01*
X1236264Y444559D01*
X1236637Y445460D01*
X1238040D01*
Y447449D01*
X1341447D01*
Y327507D01*
D02*
G37*
G36*
X823678Y436540D02*
X820960D01*
Y433822D01*
X816540D01*
Y436540D01*
X803460D01*
Y433822D01*
X799040D01*
Y436540D01*
X785960D01*
Y423460D01*
X785960D01*
Y421540D01*
X785960D01*
Y408460D01*
X785960D01*
X786105Y407302D01*
X784072Y405051D01*
X752092D01*
X751053Y406090D01*
Y422493D01*
X753509Y424949D01*
X758780D01*
X760864Y423526D01*
X760960Y422409D01*
Y421540D01*
X760960Y420920D01*
Y416270D01*
X767500D01*
X774040D01*
Y420920D01*
X774040Y421540D01*
Y422500D01*
Y423460D01*
X774040Y424080D01*
Y436540D01*
X771322D01*
Y458960D01*
X823678D01*
Y436540D01*
D02*
G37*
G36*
X1341447Y607551D02*
X1238040D01*
Y609540D01*
X1226960D01*
Y596870D01*
X1223040D01*
Y609540D01*
X1221822D01*
Y622960D01*
X1233540D01*
Y628678D01*
X1296460D01*
Y622960D01*
X1327540D01*
Y642040D01*
X1296460D01*
Y636322D01*
X1233540D01*
Y642040D01*
X1202460D01*
X1201322Y644109D01*
Y665891D01*
X1202460Y667960D01*
X1203862Y667960D01*
X1216730D01*
Y677500D01*
Y687040D01*
X1203862D01*
X1202460Y687040D01*
X1201322Y689109D01*
Y689109D01*
Y703417D01*
X1206420Y708515D01*
X1208960Y708285D01*
Y705960D01*
X1221420D01*
X1222040Y705960D01*
X1223000D01*
X1223960D01*
X1224580Y705960D01*
X1229230D01*
Y712500D01*
Y719040D01*
X1224580D01*
X1223960Y719040D01*
X1223000D01*
X1222040D01*
X1221420Y719040D01*
X1219715D01*
X1219485Y721580D01*
X1220202Y722298D01*
X1220592Y722754D01*
X1220905Y723265D01*
X1221135Y723819D01*
X1221275Y724402D01*
X1221322Y725000D01*
Y725460D01*
X1223040D01*
Y738726D01*
X1226960D01*
Y725460D01*
X1238040D01*
Y739540D01*
X1236322D01*
Y740000D01*
X1236275Y740598D01*
X1236135Y741181D01*
X1236020Y741458D01*
X1235905Y741735D01*
X1235592Y742246D01*
X1235202Y742702D01*
X1234985Y742920D01*
X1236037Y745460D01*
X1238040D01*
Y747449D01*
X1341447D01*
Y607551D01*
D02*
G37*
%LPC*%
G36*
X1219270Y537040D02*
Y528770D01*
X1233540D01*
Y537040D01*
X1219270D01*
D02*
G37*
G36*
X1310730Y676230D02*
X1296460D01*
Y667960D01*
X1310730D01*
Y676230D01*
D02*
G37*
G36*
X1233540D02*
X1219270D01*
Y667960D01*
X1233540D01*
Y676230D01*
D02*
G37*
G36*
X1237040Y561230D02*
X1231770D01*
Y555960D01*
X1237040D01*
Y561230D01*
D02*
G37*
G36*
X1231770Y569040D02*
Y563770D01*
X1237040D01*
Y569040D01*
X1231770D01*
D02*
G37*
G36*
X1327540Y537040D02*
X1313270D01*
Y528770D01*
X1327540D01*
Y537040D01*
D02*
G37*
G36*
X1060800Y378304D02*
X1059364Y378248D01*
X1057937Y378079D01*
X1056527Y377798D01*
X1055144Y377408D01*
X1053795Y376911D01*
X1052490Y376309D01*
X1051236Y375607D01*
X1050041Y374808D01*
X1048912Y373918D01*
X1047857Y372943D01*
X1046881Y371888D01*
X1045992Y370759D01*
X1045193Y369564D01*
X1044491Y368310D01*
X1043889Y367005D01*
X1043392Y365656D01*
X1043002Y364273D01*
X1042721Y362863D01*
X1042552Y361436D01*
X1042496Y360000D01*
X1042552Y358564D01*
X1042721Y357137D01*
X1043002Y355727D01*
X1043392Y354344D01*
X1043889Y352995D01*
X1044491Y351690D01*
X1045193Y350436D01*
X1045992Y349241D01*
X1046881Y348112D01*
X1047857Y347057D01*
X1048912Y346082D01*
X1050041Y345192D01*
X1051236Y344393D01*
X1052490Y343691D01*
X1053795Y343089D01*
X1055144Y342592D01*
X1056527Y342202D01*
X1057937Y341921D01*
X1059364Y341752D01*
X1060800Y341696D01*
X1062236Y341752D01*
X1063663Y341921D01*
X1065073Y342202D01*
X1066456Y342592D01*
X1067805Y343089D01*
X1069110Y343691D01*
X1070364Y344393D01*
X1071559Y345192D01*
X1072688Y346082D01*
X1073743Y347057D01*
X1074718Y348112D01*
X1075608Y349241D01*
X1076407Y350436D01*
X1077109Y351690D01*
X1077711Y352995D01*
X1078208Y354344D01*
X1078598Y355727D01*
X1078879Y357137D01*
X1079048Y358564D01*
X1079104Y360000D01*
X1079048Y361436D01*
X1078879Y362863D01*
X1078598Y364273D01*
X1078208Y365656D01*
X1077711Y367005D01*
X1077109Y368310D01*
X1076407Y369564D01*
X1075608Y370759D01*
X1074718Y371888D01*
X1073743Y372943D01*
X1072688Y373918D01*
X1071559Y374808D01*
X1070364Y375607D01*
X1069110Y376309D01*
X1067805Y376911D01*
X1066456Y377408D01*
X1065073Y377798D01*
X1063663Y378079D01*
X1062236Y378248D01*
X1060800Y378304D01*
D02*
G37*
G36*
X1219270Y687040D02*
Y678770D01*
X1233540D01*
Y687040D01*
X1219270D01*
D02*
G37*
G36*
X1184961Y286230D02*
X1176270D01*
Y277539D01*
X1176961Y277641D01*
X1177918Y277881D01*
X1178847Y278213D01*
X1179738Y278635D01*
X1180585Y279142D01*
X1181377Y279730D01*
X1182108Y280392D01*
X1182770Y281123D01*
X1183358Y281915D01*
X1183865Y282761D01*
X1184287Y283653D01*
X1184619Y284582D01*
X1184859Y285539D01*
X1184961Y286230D01*
D02*
G37*
G36*
X1327540Y687040D02*
X1313270D01*
Y678770D01*
X1327540D01*
Y687040D01*
D02*
G37*
G36*
X1231770Y719040D02*
Y713770D01*
X1237040D01*
Y719040D01*
X1231770D01*
D02*
G37*
G36*
X1237040Y711230D02*
X1231770D01*
Y705960D01*
X1237040D01*
Y711230D01*
D02*
G37*
G36*
X1173730Y286230D02*
X1165039D01*
X1165141Y285539D01*
X1165381Y284582D01*
X1165713Y283653D01*
X1166135Y282761D01*
X1166642Y281915D01*
X1167230Y281123D01*
X1167892Y280392D01*
X1168623Y279730D01*
X1169415Y279142D01*
X1170262Y278635D01*
X1171153Y278213D01*
X1172082Y277881D01*
X1173039Y277641D01*
X1173730Y277539D01*
Y286230D01*
D02*
G37*
G36*
X1327540Y676230D02*
X1313270D01*
Y667960D01*
X1327540D01*
Y676230D01*
D02*
G37*
G36*
X1122500Y358553D02*
X1121710Y358501D01*
X1120933Y358347D01*
X1120184Y358092D01*
X1119473Y357742D01*
X1118815Y357302D01*
X1118220Y356780D01*
X1087493Y326053D01*
X995000D01*
X994210Y326001D01*
X993433Y325847D01*
X992684Y325592D01*
X991973Y325242D01*
X991315Y324802D01*
X990720Y324280D01*
X990198Y323685D01*
X989758Y323027D01*
X989408Y322316D01*
X989153Y321567D01*
X988999Y320790D01*
X988947Y320000D01*
X988999Y319210D01*
X989153Y318433D01*
X989408Y317684D01*
X989758Y316973D01*
X990198Y316315D01*
X990720Y315720D01*
X991315Y315198D01*
X991973Y314758D01*
X992684Y314408D01*
X993433Y314153D01*
X994210Y313999D01*
X995000Y313947D01*
X1090000D01*
X1090790Y313999D01*
X1091567Y314153D01*
X1091942Y314280D01*
X1092316Y314408D01*
X1092671Y314583D01*
X1093027Y314758D01*
X1093685Y315198D01*
X1094280Y315720D01*
X1126780Y348220D01*
X1127302Y348815D01*
X1127742Y349473D01*
X1128092Y350184D01*
X1128347Y350933D01*
X1128501Y351710D01*
X1128553Y352500D01*
X1128501Y353290D01*
X1128347Y354067D01*
X1128092Y354816D01*
X1127742Y355527D01*
X1127302Y356185D01*
X1126780Y356780D01*
X1126185Y357302D01*
X1125527Y357742D01*
X1124816Y358092D01*
X1124067Y358347D01*
X1123290Y358501D01*
X1122500Y358553D01*
D02*
G37*
G36*
X1310730Y687040D02*
X1296460D01*
Y678770D01*
X1310730D01*
Y687040D01*
D02*
G37*
G36*
X1173730Y297461D02*
X1173039Y297359D01*
X1172082Y297119D01*
X1171153Y296787D01*
X1170262Y296365D01*
X1169415Y295858D01*
X1168623Y295270D01*
X1167892Y294608D01*
X1167230Y293877D01*
X1166642Y293085D01*
X1166135Y292239D01*
X1165713Y291347D01*
X1165381Y290418D01*
X1165141Y289461D01*
X1165039Y288770D01*
X1173730D01*
Y297461D01*
D02*
G37*
G36*
X1176270Y297461D02*
Y288770D01*
X1184961D01*
X1184859Y289461D01*
X1184619Y290418D01*
X1184287Y291347D01*
X1183865Y292239D01*
X1183358Y293085D01*
X1182770Y293877D01*
X1182108Y294608D01*
X1181377Y295270D01*
X1180585Y295858D01*
X1179738Y296365D01*
X1178847Y296787D01*
X1177918Y297119D01*
X1176961Y297359D01*
X1176270Y297461D01*
D02*
G37*
G36*
X1233540Y387040D02*
X1219270D01*
Y378770D01*
X1233540D01*
Y387040D01*
D02*
G37*
G36*
X1327540D02*
X1313270D01*
Y378770D01*
X1327540D01*
Y387040D01*
D02*
G37*
G36*
X1216730D02*
X1202460D01*
Y378770D01*
X1216730D01*
Y387040D01*
D02*
G37*
G36*
X406540Y423730D02*
X401270D01*
Y418460D01*
X406540D01*
Y423730D01*
D02*
G37*
G36*
X1310730Y387040D02*
X1296460D01*
Y378770D01*
X1310730D01*
Y387040D01*
D02*
G37*
G36*
X1237040Y411230D02*
X1231770D01*
Y405960D01*
X1237040D01*
Y411230D01*
D02*
G37*
G36*
X766230Y413730D02*
X760960D01*
Y408460D01*
X766230D01*
Y413730D01*
D02*
G37*
G36*
X774040D02*
X768770D01*
Y408460D01*
X774040D01*
Y413730D01*
D02*
G37*
G36*
X398730Y423730D02*
X393460D01*
Y418460D01*
X398730D01*
Y423730D01*
D02*
G37*
G36*
X1231770Y419040D02*
Y413770D01*
X1237040D01*
Y419040D01*
X1231770D01*
D02*
G37*
G36*
X1233540Y526230D02*
X1219270D01*
Y517960D01*
X1233540D01*
Y526230D01*
D02*
G37*
G36*
X908770Y504040D02*
Y498770D01*
X914040D01*
Y504040D01*
X908770D01*
D02*
G37*
G36*
X1310730Y526230D02*
X1296460D01*
Y517960D01*
X1310730D01*
Y526230D01*
D02*
G37*
G36*
Y537040D02*
X1296460D01*
Y528770D01*
X1310730D01*
Y537040D01*
D02*
G37*
G36*
X1327540Y526230D02*
X1313270D01*
Y517960D01*
X1327540D01*
Y526230D01*
D02*
G37*
G36*
X1310730Y376230D02*
X1296460D01*
Y367960D01*
X1310730D01*
Y376230D01*
D02*
G37*
G36*
X1327540D02*
X1313270D01*
Y367960D01*
X1327540D01*
Y376230D01*
D02*
G37*
G36*
X1233540D02*
X1219270D01*
Y367960D01*
X1233540D01*
Y376230D01*
D02*
G37*
G36*
X914040Y496230D02*
X908770D01*
Y490960D01*
X914040D01*
Y496230D01*
D02*
G37*
G36*
X1216730Y376230D02*
X1202460D01*
Y367960D01*
X1216730D01*
Y376230D01*
D02*
G37*
%LPD*%
D10*
X821250Y455000D02*
G03*
X822500Y456250I0J1250D01*
G01*
X775000Y597500D02*
G03*
X772500Y595000I0J-2500D01*
G01*
X837500Y600000D02*
X844902Y607402D01*
X1155000Y382500D02*
X1197500Y425000D01*
X1102500Y382500D02*
X1155000D01*
X1065000Y420000D02*
X1102500Y382500D01*
X1157500Y397500D02*
X1190000Y430000D01*
X1097500Y397500D02*
X1157500D01*
X1065000Y430000D02*
X1097500Y397500D01*
X1156206Y368706D02*
X1200000Y412500D01*
X1106294Y368706D02*
X1156206D01*
X1072750Y402250D02*
X1106294Y368706D01*
X664000Y828000D02*
Y905000D01*
X735000Y785000D02*
X782500Y737500D01*
X540000Y947500D02*
X572500D01*
X707000Y785000D02*
X735000D01*
X664000Y828000D02*
X707000Y785000D01*
X621500Y947500D02*
X664000Y905000D01*
X572500Y947500D02*
X621500D01*
X829000Y496000D02*
Y511000D01*
X812500Y527500D02*
X829000Y511000D01*
X800000Y527500D02*
X812500D01*
X829000Y496000D02*
X853500Y471500D01*
X801000Y550000D02*
X836000Y515000D01*
Y496500D02*
Y515000D01*
Y496500D02*
X852500Y480000D01*
X787500Y550000D02*
X801000D01*
X852500Y480000D02*
X865000D01*
X950000Y320000D02*
Y395000D01*
Y320000D02*
X967500Y302500D01*
X865000Y480000D02*
X950000Y395000D01*
X876000Y479000D02*
X960000Y395000D01*
Y340000D02*
Y395000D01*
Y340000D02*
X980200Y319800D01*
X967500Y292500D02*
Y302500D01*
X935000Y312300D02*
X954800Y292500D01*
X980200D02*
Y319800D01*
X862000Y451000D02*
X905000Y408000D01*
Y280000D02*
Y408000D01*
Y280000D02*
X932750Y252250D01*
X863000Y460000D02*
X912500Y410500D01*
Y282500D02*
Y410500D01*
Y282500D02*
X936000Y259000D01*
X932750Y252250D02*
X978250D01*
X882500Y492500D02*
X882500Y492500D01*
X879500Y487500D02*
X964750Y402250D01*
X862500Y487500D02*
X879500D01*
X862500Y497500D02*
X892500D01*
X862500Y492500D02*
X882500D01*
X880000Y557500D02*
X880000Y557500D01*
X862500Y557500D02*
X880000D01*
X875000Y562500D02*
X882500Y570000D01*
X862500Y562500D02*
X875000D01*
X882500Y570000D02*
X892500D01*
X936000Y259000D02*
X963000D01*
X964750Y402250D02*
X1072750D01*
X1012500Y420000D02*
X1065000D01*
X1015000Y430000D02*
X1065000D01*
X1205000Y712500D02*
X1215500D01*
X1197500Y705000D02*
X1205000Y712500D01*
X1197500Y567500D02*
Y705000D01*
X1170000Y597750D02*
Y645500D01*
X1107500Y541900D02*
X1147500D01*
X1162500Y590250D02*
X1170000Y597750D01*
X1162500Y556900D02*
Y590250D01*
X1147500Y541900D02*
X1162500Y556900D01*
X1190000Y560000D02*
X1197500Y567500D01*
X1190000Y430000D02*
Y560000D01*
X1197500Y425000D02*
Y555000D01*
X1205000Y562500D02*
X1215500D01*
X1197500Y555000D02*
X1205000Y562500D01*
X850000Y500000D02*
Y505000D01*
X920000Y512500D02*
X1012500Y420000D01*
X862500Y512500D02*
X920000D01*
X927500Y517500D02*
X1015000Y430000D01*
X862500Y517500D02*
X927500D01*
X892500Y570000D02*
Y582500D01*
X1070000Y707500D02*
X1082200Y719700D01*
X845600Y618100D02*
X1070000D01*
Y707500D01*
X777500Y550000D02*
Y582500D01*
X797501Y500000D02*
X809999D01*
X765000Y532500D02*
X797501Y500000D01*
X747500Y532500D02*
X765000D01*
X801000Y482000D02*
X825000D01*
X797500Y478500D02*
X801000Y482000D01*
X762500Y550000D02*
Y560000D01*
X760000Y562500D02*
X762500Y560000D01*
X747500Y562500D02*
X760000D01*
X786000Y550000D02*
X787500D01*
X1168000Y964500D02*
X1172500Y960000D01*
X1152500Y964500D02*
X1168000D01*
X802500Y662500D02*
X1100000Y960000D01*
X292500Y880000D02*
X310000Y862500D01*
Y840000D02*
Y862500D01*
Y840000D02*
X480000Y670000D01*
X612500D01*
X240000Y880000D02*
X292500D01*
X532500Y351500D02*
X536000Y355000D01*
X532500Y345000D02*
Y351500D01*
X542500Y355000D02*
X545000Y357500D01*
X536000Y355000D02*
X542500D01*
X545000Y357500D02*
Y364000D01*
X545500Y364500D01*
X991800Y465700D02*
X1107500D01*
X930000Y527500D02*
X991800Y465700D01*
X862500Y527500D02*
X930000D01*
X978900Y491100D02*
X1107500D01*
X937500Y532500D02*
X978900Y491100D01*
X862500Y532500D02*
X937500D01*
X966000Y516500D02*
X1107500D01*
X945000Y537500D02*
X966000Y516500D01*
X862500Y537500D02*
X945000D01*
X955000Y279600D02*
X955000Y279600D01*
X978250Y252250D02*
X986000Y260000D01*
X1215500D01*
X820000Y455000D02*
X821250D01*
X822500Y456250D02*
Y467500D01*
X772500Y582500D02*
Y595000D01*
X245400Y618100D02*
X489400D01*
X1232500Y300000D02*
Y312500D01*
X1215500Y712500D02*
Y723000D01*
X1217500Y330000D02*
X1217500Y330000D01*
X1217500Y300500D02*
Y330000D01*
Y293000D02*
X1219952Y290548D01*
X1217500Y293000D02*
Y300500D01*
X1219952Y290548D02*
X1229952D01*
X1232500Y288000D01*
Y283000D02*
Y288000D01*
X1218000Y482500D02*
X1218000Y482500D01*
X1218000Y453000D02*
Y482500D01*
Y445500D02*
X1220452Y443048D01*
X1218000Y445500D02*
Y453000D01*
X1220452Y443048D02*
X1230452D01*
X1233000Y440500D01*
Y435500D02*
Y440500D01*
X1218000Y632500D02*
X1218000Y632500D01*
X1218000Y603000D02*
Y632500D01*
Y595500D02*
X1220452Y593048D01*
X1218000Y595500D02*
Y603000D01*
X1220452Y593048D02*
X1230452D01*
X1233000Y590500D01*
Y585500D02*
Y590500D01*
X1218000Y332500D02*
X1312000D01*
X1232500Y735000D02*
Y740000D01*
X1229952Y742548D02*
X1232500Y740000D01*
X1219952Y742548D02*
X1229952D01*
X1217500Y745000D02*
Y752500D01*
Y745000D02*
X1219952Y742548D01*
X1217500Y782000D02*
X1220000Y779500D01*
X767500Y430000D02*
X767500Y430000D01*
X782500Y582500D02*
Y737500D01*
X722500Y482500D02*
X730000D01*
X735000Y487500D01*
X747500D01*
X570000Y375000D02*
X587500D01*
X607500Y365000D02*
Y373500D01*
X602500Y360000D02*
X607500Y365000D01*
X587500Y360000D02*
X602500D01*
X519500Y384500D02*
X525000Y390000D01*
X519500Y364500D02*
Y384500D01*
X570000Y345500D02*
X587000D01*
X545500D02*
X570000D01*
Y360000D01*
Y345000D02*
Y345500D01*
X495000Y312500D02*
Y345000D01*
Y287500D02*
Y312500D01*
X495000Y345000D02*
X519000D01*
X525000Y947500D02*
X540000D01*
X520500Y952000D02*
X525000Y947500D01*
X512500Y952000D02*
X520500D01*
X497000Y928000D02*
X503000D01*
X492500Y932500D02*
X497000Y928000D01*
X485000Y932500D02*
X492500D01*
X485000Y947500D02*
Y1009680D01*
X250000Y937000D02*
Y992500D01*
X240000Y895000D02*
Y912500D01*
X1215500Y260000D02*
Y268000D01*
X1217500Y270000D01*
Y277500D01*
X1218000Y482500D02*
X1312000D01*
X1217500Y420000D02*
Y427500D01*
X1215500Y418000D02*
X1217500Y420000D01*
X1218000Y632500D02*
X1312000D01*
X1217500Y570000D02*
Y577500D01*
X1215500Y568000D02*
X1217500Y570000D01*
X1218000Y782500D02*
X1312000D01*
X1217500Y725000D02*
Y732500D01*
X1215500Y723000D02*
X1217500Y725000D01*
X767500Y430000D02*
Y467500D01*
X862500Y552500D02*
X875000D01*
X437500Y270000D02*
Y320000D01*
X412500Y270000D02*
Y320000D01*
Y335000D02*
Y352500D01*
X415250Y395500D02*
Y410250D01*
X428250Y439500D02*
Y450750D01*
X432500Y455000D01*
Y462500D01*
X417500Y455000D02*
Y462500D01*
Y455000D02*
X421750Y450750D01*
Y439500D02*
Y450750D01*
X412500Y352500D02*
Y372500D01*
X397500Y352500D02*
Y372500D01*
X428250Y374250D02*
Y395500D01*
Y374250D02*
X430000Y372500D01*
X437500D01*
X412500D02*
X420000D01*
X421750Y374250D01*
Y395500D01*
X397500Y372500D02*
Y387500D01*
X405500Y395500D01*
X415250D01*
X437500Y335000D02*
Y352500D01*
Y372500D01*
X434750Y422250D02*
Y439500D01*
X430000Y417500D02*
X434750Y422250D01*
X415250Y410250D02*
X422500Y417500D01*
X430000D01*
X417500Y462500D02*
Y480000D01*
X417500Y480000D01*
X432500Y462500D02*
X450000D01*
X431000Y493500D02*
Y500000D01*
Y493500D02*
X432500Y492000D01*
Y480000D02*
Y492000D01*
X431000Y500000D02*
X472500D01*
X827500Y430000D02*
Y467500D01*
X792500Y430000D02*
X827500D01*
X767500Y615000D02*
X767500Y615000D01*
X607500Y373500D02*
X634000D01*
X832500Y442500D02*
Y467500D01*
X472500Y500000D02*
X565000D01*
X245400Y541900D02*
X295000D01*
X245400Y567300D02*
X487700D01*
X527500Y527500D01*
X747500D01*
X747500Y557500D02*
X747500Y557500D01*
X295000Y541900D02*
X485600D01*
X510000Y517500D01*
X747500D01*
X245400Y592700D02*
X487300D01*
X537500Y542500D01*
X747500D01*
X489400Y618100D02*
X555000Y552500D01*
X747500D01*
X725000Y557500D02*
X747500D01*
X612500Y670000D02*
X725000Y557500D01*
X767500Y582500D02*
Y615000D01*
X1100000Y960000D02*
X1125000D01*
X1172500Y960000D02*
X1180000D01*
X1137000Y940500D02*
X1143000D01*
X1125000Y945000D02*
X1132500D01*
X1137000Y940500D01*
X802500Y582500D02*
Y662500D01*
X1070000Y618100D02*
X1144800D01*
X1082200Y719700D02*
X1107500D01*
X875000Y552500D02*
X880000Y547500D01*
X885000D02*
X893500D01*
X1107500Y516500D02*
X1144800D01*
X1107500Y491100D02*
X1144800D01*
X1107500Y465700D02*
X1144800D01*
X1215500Y412500D02*
Y418000D01*
X1200000Y412500D02*
X1215500D01*
Y562500D02*
Y568000D01*
X570000Y375000D02*
Y385000D01*
X565000Y390000D02*
X570000Y385000D01*
X525000Y390000D02*
X565000D01*
X414750Y440000D02*
X415250Y439500D01*
X1180000Y960000D02*
X1235000D01*
X1217500Y782000D02*
X1217500Y782000D01*
X880000Y547500D02*
X885000D01*
X1091800Y694300D02*
X1107500D01*
X1085000Y687500D02*
X1091800Y694300D01*
X1085000Y662500D02*
Y687500D01*
Y662500D02*
X1090750Y656750D01*
X1158750D01*
X1144800Y694300D02*
Y720200D01*
X1132500Y732500D02*
X1144800Y720200D01*
X1107500Y694300D02*
X1144800D01*
X837500Y582500D02*
Y600000D01*
X832500Y582500D02*
Y605000D01*
X845600Y618100D01*
X827500Y582500D02*
Y645000D01*
X915000Y732500D02*
X1132500D01*
X822500Y582500D02*
Y652500D01*
X915100Y745100D02*
X1144800D01*
X817500Y582500D02*
Y660000D01*
X827500Y645000D02*
X915000Y732500D01*
X822500Y652500D02*
X915100Y745100D01*
X817500Y660000D02*
X917500Y760000D01*
X1217500Y752500D02*
Y782000D01*
X917500Y760000D02*
X1155000D01*
X1165000Y750000D01*
Y675000D02*
Y750000D01*
X1158900Y668900D02*
X1165000Y675000D01*
X1107500Y668900D02*
X1158900D01*
X1107500Y643500D02*
X1156500D01*
X1162500Y637500D01*
X1158750Y656750D02*
X1170000Y645500D01*
X1107500Y567300D02*
X1144800D01*
X844902Y607402D02*
X1135098D01*
X1140000Y602500D01*
X1157500D01*
X1162500Y607500D01*
Y637500D01*
X1140000Y590000D02*
Y602500D01*
Y590000D02*
X1144800Y585200D01*
Y567300D02*
Y585200D01*
X892500Y497500D02*
X893000Y497000D01*
X842500Y454500D02*
Y467500D01*
Y454500D02*
X846000Y451000D01*
X862000D01*
X832500Y442500D02*
X842000Y433000D01*
X837500Y448500D02*
Y467500D01*
Y448500D02*
X855000Y431000D01*
X634000Y373500D02*
X841500D01*
X855000Y387000D01*
X565000Y500000D02*
X678000Y387000D01*
X836000D01*
X842000Y393000D01*
Y433000D01*
X967500Y263500D02*
Y279800D01*
X963000Y259000D02*
X967500Y263500D01*
X855000Y387000D02*
Y431000D01*
X935000Y312300D02*
Y399000D01*
X862500Y471500D02*
X935000Y399000D01*
X853500Y471500D02*
X862500D01*
X853000Y460000D02*
X863000D01*
X797500Y467500D02*
Y478500D01*
X777500Y550000D02*
X800000Y527500D01*
X850000Y500000D02*
X852500Y497500D01*
X862500D01*
X851500Y492500D02*
X862500D01*
D11*
X485000Y932500D02*
D03*
Y947500D02*
D03*
X540000Y932500D02*
D03*
Y947500D02*
D03*
X1180000Y945000D02*
D03*
Y960000D02*
D03*
X1125000Y960000D02*
D03*
Y945000D02*
D03*
X412500Y335000D02*
D03*
Y320000D02*
D03*
X437500Y335000D02*
D03*
Y320000D02*
D03*
X450000Y462500D02*
D03*
Y477500D02*
D03*
X495000Y345000D02*
D03*
Y360000D02*
D03*
X587500Y345000D02*
D03*
Y330000D02*
D03*
X570000Y330000D02*
D03*
Y345000D02*
D03*
Y375000D02*
D03*
Y360000D02*
D03*
X587500Y360000D02*
D03*
Y375000D02*
D03*
X240000Y880000D02*
D03*
Y895000D02*
D03*
D12*
X1218000Y827500D02*
D03*
X1312000D02*
D03*
X1218000Y782500D02*
D03*
X1312000D02*
D03*
X1218000Y527500D02*
D03*
X1312000D02*
D03*
X1218000Y482500D02*
D03*
X1312000D02*
D03*
X1218000Y377500D02*
D03*
X1312000D02*
D03*
X1218000Y332500D02*
D03*
X1312000D02*
D03*
X1218000Y677500D02*
D03*
X1312000D02*
D03*
X1218000Y632500D02*
D03*
X1312000D02*
D03*
D13*
X1215500Y712500D02*
D03*
X1230500D02*
D03*
X1215500Y562500D02*
D03*
X1230500D02*
D03*
X1215500Y412500D02*
D03*
X1230500D02*
D03*
X1215500Y260000D02*
D03*
X1230500D02*
D03*
X545000Y380000D02*
D03*
X530000D02*
D03*
X397500Y352500D02*
D03*
X412500D02*
D03*
X495000Y287500D02*
D03*
X510000D02*
D03*
X437500Y352500D02*
D03*
X452500D02*
D03*
X892500Y497500D02*
D03*
X907500D02*
D03*
X892500Y570000D02*
D03*
X907500D02*
D03*
D14*
X1232500Y752500D02*
D03*
X1217500D02*
D03*
X1217500Y732500D02*
D03*
X1232500D02*
D03*
X1232500Y602500D02*
D03*
X1217500D02*
D03*
X1217500Y582500D02*
D03*
X1232500D02*
D03*
X1232500Y452500D02*
D03*
X1217500D02*
D03*
X1217500Y432500D02*
D03*
X1232500D02*
D03*
X1217500Y280000D02*
D03*
X1232500D02*
D03*
X1232500Y300000D02*
D03*
X1217500D02*
D03*
X1143000Y940500D02*
D03*
X1162000D02*
D03*
X1152500Y964500D02*
D03*
X385000Y857000D02*
D03*
X394500Y833000D02*
D03*
X375500D02*
D03*
Y875500D02*
D03*
X394500D02*
D03*
X385000Y899500D02*
D03*
X503000Y928000D02*
D03*
X522000D02*
D03*
X512500Y952000D02*
D03*
X412500Y372500D02*
D03*
X397500D02*
D03*
X432500Y480000D02*
D03*
X417500D02*
D03*
X417500Y462500D02*
D03*
X432500D02*
D03*
X240500Y913000D02*
D03*
X259500D02*
D03*
X250000Y937000D02*
D03*
X437500Y372500D02*
D03*
X452500D02*
D03*
D15*
X355000Y852500D02*
D03*
Y837500D02*
D03*
Y895000D02*
D03*
Y880000D02*
D03*
X722500Y482500D02*
D03*
Y497500D02*
D03*
X400000Y440000D02*
D03*
Y425000D02*
D03*
X767500Y615000D02*
D03*
Y630000D02*
D03*
Y430000D02*
D03*
Y415000D02*
D03*
X827500Y430000D02*
D03*
Y415000D02*
D03*
X810000Y430000D02*
D03*
Y415000D02*
D03*
X792500Y430000D02*
D03*
Y415000D02*
D03*
D16*
X415000Y835500D02*
D03*
Y854500D02*
D03*
X415000Y878000D02*
D03*
Y897000D02*
D03*
X737980Y614580D02*
D03*
Y633580D02*
D03*
D17*
X485320Y1010000D02*
D03*
X444680D02*
D03*
D18*
X607500Y373500D02*
D03*
Y351500D02*
D03*
D19*
X577000Y984800D02*
D03*
Y1010200D02*
D03*
X518000Y984800D02*
D03*
Y1010200D02*
D03*
D20*
X415250Y395500D02*
D03*
X421750D02*
D03*
X428250D02*
D03*
X434750D02*
D03*
X415250Y439500D02*
D03*
X421750D02*
D03*
X428250D02*
D03*
X434750D02*
D03*
D21*
X431000Y500000D02*
D03*
X409000D02*
D03*
D22*
X545500Y345500D02*
D03*
Y364500D02*
D03*
X519500Y345500D02*
D03*
Y355000D02*
D03*
Y364500D02*
D03*
D23*
X980200Y292500D02*
D03*
Y279800D02*
D03*
X967500Y292500D02*
D03*
Y279800D02*
D03*
X954800Y292500D02*
D03*
Y279800D02*
D03*
D24*
X893500Y547500D02*
D03*
X912500D02*
D03*
D25*
X767500Y467500D02*
D03*
X772500D02*
D03*
X777500D02*
D03*
X782500D02*
D03*
X787500D02*
D03*
X792500D02*
D03*
X797500D02*
D03*
X802500D02*
D03*
X807500D02*
D03*
X812500D02*
D03*
X817500D02*
D03*
X822500D02*
D03*
X827500D02*
D03*
X832500D02*
D03*
X837500D02*
D03*
X842500D02*
D03*
Y582500D02*
D03*
X837500D02*
D03*
X832500D02*
D03*
X827500D02*
D03*
X822500D02*
D03*
X817500D02*
D03*
X812500D02*
D03*
X807500D02*
D03*
X802500D02*
D03*
X797500D02*
D03*
X792500D02*
D03*
X787500D02*
D03*
X782500D02*
D03*
X777500D02*
D03*
X772500D02*
D03*
X767500D02*
D03*
D26*
X862500Y487500D02*
D03*
Y492500D02*
D03*
Y497500D02*
D03*
Y502500D02*
D03*
Y507500D02*
D03*
Y512500D02*
D03*
Y517500D02*
D03*
Y522500D02*
D03*
Y527500D02*
D03*
Y532500D02*
D03*
Y537500D02*
D03*
Y542500D02*
D03*
Y547500D02*
D03*
Y552500D02*
D03*
Y557500D02*
D03*
Y562500D02*
D03*
X747500D02*
D03*
Y557500D02*
D03*
Y552500D02*
D03*
Y547500D02*
D03*
Y542500D02*
D03*
Y537500D02*
D03*
Y532500D02*
D03*
Y527500D02*
D03*
Y522500D02*
D03*
Y517500D02*
D03*
Y512500D02*
D03*
Y507500D02*
D03*
Y502500D02*
D03*
Y497500D02*
D03*
Y492500D02*
D03*
Y487500D02*
D03*
D27*
X892500Y582500D02*
X902700Y592700D01*
X1090000Y320000D02*
X1122500Y352500D01*
X995000Y320000D02*
X1090000D01*
X677000Y857500D02*
X944000D01*
X540000D02*
X651158D01*
X810000Y517500D02*
X820000Y507500D01*
Y495000D02*
Y507500D01*
X815000Y490000D02*
X820000Y495000D01*
X799700Y517500D02*
X810000D01*
X772500Y490000D02*
X815000D01*
X580000Y290000D02*
X890000D01*
X922500Y285000D02*
X937500Y270000D01*
X922500Y285000D02*
Y290000D01*
Y315000D01*
X927500Y320000D01*
X937500Y270000D02*
X945400D01*
X570000Y300000D02*
X580000Y290000D01*
X1347500Y880000D02*
Y960000D01*
Y752500D02*
Y880000D01*
X850000Y527500D02*
Y535000D01*
X845000Y540000D02*
X850000Y535000D01*
X845000Y540000D02*
Y565000D01*
X862500Y582500D02*
X892500D01*
X845000Y565000D02*
X862500Y582500D01*
X750000Y465000D02*
Y467500D01*
X772500Y490000D01*
X770524Y546676D02*
Y564476D01*
X770000Y565000D02*
X770524Y564476D01*
X765000Y570000D02*
X770000Y565000D01*
X755000Y570000D02*
X765000D01*
X738500Y586500D02*
X755000Y570000D01*
X787500Y565000D02*
X845000D01*
X730000Y465000D02*
X750000D01*
Y430000D02*
Y465000D01*
X570000Y300000D02*
Y312500D01*
X1285000Y990000D02*
X1317500D01*
X1347500Y452500D02*
Y602500D01*
Y325000D02*
Y452500D01*
Y602500D02*
Y752500D01*
X540000Y857500D02*
Y917500D01*
X518000Y835500D02*
X540000Y857500D01*
X449500Y835500D02*
X518000D01*
X1317500Y990000D02*
X1347500Y960000D01*
X1335000Y312500D02*
X1347500Y325000D01*
X1232500Y312500D02*
X1335000D01*
X902700Y592700D02*
X1107500D01*
X745000Y425000D02*
X750000Y430000D01*
X745000Y405000D02*
Y425000D01*
X337500Y852500D02*
X355000D01*
X252500Y815000D02*
X290000Y852500D01*
X252500Y657500D02*
Y815000D01*
X355000Y852500D02*
X355000Y852500D01*
X532500Y312500D02*
Y345000D01*
Y262500D02*
Y287500D01*
X235000Y640000D02*
X252500Y657500D01*
X235000Y507500D02*
Y640000D01*
X525000Y255000D02*
X532500Y262500D01*
X390000Y255000D02*
X525000D01*
X382500Y262500D02*
X390000Y255000D01*
X235000Y507500D02*
X253750Y488750D01*
X333750D01*
X382500Y440000D01*
Y262500D02*
Y440000D01*
X415000Y835500D02*
X449500D01*
X485320Y1010000D02*
X485520Y1010200D01*
X518000D01*
X650200Y984800D02*
X735000Y900000D01*
X577000Y984800D02*
X650200D01*
X677300Y1010200D02*
X750000Y937500D01*
X577000Y1010200D02*
X677300D01*
X812500Y900000D02*
X850000Y937500D01*
X735000Y900000D02*
X812500D01*
X382500Y440000D02*
X400000D01*
X355000Y895000D02*
Y915000D01*
X355000Y895000D02*
X355000Y895000D01*
X770524Y546676D02*
X799700Y517500D01*
X944000Y857500D02*
X1076500Y990000D01*
X1285000D01*
X712920Y614580D02*
X737980D01*
X518000Y809500D02*
X712920Y614580D01*
X738500Y586500D02*
Y614580D01*
X518000Y809500D02*
Y835500D01*
D28*
X945400Y270000D02*
X955000Y279600D01*
X1177500Y575000D02*
X1185000Y582500D01*
X1177500Y440000D02*
Y575000D01*
X1152400Y414900D02*
X1177500Y440000D01*
X1185000Y847500D02*
X1217500Y880000D01*
X1185000Y582500D02*
Y847500D01*
X1107500Y414900D02*
X1152400D01*
X1217500Y880000D02*
X1347500D01*
X787500Y400000D02*
X792500Y405000D01*
X750000Y400000D02*
X787500D01*
X745000Y405000D02*
X750000Y400000D01*
X850000Y505000D02*
Y527500D01*
X722500Y472500D02*
X730000Y465000D01*
X722500Y472500D02*
Y482500D01*
X750000Y430000D02*
X767500D01*
X792500Y405000D02*
Y415000D01*
X570000Y312500D02*
Y320000D01*
X570000Y316250D02*
Y330000D01*
X515000Y300000D02*
X570000D01*
X510000Y295000D02*
X515000Y300000D01*
X510000Y287500D02*
Y295000D01*
X1285000Y950000D02*
Y960000D01*
X1280000Y945000D02*
X1285000Y950000D01*
X1180000Y945000D02*
X1280000D01*
X1285000Y990000D02*
X1285000Y990000D01*
X1285000Y960000D02*
Y990000D01*
X540000Y917500D02*
Y932500D01*
X1232500Y452500D02*
X1347500D01*
X1232500Y602500D02*
X1347500D01*
X1232500Y752500D02*
X1347500D01*
X738500Y615000D02*
X767500D01*
X380000Y787500D02*
X440000D01*
X322500Y845000D02*
X380000Y787500D01*
X322500Y845000D02*
Y980000D01*
X285000Y1017500D02*
X322500Y980000D01*
X792500Y415000D02*
X792500Y415000D01*
X440000Y787500D02*
X449500Y797000D01*
Y835500D01*
X250000Y1017500D02*
X285000D01*
X355000Y852500D02*
X370000D01*
X374500Y857000D01*
X385000D01*
X394500Y859500D02*
Y875500D01*
X392000Y857000D02*
X394500Y859500D01*
X385000Y857000D02*
X392000D01*
X394500Y875500D02*
X403000D01*
X405500Y878000D01*
X415000D01*
X405500Y835500D02*
X415000D01*
X403000Y833000D02*
X405500Y835500D01*
X394500Y833000D02*
X403000D01*
X545500Y364500D02*
Y379500D01*
X355000Y895000D02*
X367500D01*
X372000Y899500D01*
X385000D01*
D29*
X1087500Y1155000D02*
X1133500D01*
X857500Y1137500D02*
X900000D01*
X1246500Y1155000D02*
X1292500D01*
X700000Y1137500D02*
X774877Y1212377D01*
X825122Y1169877D02*
Y1238814D01*
Y1169877D02*
X857500Y1137500D01*
X774877Y1212377D02*
Y1261185D01*
Y1452500D01*
X1292500Y1155000D02*
X1315000D01*
X1330000Y1170000D01*
Y1240400D01*
X900000Y1137500D02*
X917500Y1155000D01*
X1087500D01*
X1285000Y1425000D02*
X1330000Y1380000D01*
Y1319600D02*
Y1380000D01*
X1151400Y1425000D02*
X1285000D01*
D30*
X400000Y440000D02*
X414750D01*
D31*
X444680Y967820D02*
Y1010000D01*
Y967820D02*
X445000Y967500D01*
X365000D02*
X445000D01*
X355000Y957500D02*
X365000Y967500D01*
X355000Y915000D02*
Y957500D01*
D32*
X620000Y1375500D02*
X697000Y1452500D01*
X940850D01*
X968600Y1424750D01*
D33*
X280000Y1319600D02*
X424100D01*
X480000Y1375500D01*
D34*
X1107500Y414900D02*
D03*
Y440300D02*
D03*
Y465700D02*
D03*
Y491100D02*
D03*
Y516500D02*
D03*
Y541900D02*
D03*
X295000Y618100D02*
D03*
Y592700D02*
D03*
Y567300D02*
D03*
X1107500Y592700D02*
D03*
Y618100D02*
D03*
Y643500D02*
D03*
Y668900D02*
D03*
Y694300D02*
D03*
Y719700D02*
D03*
D35*
Y567300D02*
D03*
X295000Y541900D02*
D03*
X1107500Y745100D02*
D03*
D36*
X290000Y852500D02*
D03*
X242500Y847500D02*
D03*
X1100000Y960000D02*
D03*
X250400Y618100D02*
D03*
Y592700D02*
D03*
Y567300D02*
D03*
Y541900D02*
D03*
X449500Y835500D02*
D03*
X1175000Y287500D02*
D03*
X445000Y967500D02*
D03*
X572500Y947500D02*
D03*
X634000Y373500D02*
D03*
X495000Y312500D02*
D03*
X472500Y500000D02*
D03*
X250000Y992500D02*
D03*
X437500Y270000D02*
D03*
X1144800Y618100D02*
D03*
Y567300D02*
D03*
Y694300D02*
D03*
Y491100D02*
D03*
Y516500D02*
D03*
Y745100D02*
D03*
Y668900D02*
D03*
Y465700D02*
D03*
D37*
X1087500Y1155000D02*
D03*
X1133500D02*
D03*
X1292500D02*
D03*
X1246500D02*
D03*
D38*
X900000Y1137500D02*
D03*
X700000D02*
D03*
X750000Y937500D02*
D03*
X850000D02*
D03*
D39*
X1330000Y1240400D02*
D03*
X280000D02*
D03*
D40*
X1330000Y1319600D02*
D03*
X280000D02*
D03*
D41*
X250000Y1017500D02*
D03*
D42*
X1285000Y960000D02*
D03*
D43*
X1235000D02*
D03*
D44*
X825122Y1238814D02*
D03*
X774877Y1261185D02*
D03*
X365000Y1017500D02*
D03*
Y967500D02*
D03*
D45*
X412500Y270000D02*
D03*
D46*
X968600Y1424750D02*
D03*
X1060000D02*
D03*
X1151400D02*
D03*
D47*
X620000Y1375500D02*
D03*
X550000D02*
D03*
X480000D02*
D03*
D48*
X1132000Y362000D02*
D03*
X1114000D02*
D03*
X1122500Y352500D02*
D03*
X1113000Y390000D02*
D03*
X1132000D02*
D03*
Y376000D02*
D03*
X1113000D02*
D03*
X671000Y867000D02*
D03*
Y848000D02*
D03*
X657000Y867000D02*
D03*
Y848000D02*
D03*
X677000Y857500D02*
D03*
X651158D02*
D03*
X298000Y864000D02*
D03*
X302000Y843000D02*
D03*
X331000Y862000D02*
D03*
X336000Y843000D02*
D03*
X842000Y510000D02*
D03*
X850000Y491000D02*
D03*
X977500Y332500D02*
D03*
X987500Y310000D02*
D03*
X972500D02*
D03*
X947500D02*
D03*
X942500Y332500D02*
D03*
X957500D02*
D03*
X995000Y320000D02*
D03*
X890000Y290000D02*
D03*
X922500D02*
D03*
X927500Y320000D02*
D03*
X809999Y500000D02*
D03*
X762500Y550000D02*
D03*
X770000Y565000D02*
D03*
X787500D02*
D03*
Y550000D02*
D03*
X337500Y852500D02*
D03*
X532500Y312500D02*
D03*
Y287500D02*
D03*
X825000Y482000D02*
D03*
X800000Y247500D02*
D03*
X820000Y455000D02*
D03*
X1232500Y312500D02*
D03*
X880000Y557500D02*
D03*
X775000Y597500D02*
D03*
X735000Y507500D02*
D03*
X710000Y497500D02*
D03*
X760000Y492500D02*
D03*
X532500Y367500D02*
D03*
X432500Y860000D02*
D03*
Y902500D02*
D03*
X532500Y977500D02*
D03*
Y990000D02*
D03*
X1230000Y247500D02*
D03*
X1230000Y400000D02*
D03*
Y550000D02*
D03*
X1230000Y700000D02*
D03*
X522500Y917500D02*
D03*
X385000Y875000D02*
D03*
X432500Y892500D02*
D03*
Y850000D02*
D03*
X385000Y832500D02*
D03*
X342500Y837500D02*
D03*
X502500Y990000D02*
D03*
Y977500D02*
D03*
X907500Y582500D02*
D03*
Y485000D02*
D03*
X827500Y402500D02*
D03*
X810000D02*
D03*
X730000Y397500D02*
D03*
X755000Y630000D02*
D03*
X450000Y490000D02*
D03*
X507500Y355000D02*
D03*
X452500Y340000D02*
D03*
X587500Y320000D02*
D03*
X1290000Y377500D02*
D03*
X1240000D02*
D03*
Y527500D02*
D03*
X1290000D02*
D03*
X1240000Y677500D02*
D03*
X1290000D02*
D03*
X1240000Y827500D02*
D03*
X1290000D02*
D03*
X980000Y268650D02*
D03*
X755000Y415000D02*
D03*
X1162500Y930000D02*
D03*
X925000Y547500D02*
D03*
X452500Y385000D02*
D03*
X355000Y867500D02*
D03*
X270000Y247500D02*
D03*
X227500Y290000D02*
D03*
Y650000D02*
D03*
Y1042500D02*
D03*
X1372500D02*
D03*
Y290000D02*
D03*
X1330000Y247500D02*
D03*
X1372500Y650000D02*
D03*
X800000Y1042500D02*
D03*
X400000Y412500D02*
D03*
X407500Y512500D02*
D03*
X445000Y395000D02*
D03*
X607500Y340000D02*
D03*
X272500Y912500D02*
D03*
X876000Y479000D02*
D03*
X848000Y427000D02*
D03*
X854000Y443000D02*
D03*
X853000Y460000D02*
D03*
X722500Y635000D02*
D03*
Y625000D02*
D03*
M02*
