G04*
G04 #@! TF.GenerationSoftware,Altium Limited,CircuitStudio,1.5.2 (30)*
G04*
G04 Layer_Color=8388736*
%FSLAX44Y44*%
%MOMM*%
G71*
G01*
G75*
%ADD72R,0.8760X0.8760*%
%ADD73R,0.8760X0.8760*%
%ADD74R,0.9760X1.3760*%
%ADD75R,0.9760X0.6760*%
G04:AMPARAMS|DCode=76|XSize=1.176mm|YSize=0.676mm|CornerRadius=0.113mm|HoleSize=0mm|Usage=FLASHONLY|Rotation=0.000|XOffset=0mm|YOffset=0mm|HoleType=Round|Shape=RoundedRectangle|*
%AMROUNDEDRECTD76*
21,1,1.1760,0.4500,0,0,0.0*
21,1,0.9500,0.6760,0,0,0.0*
1,1,0.2260,0.4750,-0.2250*
1,1,0.2260,-0.4750,-0.2250*
1,1,0.2260,-0.4750,0.2250*
1,1,0.2260,0.4750,0.2250*
%
%ADD76ROUNDEDRECTD76*%
%ADD77R,0.6760X0.9760*%
%ADD78R,1.5260X0.5260*%
%ADD79R,0.6760X0.6760*%
%ADD80R,7.3760X2.7260*%
%ADD81R,1.3760X0.9760*%
%ADD82C,0.8634*%
%ADD83R,2.2350X1.8540*%
%ADD84R,1.7760X0.8760*%
%ADD85R,0.3760X1.2760*%
%ADD86R,1.2760X0.3760*%
%ADD87R,1.4760X2.9760*%
%ADD88R,0.7760X1.6760*%
%ADD89R,1.6760X1.5760*%
%ADD90R,1.2760X1.5760*%
%ADD91R,1.2760X2.2760*%
%ADD92C,1.7760*%
%ADD93C,1.2000*%
%ADD94C,2.0260*%
%ADD95C,2.5510*%
%ADD96R,2.5510X2.5510*%
%ADD97R,1.5760X1.5760*%
%ADD98C,1.5760*%
%ADD99C,1.4260*%
%ADD100C,2.6260*%
%ADD101C,3.3540*%
%ADD102C,2.4760*%
%ADD103C,1.8760*%
%ADD104R,1.6760X1.6760*%
%ADD105C,1.6760*%
%ADD106R,1.3510X1.3510*%
%ADD107C,1.3510*%
%ADD108C,1.2040*%
D72*
X765000Y824500D02*
D03*
Y839500D02*
D03*
X522260Y590840D02*
D03*
Y605840D02*
D03*
X283000Y882500D02*
D03*
Y897500D02*
D03*
X336500Y693500D02*
D03*
Y678500D02*
D03*
Y653500D02*
D03*
Y638500D02*
D03*
X767500Y656000D02*
D03*
Y641000D02*
D03*
X827500Y656000D02*
D03*
Y641000D02*
D03*
X810000Y656000D02*
D03*
Y641000D02*
D03*
X792500Y656000D02*
D03*
Y641000D02*
D03*
D73*
X548719Y772680D02*
D03*
X563719D02*
D03*
X424000Y691000D02*
D03*
X409000D02*
D03*
X339500Y860000D02*
D03*
X354500D02*
D03*
X599000Y653000D02*
D03*
X584000D02*
D03*
X726610Y712640D02*
D03*
X711610D02*
D03*
X891950Y717720D02*
D03*
X906950D02*
D03*
X892500Y796000D02*
D03*
X907500D02*
D03*
D74*
X565719Y832680D02*
D03*
X546719D02*
D03*
X893500Y773500D02*
D03*
X912500D02*
D03*
D75*
X544219Y802680D02*
D03*
X568219Y812180D02*
D03*
Y793180D02*
D03*
X301000Y882500D02*
D03*
Y897500D02*
D03*
X318000Y897500D02*
D03*
Y882500D02*
D03*
X1107000Y744500D02*
D03*
Y729500D02*
D03*
X1128000Y744500D02*
D03*
Y729500D02*
D03*
X1149000Y744500D02*
D03*
Y729500D02*
D03*
X446500Y673500D02*
D03*
Y658500D02*
D03*
X464000Y658500D02*
D03*
Y673500D02*
D03*
X356500Y678500D02*
D03*
Y693500D02*
D03*
X576000Y928500D02*
D03*
Y943500D02*
D03*
X549000Y618000D02*
D03*
Y633000D02*
D03*
X641500Y618000D02*
D03*
Y603000D02*
D03*
X624000Y603000D02*
D03*
Y618000D02*
D03*
Y648000D02*
D03*
Y633000D02*
D03*
X641500Y633000D02*
D03*
Y648000D02*
D03*
X240000Y880000D02*
D03*
Y895000D02*
D03*
X356500Y653500D02*
D03*
Y638500D02*
D03*
X1102110Y952720D02*
D03*
Y937720D02*
D03*
X1046520Y952720D02*
D03*
Y937720D02*
D03*
D76*
X599500Y618500D02*
D03*
Y637500D02*
D03*
X573500Y618500D02*
D03*
Y628000D02*
D03*
Y637500D02*
D03*
X351000Y891000D02*
D03*
Y900500D02*
D03*
Y881500D02*
D03*
X377000Y900500D02*
D03*
Y891000D02*
D03*
Y881500D02*
D03*
D77*
X446500Y641000D02*
D03*
X461500D02*
D03*
X319000Y678500D02*
D03*
X304000D02*
D03*
X539000Y924000D02*
D03*
X558000D02*
D03*
X548500Y948000D02*
D03*
X519500Y946000D02*
D03*
X504500D02*
D03*
X240500Y913000D02*
D03*
X259500D02*
D03*
X250000Y937000D02*
D03*
X319000Y653500D02*
D03*
X304000D02*
D03*
X1064520Y933220D02*
D03*
X1083520D02*
D03*
X1074020Y957220D02*
D03*
X554500Y899000D02*
D03*
X539500D02*
D03*
D78*
X379500Y675750D02*
D03*
Y669250D02*
D03*
Y662750D02*
D03*
Y656250D02*
D03*
X423500Y675750D02*
D03*
Y669250D02*
D03*
Y662750D02*
D03*
Y656250D02*
D03*
D79*
X484000Y660000D02*
D03*
Y682000D02*
D03*
X661500Y646500D02*
D03*
Y624500D02*
D03*
D80*
X468000Y864250D02*
D03*
Y817750D02*
D03*
D81*
X411000Y902500D02*
D03*
Y883500D02*
D03*
X720000Y807500D02*
D03*
Y826500D02*
D03*
D82*
X943350Y592000D02*
D03*
X930650D02*
D03*
X943350Y604700D02*
D03*
X930650D02*
D03*
X943350Y617400D02*
D03*
X930650D02*
D03*
D83*
X485320Y1010000D02*
D03*
X444680D02*
D03*
D84*
X577000Y984800D02*
D03*
Y1010200D02*
D03*
X518000Y984800D02*
D03*
Y1010200D02*
D03*
D85*
X767500Y693500D02*
D03*
X772500D02*
D03*
X777500D02*
D03*
X782500D02*
D03*
X787500D02*
D03*
X792500D02*
D03*
X797500D02*
D03*
X802500D02*
D03*
X807500D02*
D03*
X812500D02*
D03*
X817500D02*
D03*
X822500D02*
D03*
X827500D02*
D03*
X832500D02*
D03*
X837500D02*
D03*
X842500D02*
D03*
Y808500D02*
D03*
X837500D02*
D03*
X832500D02*
D03*
X827500D02*
D03*
X822500D02*
D03*
X817500D02*
D03*
X812500D02*
D03*
X807500D02*
D03*
X802500D02*
D03*
X797500D02*
D03*
X792500D02*
D03*
X787500D02*
D03*
X782500D02*
D03*
X777500D02*
D03*
X772500D02*
D03*
X767500D02*
D03*
D86*
X862500Y713500D02*
D03*
Y718500D02*
D03*
Y723500D02*
D03*
Y728500D02*
D03*
Y733500D02*
D03*
Y738500D02*
D03*
Y743500D02*
D03*
Y748500D02*
D03*
Y753500D02*
D03*
Y758500D02*
D03*
Y763500D02*
D03*
Y768500D02*
D03*
Y773500D02*
D03*
Y778500D02*
D03*
Y783500D02*
D03*
Y788500D02*
D03*
X747500D02*
D03*
Y783500D02*
D03*
Y778500D02*
D03*
Y773500D02*
D03*
Y768500D02*
D03*
Y763500D02*
D03*
Y758500D02*
D03*
Y753500D02*
D03*
Y748500D02*
D03*
Y743500D02*
D03*
Y738500D02*
D03*
Y733500D02*
D03*
Y728500D02*
D03*
Y723500D02*
D03*
Y718500D02*
D03*
Y713500D02*
D03*
D87*
X414000Y814000D02*
D03*
X378000D02*
D03*
D88*
X1151500Y702000D02*
D03*
X1140500D02*
D03*
X1129500D02*
D03*
X1118500D02*
D03*
X1107500D02*
D03*
X1096500D02*
D03*
X1085500D02*
D03*
X1074500D02*
D03*
X1063500D02*
D03*
D89*
X1197500Y692000D02*
D03*
D90*
X1051500D02*
D03*
D91*
Y596000D02*
D03*
X1206500D02*
D03*
D92*
X549000Y590580D02*
D03*
X1014000Y779000D02*
D03*
X1035340Y744500D02*
D03*
X317500Y580000D02*
D03*
X1292500D02*
D03*
X300010Y939970D02*
D03*
X415000Y778000D02*
D03*
X445000Y967500D02*
D03*
X628940Y830750D02*
D03*
X720380Y628820D02*
D03*
X515000Y660000D02*
D03*
X1021520Y952720D02*
D03*
X1065820Y760900D02*
D03*
X994700Y705020D02*
D03*
X565440Y863770D02*
D03*
X1308390Y880220D02*
D03*
Y829420D02*
D03*
Y804020D02*
D03*
Y727820D02*
D03*
Y753220D02*
D03*
Y778620D02*
D03*
Y1007220D02*
D03*
Y931020D02*
D03*
Y981820D02*
D03*
Y956420D02*
D03*
Y905820D02*
D03*
X1196630Y857420D02*
D03*
D93*
X947160Y579300D02*
D03*
X926840D02*
D03*
X937000Y630100D02*
D03*
D94*
X1087500Y1155000D02*
D03*
X1133500D02*
D03*
X1292500D02*
D03*
X1246500D02*
D03*
D95*
X1330000Y1240400D02*
D03*
X272500Y1319600D02*
D03*
D96*
X1330000D02*
D03*
X272500Y1240400D02*
D03*
D97*
X250000Y1017500D02*
D03*
Y678500D02*
D03*
D98*
Y992500D02*
D03*
Y653500D02*
D03*
X365000Y1017500D02*
D03*
Y967500D02*
D03*
D99*
X825122Y1238814D02*
D03*
X774877Y1261185D02*
D03*
D100*
X620000Y1375500D02*
D03*
X550000D02*
D03*
X480000D02*
D03*
D101*
X255000Y1575000D02*
D03*
X1345000D02*
D03*
Y580000D02*
D03*
X255000D02*
D03*
D102*
X1151400Y1424750D02*
D03*
X1060000D02*
D03*
X968600D02*
D03*
D103*
X900000Y1162500D02*
D03*
X700000D02*
D03*
X750000Y912500D02*
D03*
X850000D02*
D03*
D104*
X1276640Y1007280D02*
D03*
D105*
Y981880D02*
D03*
Y956480D02*
D03*
Y931080D02*
D03*
Y905680D02*
D03*
Y880280D02*
D03*
Y854880D02*
D03*
Y829480D02*
D03*
Y804080D02*
D03*
Y778680D02*
D03*
Y753280D02*
D03*
Y727880D02*
D03*
Y702480D02*
D03*
Y677080D02*
D03*
D106*
X1206520Y952720D02*
D03*
D107*
X1156520D02*
D03*
D108*
X1079500Y592000D02*
D03*
X1159500D02*
D03*
M02*
