G04*
G04 #@! TF.GenerationSoftware,Altium Limited,CircuitStudio,1.5.2 (30)*
G04*
G04 Layer_Color=8388736*
%FSLAX44Y44*%
%MOMM*%
G71*
G01*
G75*
%ADD53C,0.8634*%
%ADD54R,0.6760X0.9760*%
%ADD55O,2.0760X1.1760*%
%ADD56R,0.9760X0.6760*%
%ADD57R,2.6760X1.4760*%
%ADD58R,0.8760X0.8760*%
%ADD59R,0.8760X0.8760*%
%ADD60R,1.3760X0.9760*%
%ADD61R,2.2350X1.8540*%
%ADD62R,0.6760X0.6760*%
%ADD63R,1.7760X0.8760*%
%ADD64R,0.5260X1.5260*%
%ADD65R,0.6760X0.6760*%
G04:AMPARAMS|DCode=66|XSize=1.176mm|YSize=0.676mm|CornerRadius=0.113mm|HoleSize=0mm|Usage=FLASHONLY|Rotation=0.000|XOffset=0mm|YOffset=0mm|HoleType=Round|Shape=RoundedRectangle|*
%AMROUNDEDRECTD66*
21,1,1.1760,0.4500,0,0,0.0*
21,1,0.9500,0.6760,0,0,0.0*
1,1,0.2260,0.4750,-0.2250*
1,1,0.2260,-0.4750,-0.2250*
1,1,0.2260,-0.4750,0.2250*
1,1,0.2260,0.4750,0.2250*
%
%ADD66ROUNDEDRECTD66*%
%ADD67R,0.9760X1.3760*%
%ADD68R,0.3760X1.2760*%
%ADD69R,1.2760X0.3760*%
%ADD70C,1.2000*%
%ADD71C,1.5760*%
%ADD72O,1.8760X1.6060*%
%ADD73R,1.8760X1.6060*%
%ADD74C,3.3540*%
%ADD75C,2.0260*%
%ADD76C,1.8760*%
%ADD77C,2.5510*%
%ADD78R,2.5510X2.5510*%
%ADD79R,1.5760X1.5760*%
%ADD80R,1.3510X1.3510*%
%ADD81C,1.3510*%
%ADD82C,1.4260*%
%ADD83R,1.5760X1.5760*%
%ADD84C,2.4760*%
%ADD85C,2.6260*%
D53*
X980200Y292500D02*
D03*
Y279800D02*
D03*
X967500Y292500D02*
D03*
Y279800D02*
D03*
X954800Y292500D02*
D03*
Y279800D02*
D03*
D54*
X1077500Y907500D02*
D03*
X1062500D02*
D03*
X1062500Y890000D02*
D03*
X1077500D02*
D03*
X1077500Y872500D02*
D03*
X1062500D02*
D03*
X1232500Y752500D02*
D03*
X1217500D02*
D03*
X1217500Y732500D02*
D03*
X1232500D02*
D03*
X1232500Y602500D02*
D03*
X1217500D02*
D03*
X1217500Y582500D02*
D03*
X1232500D02*
D03*
X1232500Y452500D02*
D03*
X1217500D02*
D03*
X1217500Y432500D02*
D03*
X1232500D02*
D03*
X1217500Y280000D02*
D03*
X1232500D02*
D03*
X1232500Y300000D02*
D03*
X1217500D02*
D03*
X1143000Y940500D02*
D03*
X1162000D02*
D03*
X1152500Y964500D02*
D03*
X385000Y857000D02*
D03*
X394500Y833000D02*
D03*
X375500D02*
D03*
Y875500D02*
D03*
X394500D02*
D03*
X385000Y899500D02*
D03*
X503000Y928000D02*
D03*
X522000D02*
D03*
X512500Y952000D02*
D03*
X412500Y372500D02*
D03*
X397500D02*
D03*
X432500Y480000D02*
D03*
X417500D02*
D03*
X417500Y462500D02*
D03*
X432500D02*
D03*
X240500Y913000D02*
D03*
X259500D02*
D03*
X250000Y937000D02*
D03*
X437500Y372500D02*
D03*
X452500D02*
D03*
D55*
X1098500Y907000D02*
D03*
Y890000D02*
D03*
Y873000D02*
D03*
X1146500D02*
D03*
Y890000D02*
D03*
Y907000D02*
D03*
D56*
X332500Y927500D02*
D03*
Y912500D02*
D03*
X315000D02*
D03*
Y927500D02*
D03*
X485000Y932500D02*
D03*
Y947500D02*
D03*
X540000Y932500D02*
D03*
Y947500D02*
D03*
X1180000Y945000D02*
D03*
Y960000D02*
D03*
X1125000Y960000D02*
D03*
Y945000D02*
D03*
X412500Y335000D02*
D03*
Y320000D02*
D03*
X437500Y335000D02*
D03*
Y320000D02*
D03*
X450000Y462500D02*
D03*
Y477500D02*
D03*
X495000Y345000D02*
D03*
Y360000D02*
D03*
X587500Y345000D02*
D03*
Y330000D02*
D03*
X570000Y330000D02*
D03*
Y345000D02*
D03*
Y375000D02*
D03*
Y360000D02*
D03*
X587500Y360000D02*
D03*
Y375000D02*
D03*
X240000Y880000D02*
D03*
Y895000D02*
D03*
D57*
X1218000Y827500D02*
D03*
X1312000D02*
D03*
X1218000Y782500D02*
D03*
X1312000D02*
D03*
X1218000Y527500D02*
D03*
X1312000D02*
D03*
X1218000Y482500D02*
D03*
X1312000D02*
D03*
X1218000Y377500D02*
D03*
X1312000D02*
D03*
X1218000Y332500D02*
D03*
X1312000D02*
D03*
X1218000Y677500D02*
D03*
X1312000D02*
D03*
X1218000Y632500D02*
D03*
X1312000D02*
D03*
D58*
X1215500Y712500D02*
D03*
X1230500D02*
D03*
X1215500Y562500D02*
D03*
X1230500D02*
D03*
X1215500Y412500D02*
D03*
X1230500D02*
D03*
X1215500Y260000D02*
D03*
X1230500D02*
D03*
X545000Y380000D02*
D03*
X530000D02*
D03*
X397500Y352500D02*
D03*
X412500D02*
D03*
X495000Y287500D02*
D03*
X510000D02*
D03*
X437500Y352500D02*
D03*
X452500D02*
D03*
X892500Y497500D02*
D03*
X907500D02*
D03*
X892500Y570000D02*
D03*
X907500D02*
D03*
D59*
X355000Y852500D02*
D03*
Y837500D02*
D03*
Y895000D02*
D03*
Y880000D02*
D03*
X722500Y482500D02*
D03*
Y497500D02*
D03*
X400000Y440000D02*
D03*
Y425000D02*
D03*
X767500Y615000D02*
D03*
Y630000D02*
D03*
Y430000D02*
D03*
Y415000D02*
D03*
X827500Y430000D02*
D03*
Y415000D02*
D03*
X810000Y430000D02*
D03*
Y415000D02*
D03*
X792500Y430000D02*
D03*
Y415000D02*
D03*
D60*
X415000Y835500D02*
D03*
Y854500D02*
D03*
X415000Y878000D02*
D03*
Y897000D02*
D03*
X737980Y614580D02*
D03*
Y633580D02*
D03*
D61*
X485320Y1010000D02*
D03*
X444680D02*
D03*
D62*
X607500Y373500D02*
D03*
Y351500D02*
D03*
D63*
X577000Y984800D02*
D03*
Y1010200D02*
D03*
X518000Y984800D02*
D03*
Y1010200D02*
D03*
D64*
X415250Y395500D02*
D03*
X421750D02*
D03*
X428250D02*
D03*
X434750D02*
D03*
X415250Y439500D02*
D03*
X421750D02*
D03*
X428250D02*
D03*
X434750D02*
D03*
D65*
X431000Y500000D02*
D03*
X409000D02*
D03*
D66*
X545500Y345500D02*
D03*
Y364500D02*
D03*
X519500Y345500D02*
D03*
Y355000D02*
D03*
Y364500D02*
D03*
D67*
X893500Y547500D02*
D03*
X912500D02*
D03*
D68*
X767500Y467500D02*
D03*
X772500D02*
D03*
X777500D02*
D03*
X782500D02*
D03*
X787500D02*
D03*
X792500D02*
D03*
X797500D02*
D03*
X802500D02*
D03*
X807500D02*
D03*
X812500D02*
D03*
X817500D02*
D03*
X822500D02*
D03*
X827500D02*
D03*
X832500D02*
D03*
X837500D02*
D03*
X842500D02*
D03*
Y582500D02*
D03*
X837500D02*
D03*
X832500D02*
D03*
X827500D02*
D03*
X822500D02*
D03*
X817500D02*
D03*
X812500D02*
D03*
X807500D02*
D03*
X802500D02*
D03*
X797500D02*
D03*
X792500D02*
D03*
X787500D02*
D03*
X782500D02*
D03*
X777500D02*
D03*
X772500D02*
D03*
X767500D02*
D03*
D69*
X862500Y487500D02*
D03*
Y492500D02*
D03*
Y497500D02*
D03*
Y502500D02*
D03*
Y507500D02*
D03*
Y512500D02*
D03*
Y517500D02*
D03*
Y522500D02*
D03*
Y527500D02*
D03*
Y532500D02*
D03*
Y537500D02*
D03*
Y542500D02*
D03*
Y547500D02*
D03*
Y552500D02*
D03*
Y557500D02*
D03*
Y562500D02*
D03*
X747500D02*
D03*
Y557500D02*
D03*
Y552500D02*
D03*
Y547500D02*
D03*
Y542500D02*
D03*
Y537500D02*
D03*
Y532500D02*
D03*
Y527500D02*
D03*
Y522500D02*
D03*
Y517500D02*
D03*
Y512500D02*
D03*
Y507500D02*
D03*
Y502500D02*
D03*
Y497500D02*
D03*
Y492500D02*
D03*
Y487500D02*
D03*
D70*
X992900Y296310D02*
D03*
Y275990D02*
D03*
X942100Y286150D02*
D03*
D71*
X252500Y785000D02*
D03*
X242500Y847500D02*
D03*
X1100000Y960000D02*
D03*
X250400Y618100D02*
D03*
Y592700D02*
D03*
Y567300D02*
D03*
Y541900D02*
D03*
X449500Y835500D02*
D03*
X1175000Y287500D02*
D03*
X445000Y967500D02*
D03*
X572500Y947500D02*
D03*
X634000Y373500D02*
D03*
X495000Y312500D02*
D03*
X472500Y500000D02*
D03*
X250000Y992500D02*
D03*
X437500Y270000D02*
D03*
X1144800Y618100D02*
D03*
Y567300D02*
D03*
Y694300D02*
D03*
Y491100D02*
D03*
Y516500D02*
D03*
Y745100D02*
D03*
Y668900D02*
D03*
Y465700D02*
D03*
D72*
X1107500Y414900D02*
D03*
Y440300D02*
D03*
Y465700D02*
D03*
Y491100D02*
D03*
Y516500D02*
D03*
Y541900D02*
D03*
X295000Y618100D02*
D03*
Y592700D02*
D03*
Y567300D02*
D03*
X1107500Y592700D02*
D03*
Y618100D02*
D03*
Y643500D02*
D03*
Y668900D02*
D03*
Y694300D02*
D03*
Y719700D02*
D03*
D73*
Y567300D02*
D03*
X295000Y541900D02*
D03*
X1107500Y745100D02*
D03*
D74*
X1060800Y360000D02*
D03*
Y800000D02*
D03*
X300000D02*
D03*
Y360000D02*
D03*
X255000Y1575000D02*
D03*
X1345000D02*
D03*
Y275000D02*
D03*
X255000D02*
D03*
D75*
X1087500Y1155000D02*
D03*
X1133500D02*
D03*
X1292500D02*
D03*
X1246500D02*
D03*
D76*
X900000Y1137500D02*
D03*
X700000D02*
D03*
X750000Y937500D02*
D03*
X850000D02*
D03*
D77*
X1330000Y1240400D02*
D03*
X280000D02*
D03*
D78*
X1330000Y1319600D02*
D03*
X280000D02*
D03*
D79*
X250000Y1017500D02*
D03*
D80*
X1285000Y960000D02*
D03*
D81*
X1235000D02*
D03*
D82*
X825122Y1238814D02*
D03*
X774877Y1261185D02*
D03*
X365000Y1017500D02*
D03*
Y967500D02*
D03*
D83*
X412500Y270000D02*
D03*
D84*
X968600Y1424750D02*
D03*
X1060000D02*
D03*
X1151400D02*
D03*
D85*
X620000Y1375500D02*
D03*
X550000D02*
D03*
X480000D02*
D03*
M02*
